%TF.GenerationSoftware,KiCad,Pcbnew,9.0.3*%
%TF.CreationDate,2025-11-12T23:28:46+09:00*%
%TF.ProjectId,amphibious_pcb,616d7068-6962-4696-9f75-735f7063622e,rev?*%
%TF.SameCoordinates,Original*%
%TF.FileFunction,Copper,L1,Top*%
%TF.FilePolarity,Positive*%
%FSLAX46Y46*%
G04 Gerber Fmt 4.6, Leading zero omitted, Abs format (unit mm)*
G04 Created by KiCad (PCBNEW 9.0.3) date 2025-11-12 23:28:46*
%MOMM*%
%LPD*%
G01*
G04 APERTURE LIST*
%TA.AperFunction,ComponentPad*%
%ADD10O,1.600000X1.300000*%
%TD*%
%TA.AperFunction,ComponentPad*%
%ADD11C,3.100000*%
%TD*%
%TA.AperFunction,ComponentPad*%
%ADD12C,1.250000*%
%TD*%
%TA.AperFunction,ViaPad*%
%ADD13C,0.600000*%
%TD*%
%TA.AperFunction,Conductor*%
%ADD14C,0.400000*%
%TD*%
%TA.AperFunction,Conductor*%
%ADD15C,0.200000*%
%TD*%
G04 APERTURE END LIST*
D10*
%TO.P,SW4,A,A*%
%TO.N,RE01a*%
X45125000Y-112275000D03*
%TO.P,SW4,B,B*%
%TO.N,RE01b*%
X50125000Y-112275000D03*
%TO.P,SW4,C,C*%
%TO.N,GND*%
X47625000Y-112275000D03*
D11*
%TO.P,SW4,MP*%
%TO.N,N/C*%
X53175000Y-104775000D03*
X42075000Y-104775000D03*
D10*
%TO.P,SW4,S1,S1*%
%TO.N,Net-(D4-A)*%
X45125000Y-97775000D03*
%TO.P,SW4,S2,S2*%
%TO.N,Col0*%
X50125000Y-97775000D03*
%TD*%
%TO.P,SW49,A,A*%
%TO.N,RE03a*%
X302300000Y-112275000D03*
%TO.P,SW49,B,B*%
%TO.N,RE03b*%
X307300000Y-112275000D03*
%TO.P,SW49,C,C*%
%TO.N,GND*%
X304800000Y-112275000D03*
D11*
%TO.P,SW49,MP*%
%TO.N,N/C*%
X310350000Y-104775000D03*
X299250000Y-104775000D03*
D10*
%TO.P,SW49,S1,S1*%
%TO.N,Net-(D49-K)*%
X302300000Y-97775000D03*
%TO.P,SW49,S2,S2*%
%TO.N,Col6*%
X307300000Y-97775000D03*
%TD*%
D12*
%TO.P,U1,1,0*%
%TO.N,Col0*%
X292412400Y-35970934D03*
%TO.P,U1,2,1*%
%TO.N,Col1*%
X294932400Y-35970934D03*
%TO.P,U1,3,2*%
%TO.N,Col2*%
X297472400Y-35970934D03*
%TO.P,U1,4,3*%
%TO.N,Col3*%
X300002400Y-35970934D03*
%TO.P,U1,5,4*%
%TO.N,unconnected-(U1-4-Pad5)*%
X302552400Y-35970934D03*
%TO.P,U1,6,5*%
%TO.N,unconnected-(U1-5-Pad6)*%
X305092400Y-35970934D03*
%TO.P,U1,7,6*%
%TO.N,Col4*%
X307632400Y-35970934D03*
%TO.P,U1,8,7*%
%TO.N,Col5*%
X310172400Y-35970934D03*
%TO.P,U1,9,8*%
%TO.N,Col6*%
X312712400Y-35970934D03*
%TO.P,U1,10,9*%
%TO.N,Row0*%
X312712400Y-33430934D03*
%TO.P,U1,11,10*%
%TO.N,Row1*%
X312712400Y-30880934D03*
%TO.P,U1,12,11*%
%TO.N,Row2*%
X312712400Y-28350600D03*
%TO.P,U1,13,12*%
%TO.N,Row3*%
X312712400Y-25800600D03*
%TO.P,U1,14,13*%
%TO.N,LED*%
X312712400Y-23270934D03*
%TO.P,U1,15,14*%
%TO.N,RE01a*%
X312696741Y-20730934D03*
%TO.P,U1,16,15*%
%TO.N,RE01b*%
X310172400Y-20730934D03*
%TO.P,U1,17,26*%
%TO.N,RE02a*%
X307632400Y-20730934D03*
%TO.P,U1,18,27*%
%TO.N,RE02b*%
X305092400Y-20730934D03*
%TO.P,U1,19,28*%
%TO.N,RE03a*%
X302552400Y-20730934D03*
%TO.P,U1,20,29*%
%TO.N,RE03b*%
X300002400Y-20730934D03*
%TO.P,U1,21,3V3*%
%TO.N,unconnected-(U1-3V3-Pad21)*%
X297472400Y-20730934D03*
%TO.P,U1,22,GND*%
%TO.N,GND*%
X294932400Y-20730934D03*
%TO.P,U1,23,5V*%
%TO.N,VCC*%
X292412400Y-20730934D03*
%TD*%
D10*
%TO.P,SW43,A,A*%
%TO.N,RE02a*%
X283250000Y-112275000D03*
%TO.P,SW43,B,B*%
%TO.N,RE02b*%
X288250000Y-112275000D03*
%TO.P,SW43,C,C*%
%TO.N,GND*%
X285750000Y-112275000D03*
D11*
%TO.P,SW43,MP*%
%TO.N,N/C*%
X291300000Y-104775000D03*
X280200000Y-104775000D03*
D10*
%TO.P,SW43,S1,S1*%
%TO.N,Net-(D43-K)*%
X283250000Y-97775000D03*
%TO.P,SW43,S2,S2*%
%TO.N,Col4*%
X288250000Y-97775000D03*
%TD*%
D13*
%TO.N,VCC*%
X319071051Y-22001015D03*
%TO.N,LEDVCC*%
X252563814Y-62351337D03*
X52487851Y-63955076D03*
X233406495Y-62355006D03*
X166891251Y-92723876D03*
X229985051Y-62365591D03*
X113443521Y-75552738D03*
X319087711Y-40250026D03*
X77105223Y-95888071D03*
X292646651Y-64984076D03*
X102046582Y-95883262D03*
X195406371Y-77279978D03*
X297327152Y-40228447D03*
X61194639Y-75617557D03*
X242632331Y-100443894D03*
X81101772Y-58726892D03*
X78085759Y-75593378D03*
X173453569Y-77282847D03*
X308214251Y-59030593D03*
X172157434Y-94536051D03*
X61190951Y-63955076D03*
X273506551Y-40181418D03*
X269852927Y-59030593D03*
X115434454Y-62379743D03*
X138291062Y-75593378D03*
X262944567Y-97221554D03*
X286880446Y-59025000D03*
X93416070Y-75616032D03*
X96493851Y-62357740D03*
X138277939Y-62339676D03*
%TO.N,Row0*%
X60394451Y-44450876D03*
X99104798Y-44500301D03*
X79855640Y-44584681D03*
X213806467Y-45024524D03*
X42479651Y-44450876D03*
X137621171Y-44136756D03*
X270756300Y-45024524D03*
X248738007Y-42794240D03*
X194756300Y-45025000D03*
X291759756Y-43148085D03*
X117725155Y-44316983D03*
X175138345Y-45835834D03*
X232543004Y-45024524D03*
X156372149Y-44840834D03*
%TO.N,Row1*%
X300400351Y-56505467D03*
X99362051Y-63854875D03*
X41556154Y-58963067D03*
X158283826Y-56206099D03*
X120110098Y-56227256D03*
X256706111Y-63865334D03*
X85756300Y-63856345D03*
X293915145Y-56533104D03*
X199284539Y-63925328D03*
X177292951Y-59298613D03*
X275578601Y-63861983D03*
X177306038Y-56222695D03*
X120123672Y-59393176D03*
X62810049Y-61893645D03*
X64884306Y-64859247D03*
X308925949Y-30883018D03*
X218409051Y-63921187D03*
X139191877Y-56225819D03*
X237564315Y-63914399D03*
X293899203Y-60558029D03*
%TO.N,Row2*%
X246061908Y-82980599D03*
X131754573Y-83017952D03*
X91684521Y-81006874D03*
X265174151Y-82173825D03*
X290309827Y-75660476D03*
X46477779Y-80068176D03*
X170506300Y-83025000D03*
X229370078Y-82980599D03*
X186915907Y-80541847D03*
X312500831Y-66709617D03*
X110626391Y-78421462D03*
X208756300Y-83046274D03*
X146082700Y-83025000D03*
X72751233Y-78421462D03*
%TO.N,Row3*%
X247756300Y-114775000D03*
X62258651Y-99660476D03*
X39180451Y-99660476D03*
X314563319Y-99653295D03*
X82756300Y-114025000D03*
X274984838Y-99674751D03*
X296272651Y-99660476D03*
X153523141Y-109336429D03*
X224256300Y-108525000D03*
%TO.N,LED*%
X303877384Y-27791810D03*
%TO.N,Net-(L1-DOUT)*%
X284033690Y-41797620D03*
X294562451Y-43198952D03*
%TO.N,GND*%
X183118940Y-77982847D03*
X286180446Y-55140756D03*
X240279200Y-57414096D03*
X107457870Y-77306206D03*
X223977966Y-81406132D03*
X201956001Y-81410007D03*
X183006300Y-57407233D03*
X89704093Y-96588071D03*
X262059309Y-81391760D03*
X164159859Y-77983043D03*
X202070264Y-57412946D03*
X303604944Y-78314405D03*
X169717769Y-43317128D03*
X228744271Y-57412946D03*
X152506235Y-57406035D03*
X188006300Y-43275000D03*
X220530577Y-81415833D03*
X163990122Y-57406035D03*
X119205857Y-61679743D03*
X68256300Y-96588071D03*
X68256300Y-102025000D03*
X272386251Y-96322476D03*
X144911411Y-57406962D03*
X277701072Y-78320076D03*
X215660306Y-57412946D03*
X299711342Y-55138280D03*
X190659717Y-57412946D03*
X123878652Y-58869450D03*
X254456551Y-96322476D03*
X124278962Y-77307954D03*
%TO.N,Net-(L7-DOUT)*%
X173141941Y-41823043D03*
X168664594Y-41823043D03*
%TO.N,Net-(L15-DOUT)*%
X64680183Y-62350512D03*
X55916351Y-60873217D03*
%TO.N,Net-(L16-DOUT)*%
X78582624Y-60858808D03*
X83158529Y-60844728D03*
%TO.N,Net-(L18-DOUT)*%
X115448961Y-60902536D03*
X122349892Y-60920784D03*
%TO.N,Net-(L19-DOUT)*%
X141096494Y-60829478D03*
X135459383Y-60844551D03*
%TO.N,Net-(L20-DOUT)*%
X153976131Y-60849214D03*
X160112895Y-62284946D03*
%TO.N,Net-(L21-DOUT)*%
X179485873Y-55612300D03*
X170095813Y-55612300D03*
%TO.N,Net-(L26-DOUT)*%
X268870443Y-60903401D03*
X273189655Y-60888132D03*
%TO.N,Net-(L27-DOUT)*%
X283473083Y-57938183D03*
X294730214Y-57969112D03*
%TO.N,Net-(L28-DOUT)*%
X310362178Y-64088760D03*
X297441051Y-64099476D03*
%TO.N,Net-(L29-DOUT)*%
X279075509Y-81424463D03*
X291330473Y-81399730D03*
%TO.N,Net-(L30-DOUT)*%
X260198665Y-79902381D03*
X265955680Y-82773825D03*
%TO.N,Net-(L34-DOUT)*%
X190302727Y-75736283D03*
X178706491Y-75733095D03*
%TO.N,Net-(L35-DOUT)*%
X170710151Y-81300876D03*
X163459859Y-79976711D03*
%TO.N,Net-(L37-DOUT)*%
X133397551Y-76515387D03*
X117133961Y-76530553D03*
%TO.N,Net-(L38-DOUT)*%
X112491638Y-79861259D03*
X106655095Y-79911358D03*
%TO.N,Net-(L40-DOUT)*%
X57265149Y-77531976D03*
X75313951Y-77531976D03*
%TO.N,Net-(L42-DOUT)*%
X73939065Y-95160380D03*
X83006300Y-95187475D03*
%TO.N,Net-(L43-DOUT)*%
X99222234Y-98937412D03*
X155954536Y-100449198D03*
%TO.N,Net-(L44-DOUT)*%
X227637286Y-100449081D03*
X171056300Y-98939676D03*
%TO.N,Col0*%
X194397810Y-59958005D03*
X60394451Y-63213876D03*
X188728051Y-43989676D03*
X194431428Y-64071356D03*
%TO.N,RE01a*%
X37137318Y-31528228D03*
%TO.N,RE01b*%
X316624719Y-115528932D03*
%TO.N,Col1*%
X212570550Y-76579978D03*
X70281139Y-94560380D03*
X74552261Y-58306077D03*
X291761404Y-74964187D03*
X87771446Y-94587475D03*
X78340428Y-63908627D03*
X212596915Y-59306562D03*
X212578251Y-62965476D03*
X78327351Y-74641469D03*
X223030990Y-80523203D03*
%TO.N,Col2*%
X98751487Y-65819083D03*
X242643367Y-102001751D03*
X226950589Y-58270183D03*
X226780751Y-43825076D03*
X240252351Y-95221953D03*
X230656251Y-75550876D03*
X240252351Y-82015476D03*
X92616782Y-55152532D03*
X230584724Y-58276570D03*
%TO.N,Col3*%
X113869363Y-83042551D03*
X249567423Y-63271984D03*
X251035951Y-76503850D03*
X246558925Y-55025000D03*
X125958804Y-82958691D03*
X116440674Y-57586441D03*
X111675103Y-55022163D03*
X290709981Y-56506035D03*
X259302351Y-82338076D03*
%TO.N,Col4*%
X310298851Y-54506439D03*
X269400451Y-73743855D03*
X135477351Y-73767476D03*
X264067876Y-55904807D03*
X270466618Y-55915974D03*
%TO.N,Col5*%
X287324168Y-74343855D03*
X155786011Y-58869450D03*
X283114851Y-54146658D03*
X151515251Y-58869450D03*
X153869712Y-74367476D03*
X165003235Y-75822778D03*
X287615533Y-39220347D03*
X287613251Y-54147297D03*
%TO.N,Col6*%
X313621692Y-46758185D03*
X306923751Y-46758185D03*
X183230601Y-93721885D03*
%TO.N,RE02a*%
X321356006Y-114600713D03*
%TO.N,RE03b*%
X315530159Y-112274753D03*
%TD*%
D14*
%TO.N,VCC*%
X319042169Y-21972133D02*
X292975175Y-21972133D01*
X292412400Y-20730934D02*
X292412400Y-21409358D01*
X319071051Y-22001015D02*
X319042169Y-21972133D01*
X292412400Y-21409358D02*
G75*
G03*
X292975175Y-21972200I562800J-42D01*
G01*
%TO.N,LEDVCC*%
X319053200Y-40235731D02*
X297344737Y-40235731D01*
X242632331Y-100443894D02*
X245964586Y-100443894D01*
X61190951Y-63955076D02*
X52487851Y-63955076D01*
X297299277Y-40200572D02*
X273506551Y-40200572D01*
X296408216Y-64425399D02*
X296408216Y-59815887D01*
X296408216Y-59815887D02*
X296408216Y-59815111D01*
X195406371Y-77279978D02*
X173456438Y-77279978D01*
X166891251Y-93960303D02*
X166891251Y-92723876D01*
X295623703Y-59030588D02*
X295623698Y-59030593D01*
X242632331Y-100443894D02*
X242632331Y-95083306D01*
X131188252Y-59030379D02*
X126113860Y-59030379D01*
X292646651Y-64984076D02*
X295849539Y-64984076D01*
X252552571Y-59592199D02*
X252552571Y-62340094D01*
X229985051Y-62355006D02*
X229985051Y-62365591D01*
X125552319Y-59591920D02*
X125552319Y-61817093D01*
X242632331Y-100443894D02*
X242629715Y-100446510D01*
X131756300Y-61777843D02*
X131756300Y-59598427D01*
X124989669Y-62379743D02*
X115434454Y-62379743D01*
X269852927Y-59030593D02*
X295623698Y-59030593D01*
X242070978Y-94521953D02*
X167452901Y-94521953D01*
X77105223Y-95888071D02*
X102046582Y-95888071D01*
X96493851Y-59288822D02*
X96493851Y-62357740D01*
X113443521Y-75552738D02*
X113402881Y-75593378D01*
X273506551Y-40200572D02*
X273506551Y-40181418D01*
X246524260Y-99884220D02*
X246524260Y-97782134D01*
X269852927Y-59030593D02*
X253114177Y-59030593D01*
X308214251Y-59030593D02*
X297193532Y-59030593D01*
X262944567Y-97217926D02*
X262944567Y-97221554D01*
X113484161Y-75593378D02*
X113443521Y-75552738D01*
X297193532Y-59030593D02*
X297193527Y-59030588D01*
X102046582Y-95888071D02*
X102046582Y-95883262D01*
X113402881Y-75593378D02*
X93438724Y-75593378D01*
X247088468Y-97217926D02*
X262944567Y-97217926D01*
X233406495Y-62355006D02*
X229985051Y-62355006D01*
X81101772Y-58726892D02*
X95931921Y-58726892D01*
X173456438Y-77279978D02*
X173453569Y-77282847D01*
X93393416Y-75593378D02*
X61218818Y-75593378D01*
X138277939Y-62339676D02*
X132318133Y-62339676D01*
X297193527Y-59030588D02*
X295623703Y-59030588D01*
X138291062Y-75593378D02*
X113484161Y-75593378D01*
X95931921Y-58726892D02*
G75*
G02*
X96493808Y-59288822I-21J-561908D01*
G01*
X131756300Y-59598427D02*
G75*
G03*
X131188252Y-59030400I-568000J27D01*
G01*
X297193527Y-59030588D02*
G75*
G03*
X296408188Y-59815887I-27J-785312D01*
G01*
X295849539Y-64984076D02*
G75*
G03*
X296408176Y-64425399I-39J558676D01*
G01*
X253114177Y-59030593D02*
G75*
G03*
X252552593Y-59592199I23J-561607D01*
G01*
X126113860Y-59030379D02*
G75*
G03*
X125552379Y-59591920I40J-561521D01*
G01*
X125552319Y-61817093D02*
G75*
G02*
X124989669Y-62379719I-562619J-7D01*
G01*
X167452901Y-94521953D02*
G75*
G02*
X166891247Y-93960303I-1J561653D01*
G01*
X296408216Y-59815111D02*
G75*
G03*
X295623698Y-59030584I-784516J11D01*
G01*
X252552571Y-62340094D02*
G75*
G03*
X252563814Y-62351329I11229J-6D01*
G01*
X61218818Y-75593378D02*
G75*
G03*
X61194578Y-75617557I-18J-24222D01*
G01*
X246524260Y-97782134D02*
G75*
G02*
X247088468Y-97217860I564240J34D01*
G01*
X242632331Y-95083306D02*
G75*
G03*
X242070978Y-94521969I-561331J6D01*
G01*
X132318133Y-62339676D02*
G75*
G02*
X131756224Y-61777843I-33J561876D01*
G01*
X245964586Y-100443894D02*
G75*
G03*
X246524294Y-99884220I14J559694D01*
G01*
D15*
%TO.N,Row0*%
X138015702Y-39688940D02*
X138015696Y-39688946D01*
X194757449Y-45024524D02*
X194756300Y-45025000D01*
X156372149Y-44840834D02*
X156372149Y-40112272D01*
X312712400Y-33430934D02*
X320662234Y-33430934D01*
X42479651Y-44450876D02*
X42479651Y-40111237D01*
X291369429Y-45024524D02*
X270756300Y-45024524D01*
X292144933Y-45024539D02*
X291369444Y-45024539D01*
X117725155Y-40077864D02*
X117725155Y-40076432D01*
X99104798Y-40074217D02*
X99104798Y-40070264D01*
X79855640Y-40078191D02*
X79855640Y-40077536D01*
X117337663Y-39688940D02*
X99490132Y-39688940D01*
X194756300Y-45025000D02*
X177320093Y-45025000D01*
X80244864Y-39688952D02*
X80244876Y-39688940D01*
X137621171Y-40083486D02*
X137621171Y-40072626D01*
X79467044Y-39688940D02*
X60783664Y-39688940D01*
X291369444Y-45024539D02*
X291369429Y-45024524D01*
X321084307Y-45024524D02*
X292144948Y-45024524D01*
X249116432Y-45024524D02*
X270756300Y-45024524D01*
X321506300Y-34275000D02*
X321506300Y-44602531D01*
X137237491Y-39688946D02*
X137237485Y-39688940D01*
X118114079Y-39688940D02*
X117337663Y-39688940D01*
X292144948Y-45024524D02*
X292144933Y-45024539D01*
X60783664Y-39688940D02*
X60006694Y-39688940D01*
X60394451Y-44450876D02*
X60394451Y-40078153D01*
X248730451Y-42801796D02*
X248738007Y-42794240D01*
X99104798Y-44500301D02*
X99104798Y-40074217D01*
X249116432Y-45024524D02*
X249116408Y-45024548D01*
X194756776Y-45024524D02*
X194756300Y-45025000D01*
X291756300Y-43151541D02*
X291756300Y-44635918D01*
X99490132Y-39688940D02*
X99490122Y-39688930D01*
X80244876Y-39688940D02*
X98723474Y-39688940D01*
X137621171Y-44136756D02*
X137621171Y-40083486D01*
X291756300Y-44635918D02*
X291756300Y-44637653D01*
X79467056Y-39688952D02*
X79467044Y-39688940D01*
X80244864Y-39688952D02*
X79467056Y-39688952D01*
X248738007Y-44646166D02*
X248738007Y-44646781D01*
X155948817Y-39688940D02*
X138015702Y-39688940D01*
X42901948Y-39688940D02*
X60006694Y-39688940D01*
X175138345Y-45835834D02*
X175873062Y-45835834D01*
X99490122Y-39688930D02*
X98723484Y-39688930D01*
X117725155Y-44316983D02*
X117725155Y-40077864D01*
X60394451Y-40078153D02*
X60394451Y-40076697D01*
X138015696Y-39688946D02*
X137237491Y-39688946D01*
X249116432Y-45024524D02*
X248360264Y-45024524D01*
X79855640Y-44584681D02*
X79855640Y-40078191D01*
X248360264Y-45024524D02*
X194757449Y-45024524D01*
X137237485Y-39688940D02*
X118114079Y-39688940D01*
X98723484Y-39688930D02*
X98723474Y-39688940D01*
X176415939Y-45610969D02*
X176776932Y-45249982D01*
X248738007Y-42794240D02*
X248738007Y-44646166D01*
X177320093Y-45025000D02*
G75*
G03*
X176776926Y-45249976I7J-768200D01*
G01*
X175873062Y-45835834D02*
G75*
G03*
X176415955Y-45610985I38J767734D01*
G01*
X249116408Y-45024548D02*
G75*
G02*
X248738052Y-44646166I-8J378348D01*
G01*
X321506300Y-44602531D02*
G75*
G02*
X321084307Y-45024500I-422000J31D01*
G01*
X80244864Y-39688952D02*
G75*
G03*
X79855652Y-40078191I36J-389248D01*
G01*
X60394451Y-40076697D02*
G75*
G03*
X60006694Y-39688949I-387751J-3D01*
G01*
X156372149Y-40112272D02*
G75*
G03*
X155948817Y-39688951I-423349J-28D01*
G01*
X117725155Y-40076432D02*
G75*
G03*
X117337663Y-39688945I-387455J32D01*
G01*
X138015696Y-39688946D02*
G75*
G03*
X137621146Y-40083486I4J-394554D01*
G01*
X291756300Y-44637653D02*
G75*
G02*
X291369429Y-45024600I-386900J-47D01*
G01*
X60783664Y-39688940D02*
G75*
G03*
X60394440Y-40078153I36J-389260D01*
G01*
X79855640Y-40077536D02*
G75*
G03*
X79467044Y-39688860I-388640J36D01*
G01*
X320662234Y-33430934D02*
G75*
G02*
X321506266Y-34275000I-34J-844066D01*
G01*
X291759756Y-43148085D02*
G75*
G03*
X291756385Y-43151540I44J-3415D01*
G01*
X118114079Y-39688940D02*
G75*
G03*
X117725140Y-40077864I21J-388960D01*
G01*
X292144933Y-45024539D02*
G75*
G02*
X291756261Y-44635918I-33J388639D01*
G01*
X99104798Y-40070264D02*
G75*
G03*
X98723474Y-39689002I-381298J-36D01*
G01*
X248738007Y-44646781D02*
G75*
G02*
X248360264Y-45024507I-377707J-19D01*
G01*
X42479651Y-40111237D02*
G75*
G02*
X42901948Y-39688951I422249J37D01*
G01*
X137621171Y-40072626D02*
G75*
G03*
X137237485Y-39688929I-383671J26D01*
G01*
X99490122Y-39688930D02*
G75*
G03*
X99104830Y-40074217I-22J-385270D01*
G01*
%TO.N,Row1*%
X64884008Y-73472639D02*
X64884008Y-64859545D01*
X275578601Y-63861983D02*
X275575250Y-63865334D01*
X139191877Y-56225819D02*
X120111535Y-56225819D01*
X312712400Y-30880934D02*
X308928033Y-30880934D01*
X120111535Y-56225819D02*
X120110098Y-56227256D01*
X53119031Y-61475246D02*
X53119031Y-59377447D01*
X237564315Y-63921187D02*
X237564315Y-63914399D01*
X80232365Y-64280342D02*
X80232365Y-73470869D01*
X158264106Y-56225819D02*
X158283826Y-56206099D01*
X177306038Y-56222695D02*
X158283826Y-56222695D01*
X237564315Y-63914399D02*
X237564315Y-63874739D01*
X120123672Y-59393176D02*
X99785853Y-59393176D01*
X177296688Y-59294876D02*
X198863592Y-59294876D01*
X64884008Y-64859545D02*
X64884306Y-64859247D01*
X139191877Y-56225819D02*
X158264106Y-56225819D01*
X158283826Y-56222695D02*
X158283826Y-56206099D01*
X99362051Y-59816978D02*
X99362051Y-63854875D01*
X275578601Y-63861983D02*
X293473276Y-63861983D01*
X85756300Y-63856345D02*
X80656362Y-63856345D01*
X293899203Y-63436056D02*
X293899203Y-60558029D01*
X199284539Y-59715823D02*
X199284539Y-63925328D01*
X237564315Y-63874739D02*
X256706111Y-63874739D01*
X256706111Y-63874739D02*
X256706111Y-63865334D01*
X293915145Y-56533104D02*
X300372714Y-56533104D01*
X275575250Y-63865334D02*
X256706111Y-63865334D01*
X199284539Y-63925328D02*
X218409051Y-63925328D01*
X79807271Y-73895963D02*
X65307332Y-73895963D01*
X52695929Y-58954345D02*
X41564876Y-58954345D01*
X312602251Y-30660476D02*
X312602251Y-30841676D01*
X218409051Y-63921187D02*
X237564315Y-63921187D01*
X62810049Y-61893645D02*
X53537430Y-61893645D01*
X53537430Y-61893645D02*
G75*
G02*
X53118955Y-61475246I-30J418445D01*
G01*
X293473276Y-63861983D02*
G75*
G03*
X293899183Y-63436056I24J425883D01*
G01*
X177292951Y-59298613D02*
G75*
G02*
X177296688Y-59294851I3749J13D01*
G01*
X308928033Y-30880934D02*
G75*
G03*
X308925934Y-30883018I-33J-2066D01*
G01*
X41564876Y-58954345D02*
G75*
G03*
X41556145Y-58963067I24J-8755D01*
G01*
X198863592Y-59294876D02*
G75*
G02*
X199284524Y-59715823I8J-420924D01*
G01*
X65307332Y-73895963D02*
G75*
G02*
X64883937Y-73472639I-32J423363D01*
G01*
X99785853Y-59393176D02*
G75*
G03*
X99362076Y-59816978I47J-423824D01*
G01*
X53119031Y-59377447D02*
G75*
G03*
X52695929Y-58954269I-423131J47D01*
G01*
X80232365Y-73470869D02*
G75*
G02*
X79807271Y-73895965I-425065J-31D01*
G01*
X80656362Y-63856345D02*
G75*
G03*
X80232445Y-64280342I38J-423955D01*
G01*
%TO.N,Row2*%
X265174151Y-82173825D02*
X261628682Y-82173825D01*
X110626391Y-78421462D02*
X131318259Y-78421462D01*
X312076769Y-75660476D02*
X290309827Y-75660476D01*
X312500831Y-66709617D02*
X312500815Y-75236431D01*
X208756300Y-83046274D02*
X187339456Y-83046274D01*
X91684521Y-81006874D02*
X91684521Y-78804847D01*
X91684521Y-78804847D02*
X91684521Y-78802302D01*
X92067898Y-78421466D02*
X91303685Y-78421466D01*
X260809467Y-75660476D02*
X246486941Y-75660476D01*
X131754573Y-83025000D02*
X131754573Y-83017952D01*
X146082700Y-83025000D02*
X170506300Y-83025000D01*
X260809476Y-75660485D02*
X260809467Y-75660476D01*
X146082700Y-83025000D02*
X131754573Y-83025000D01*
X229370078Y-82980599D02*
X246061908Y-82980599D01*
X91303685Y-78421466D02*
X91303681Y-78421462D01*
X261599010Y-75660476D02*
X261599001Y-75660485D01*
X261599001Y-75660485D02*
X260809476Y-75660485D01*
X46477779Y-78844862D02*
X46477779Y-80068176D01*
X131742721Y-78845924D02*
X131742721Y-83006100D01*
X131742721Y-83006100D02*
X131754573Y-83017952D01*
X261203851Y-81748994D02*
X261203851Y-76055648D01*
X92067902Y-78421462D02*
X92067898Y-78421466D01*
X246061908Y-82980599D02*
X246061908Y-76085509D01*
X261203851Y-76055648D02*
X261203851Y-76054860D01*
X110626391Y-78421462D02*
X92067902Y-78421462D01*
X186915907Y-82622725D02*
X186915907Y-80541847D01*
X72751233Y-78421462D02*
X91303681Y-78421462D01*
X290309827Y-75660476D02*
X261599010Y-75660476D01*
X46901179Y-78421462D02*
X72751233Y-78421462D01*
X91684521Y-78802302D02*
G75*
G03*
X91303681Y-78421479I-380821J2D01*
G01*
X46901179Y-78421462D02*
G75*
G03*
X46477762Y-78844862I21J-423438D01*
G01*
X187339456Y-83046274D02*
G75*
G02*
X186915926Y-82622725I44J423574D01*
G01*
X312500815Y-75236431D02*
G75*
G02*
X312076769Y-75660415I-424015J31D01*
G01*
X246486941Y-75660476D02*
G75*
G03*
X246061876Y-76085509I-41J-425024D01*
G01*
X92067898Y-78421466D02*
G75*
G03*
X91684566Y-78804847I2J-383334D01*
G01*
X261203851Y-76055648D02*
G75*
G02*
X261599001Y-75660451I395149J48D01*
G01*
X261203851Y-76054860D02*
G75*
G03*
X260809467Y-75660549I-394351J-40D01*
G01*
X131318259Y-78421462D02*
G75*
G02*
X131742738Y-78845924I41J-424438D01*
G01*
X261628682Y-82173825D02*
G75*
G02*
X261203875Y-81748994I18J424825D01*
G01*
%TO.N,Row3*%
X66199596Y-106356693D02*
X62683538Y-106356693D01*
X173081527Y-114025000D02*
X153929004Y-114025000D01*
X224256300Y-108525000D02*
X173930543Y-108525000D01*
X274984838Y-114350888D02*
X274984838Y-99674751D01*
X104333779Y-114025000D02*
X82756300Y-114025000D01*
X82756300Y-114025000D02*
X67043767Y-114025000D01*
X173506300Y-108949243D02*
X173506300Y-113600227D01*
X314563319Y-99653295D02*
X314556138Y-99660476D01*
X153523141Y-109336429D02*
X105179427Y-109336429D01*
X153506300Y-109353270D02*
X153523141Y-109336429D01*
X66620400Y-113601633D02*
X66620400Y-106777497D01*
X104756300Y-109759556D02*
X104756300Y-113602479D01*
X247756300Y-114775000D02*
X224680166Y-114775000D01*
X224256300Y-114351134D02*
X224256300Y-108525000D01*
X153506300Y-113602296D02*
X153506300Y-109353270D01*
X62258651Y-99660476D02*
X39180451Y-99660476D01*
X247756300Y-114775000D02*
X274560726Y-114775000D01*
X279256300Y-99660476D02*
X274984838Y-99660476D01*
X296272651Y-99660476D02*
X279256300Y-99660476D01*
X274984838Y-99660476D02*
X274984838Y-99674751D01*
X62258651Y-105931806D02*
X62258651Y-99660476D01*
X279256300Y-99660476D02*
X278296551Y-99660476D01*
X314556138Y-99660476D02*
X296272651Y-99660476D01*
X62683538Y-106356693D02*
G75*
G02*
X62258607Y-105931806I-38J424893D01*
G01*
X104756300Y-113602479D02*
G75*
G02*
X104333779Y-114025000I-422500J-21D01*
G01*
X105179427Y-109336429D02*
G75*
G03*
X104756229Y-109759556I-27J-423171D01*
G01*
X274560726Y-114775000D02*
G75*
G03*
X274984800Y-114350888I-26J424100D01*
G01*
X173930543Y-108525000D02*
G75*
G03*
X173506300Y-108949243I-43J-424200D01*
G01*
X153929004Y-114025000D02*
G75*
G02*
X153506300Y-113602296I-4J422700D01*
G01*
X173506300Y-113600227D02*
G75*
G02*
X173081527Y-114025000I-424800J27D01*
G01*
X66620400Y-106777497D02*
G75*
G03*
X66199596Y-106356700I-420800J-3D01*
G01*
X67043767Y-114025000D02*
G75*
G02*
X66620400Y-113601633I33J423400D01*
G01*
X224680166Y-114775000D02*
G75*
G02*
X224256300Y-114351134I34J423900D01*
G01*
%TO.N,LED*%
X303877384Y-23657043D02*
X303877384Y-27791810D01*
X312602251Y-23231676D02*
X304302751Y-23231676D01*
X304302751Y-23231676D02*
G75*
G03*
X303877476Y-23657043I49J-425324D01*
G01*
%TO.N,Net-(L1-DOUT)*%
X284033690Y-41797620D02*
X294139362Y-41797620D01*
X294562451Y-43198952D02*
X294562417Y-42220662D01*
X294139362Y-41797620D02*
G75*
G02*
X294562480Y-42220662I38J-423080D01*
G01*
D14*
%TO.N,GND*%
X152506235Y-57406035D02*
X163990122Y-57406035D01*
X239532943Y-57412946D02*
X202070264Y-57412946D01*
X219968644Y-77982847D02*
X202742537Y-77982847D01*
X164159859Y-77983043D02*
X135625325Y-77983043D01*
X202742537Y-77982847D02*
X202742524Y-77982834D01*
X175699844Y-43317128D02*
X169717769Y-43317128D01*
X223977966Y-81406132D02*
X220540278Y-81406132D01*
X68256300Y-96588071D02*
X89704093Y-96588071D01*
X314374232Y-53252459D02*
X314374232Y-77751613D01*
X201956001Y-78769340D02*
X201956001Y-78767588D01*
X124278962Y-77307954D02*
X107459618Y-77307954D01*
X202742524Y-77982834D02*
X201171273Y-77982834D01*
X107459618Y-77307954D02*
X107457870Y-77306206D01*
X187446704Y-40012978D02*
X176824872Y-40012978D01*
X286311288Y-113806592D02*
X304238743Y-113806592D01*
X310128351Y-52687966D02*
X313809739Y-52687966D01*
X277701072Y-78320076D02*
X262622192Y-78320076D01*
X309564208Y-54574224D02*
X309564208Y-53252109D01*
X304800000Y-112275000D02*
X304800000Y-113245335D01*
X201171273Y-77982834D02*
X201171260Y-77982847D01*
X286183071Y-55138131D02*
X286194934Y-55138131D01*
X144911411Y-57406962D02*
X144912338Y-57406035D01*
X313811440Y-78314405D02*
X303604944Y-78314405D01*
X201956001Y-81410007D02*
X201956001Y-78769340D01*
X201171260Y-77982847D02*
X164160055Y-77982847D01*
X286205261Y-55138280D02*
X299711342Y-55138280D01*
X202064551Y-57407233D02*
X183006300Y-57407233D01*
X188006300Y-43275000D02*
X188006300Y-40572574D01*
X240279200Y-57414096D02*
X239534093Y-57414096D01*
X183006300Y-57407233D02*
X183005102Y-57406035D01*
X144912338Y-57406035D02*
X152506235Y-57406035D01*
X134129975Y-77307954D02*
X124278962Y-77307954D01*
X183005102Y-57406035D02*
X163990122Y-57406035D01*
X202070264Y-57412946D02*
X202064551Y-57407233D01*
X123878652Y-58869450D02*
X123878652Y-61175620D01*
X285750000Y-112275000D02*
X285750000Y-113245301D01*
X164160055Y-77982847D02*
X164159859Y-77983043D01*
X303599273Y-78320076D02*
X277701072Y-78320076D01*
X286311283Y-113806587D02*
X286311288Y-113806592D01*
X123374529Y-61679743D02*
X119205857Y-61679743D01*
X220530577Y-81415833D02*
X220530577Y-78544780D01*
X134923736Y-77692436D02*
X134828658Y-77597358D01*
X262059309Y-78882959D02*
X262059309Y-81391760D01*
X303604944Y-78314405D02*
X303599273Y-78320076D01*
X239534093Y-57414096D02*
X239532943Y-57412946D01*
X176262019Y-40575831D02*
X176262019Y-42754953D01*
X254456551Y-96322476D02*
X272386251Y-96322476D01*
X299711342Y-55138280D02*
X309000152Y-55138280D01*
X286180446Y-55140756D02*
X286183071Y-55138131D01*
X68256300Y-96588071D02*
X68256300Y-102025000D01*
X313809739Y-52687966D02*
G75*
G02*
X314374234Y-53252459I-39J-564534D01*
G01*
X134828658Y-77597358D02*
G75*
G03*
X134129975Y-77307960I-698658J-698642D01*
G01*
X314374232Y-77751613D02*
G75*
G02*
X313811440Y-78314432I-562832J13D01*
G01*
X123878652Y-61175620D02*
G75*
G02*
X123374529Y-61679752I-504152J20D01*
G01*
X201956001Y-78767588D02*
G75*
G03*
X201171260Y-77982899I-784701J-12D01*
G01*
X309564208Y-53252109D02*
G75*
G02*
X310128351Y-52687908I564192J9D01*
G01*
X176262019Y-42754953D02*
G75*
G02*
X175699844Y-43317219I-562219J-47D01*
G01*
X176824872Y-40012978D02*
G75*
G03*
X176262078Y-40575831I28J-562822D01*
G01*
X188006300Y-40572574D02*
G75*
G03*
X187446704Y-40013000I-559600J-26D01*
G01*
X220530577Y-78544780D02*
G75*
G03*
X219968644Y-77982823I-561977J-20D01*
G01*
X220540278Y-81406132D02*
G75*
G03*
X220530632Y-81415833I22J-9668D01*
G01*
X135625325Y-77983043D02*
G75*
G02*
X134923714Y-77692458I-25J992243D01*
G01*
X262622192Y-78320076D02*
G75*
G03*
X262059276Y-78882959I8J-562924D01*
G01*
X285750000Y-113245301D02*
G75*
G03*
X286311283Y-113806600I561300J1D01*
G01*
X286194934Y-55138131D02*
G75*
G03*
X286205261Y-55138273I6066J65431D01*
G01*
X202742524Y-77982834D02*
G75*
G03*
X201956034Y-78769340I-24J-786466D01*
G01*
X304238743Y-113806592D02*
G75*
G03*
X304799992Y-113245335I-43J561292D01*
G01*
X309000152Y-55138280D02*
G75*
G03*
X309564280Y-54574224I48J564080D01*
G01*
D15*
%TO.N,Net-(L7-DOUT)*%
X173141941Y-41823043D02*
X168664594Y-41823043D01*
%TO.N,Net-(L15-DOUT)*%
X64680183Y-62350512D02*
X64680192Y-61297218D01*
X55916351Y-60873217D02*
X64256193Y-60873217D01*
X64256193Y-60873217D02*
G75*
G02*
X64680183Y-61297218I7J-423983D01*
G01*
%TO.N,Net-(L16-DOUT)*%
X83144449Y-60858808D02*
X78582624Y-60858808D01*
X83158529Y-60844728D02*
G75*
G02*
X83144449Y-60858829I-14129J28D01*
G01*
%TO.N,Net-(L18-DOUT)*%
X122331644Y-60902536D02*
X115448961Y-60902536D01*
X122349892Y-60920784D02*
G75*
G03*
X122331644Y-60902508I-18292J-16D01*
G01*
%TO.N,Net-(L19-DOUT)*%
X141096494Y-60829478D02*
X135459383Y-60829478D01*
X135459383Y-60829478D02*
X135459383Y-60844551D01*
%TO.N,Net-(L20-DOUT)*%
X160112895Y-62284946D02*
X154399609Y-62284946D01*
X153976131Y-61861468D02*
X153976131Y-60849214D01*
X154399609Y-62284946D02*
G75*
G02*
X153976154Y-61861468I-9J423446D01*
G01*
%TO.N,Net-(L21-DOUT)*%
X179485873Y-55612300D02*
X170095813Y-55612300D01*
%TO.N,Net-(L26-DOUT)*%
X268870443Y-60903401D02*
X268885712Y-60888132D01*
X268885712Y-60888132D02*
X273189655Y-60888132D01*
%TO.N,Net-(L27-DOUT)*%
X294730214Y-57969112D02*
X294696345Y-57935243D01*
X283473083Y-57938183D02*
X294699285Y-57938183D01*
X294699285Y-57938183D02*
G75*
G02*
X294730217Y-57969112I15J-30917D01*
G01*
%TO.N,Net-(L28-DOUT)*%
X297441051Y-64090433D02*
X297441051Y-64099476D01*
X310360505Y-64090433D02*
X297441051Y-64090433D01*
X310362178Y-64088760D02*
X310360505Y-64090433D01*
%TO.N,Net-(L29-DOUT)*%
X279075509Y-81424463D02*
X291305740Y-81424463D01*
X291305740Y-81424463D02*
G75*
G03*
X291330463Y-81399730I-40J24763D01*
G01*
%TO.N,Net-(L30-DOUT)*%
X260198665Y-82348521D02*
X260198665Y-79902381D01*
X265955680Y-82773825D02*
X260623969Y-82773825D01*
X260623969Y-82773825D02*
G75*
G02*
X260198675Y-82348521I31J425325D01*
G01*
%TO.N,Net-(L34-DOUT)*%
X178706491Y-75733095D02*
X178709679Y-75736283D01*
X178709679Y-75736283D02*
X190302727Y-75736283D01*
%TO.N,Net-(L35-DOUT)*%
X163459859Y-79976711D02*
X163459859Y-80877087D01*
X163883648Y-81300876D02*
X170710151Y-81300876D01*
X163459859Y-80877087D02*
G75*
G03*
X163883648Y-81300841I423741J-13D01*
G01*
%TO.N,Net-(L37-DOUT)*%
X117133961Y-76530553D02*
X117133961Y-76513467D01*
X117133961Y-76513467D02*
X133397551Y-76513467D01*
X133397551Y-76513467D02*
X133397551Y-76515387D01*
%TO.N,Net-(L38-DOUT)*%
X106678691Y-79887762D02*
X106655095Y-79911358D01*
X112491638Y-79861259D02*
X112465135Y-79887762D01*
X112465135Y-79887762D02*
X106678691Y-79887762D01*
%TO.N,Net-(L40-DOUT)*%
X75313951Y-77531976D02*
X57265149Y-77531976D01*
%TO.N,Net-(L42-DOUT)*%
X83006300Y-95187475D02*
X83006300Y-95160380D01*
X83006300Y-95160380D02*
X73939065Y-95160380D01*
%TO.N,Net-(L43-DOUT)*%
X155954536Y-100449198D02*
X99645262Y-100449198D01*
X99222234Y-100026170D02*
X99222234Y-98937412D01*
X99645262Y-100449198D02*
G75*
G02*
X99222302Y-100026170I38J422998D01*
G01*
%TO.N,Net-(L44-DOUT)*%
X227637286Y-100449081D02*
X171480267Y-100449081D01*
X171056300Y-98939676D02*
X171056283Y-100025090D01*
X171480267Y-100449081D02*
G75*
G02*
X171056319Y-100025090I33J423981D01*
G01*
%TO.N,Col0*%
X188728051Y-36355538D02*
X188728051Y-43989676D01*
X102725471Y-64495394D02*
X102725471Y-65995013D01*
X68264230Y-63213876D02*
X60394451Y-63213876D01*
X194431428Y-59991623D02*
X194431428Y-64071356D01*
X68689747Y-57698854D02*
X68689747Y-62788359D01*
X97332569Y-57275000D02*
X69113601Y-57275000D01*
X292302251Y-35931676D02*
X189151913Y-35931676D01*
X97756300Y-65996398D02*
X97756300Y-57698731D01*
X194431428Y-64071356D02*
X103149509Y-64071356D01*
X102301401Y-66419083D02*
X98178985Y-66419083D01*
X103149509Y-64071356D02*
G75*
G03*
X102725456Y-64495394I-9J-424044D01*
G01*
X98178985Y-66419083D02*
G75*
G02*
X97756317Y-65996398I15J422683D01*
G01*
X102725471Y-65995013D02*
G75*
G02*
X102301401Y-66419071I-424071J13D01*
G01*
X97756300Y-57698731D02*
G75*
G03*
X97332569Y-57275000I-423700J31D01*
G01*
X68689747Y-62788359D02*
G75*
G02*
X68264230Y-63213947I-425547J-41D01*
G01*
X194397810Y-59958005D02*
G75*
G02*
X194431395Y-59991623I-10J-33595D01*
G01*
X69113601Y-57275000D02*
G75*
G03*
X68689700Y-57698854I-1J-423900D01*
G01*
X189151913Y-35931676D02*
G75*
G03*
X188728076Y-36355538I-13J-423824D01*
G01*
%TO.N,RE01a*%
X290006300Y-31100941D02*
X290006300Y-19762344D01*
X312696741Y-19778922D02*
X312696741Y-20730934D01*
X37137318Y-31525000D02*
X289582241Y-31525000D01*
X37137318Y-31528228D02*
X37137318Y-31525000D01*
X290430163Y-19338481D02*
X312256300Y-19338481D01*
X290006300Y-19762344D02*
G75*
G02*
X290430163Y-19338400I423900J44D01*
G01*
X289582241Y-31525000D02*
G75*
G03*
X290006300Y-31100941I-41J424100D01*
G01*
X312256300Y-19338481D02*
G75*
G02*
X312696719Y-19778922I0J-440419D01*
G01*
%TO.N,RE01b*%
X50014851Y-112235776D02*
X50014851Y-115105616D01*
X50436711Y-115527476D02*
X316623263Y-115527476D01*
X316623263Y-115527476D02*
X316624719Y-115528932D01*
X50014851Y-115105616D02*
G75*
G03*
X50436711Y-115527449I421849J16D01*
G01*
%TO.N,Col1*%
X229006300Y-75372190D02*
X229006300Y-76157462D01*
X212570550Y-76579978D02*
X222646891Y-76579978D01*
X74552261Y-63486298D02*
X74552261Y-58306077D01*
X212596915Y-59306562D02*
X212596915Y-60031456D01*
X223030990Y-80523203D02*
X223030990Y-76968285D01*
X223419287Y-76579983D02*
X222646896Y-76579983D01*
X142937151Y-76101346D02*
X142937151Y-75066690D01*
X212578251Y-60050120D02*
X212578251Y-62965476D01*
X87771446Y-94560380D02*
X87771446Y-94587475D01*
X223030990Y-76968285D02*
X223030990Y-76964077D01*
X70281139Y-94560380D02*
X87771446Y-94560380D01*
X222646896Y-76579983D02*
X222646891Y-76579978D01*
X291746393Y-74949176D02*
X229429314Y-74949176D01*
X142511930Y-74641469D02*
X78327351Y-74641469D01*
X212596915Y-60031456D02*
X212578251Y-60050120D01*
X212570550Y-76579978D02*
X212570550Y-76525000D01*
X78340428Y-63908627D02*
X74974590Y-63908627D01*
X212570550Y-76525000D02*
X143360805Y-76525000D01*
X228583784Y-76579978D02*
X223419292Y-76579978D01*
X223419292Y-76579978D02*
X223419287Y-76579983D01*
X291761404Y-74964187D02*
X291746393Y-74949176D01*
X223030990Y-76964077D02*
G75*
G03*
X222646891Y-76580010I-384090J-23D01*
G01*
X223419287Y-76579983D02*
G75*
G03*
X223030983Y-76968285I13J-388317D01*
G01*
X142937151Y-75066690D02*
G75*
G03*
X142511930Y-74641449I-425251J-10D01*
G01*
X229006300Y-76157462D02*
G75*
G02*
X228583784Y-76580000I-422500J-38D01*
G01*
X143360805Y-76525000D02*
G75*
G02*
X142937100Y-76101346I-5J423700D01*
G01*
X229429314Y-74949176D02*
G75*
G03*
X229006276Y-75372190I-14J-423024D01*
G01*
X74974590Y-63908627D02*
G75*
G02*
X74552273Y-63486298I10J422327D01*
G01*
%TO.N,Col2*%
X240252351Y-75974607D02*
X240252351Y-82015476D01*
X98762051Y-57886703D02*
X98762068Y-57886720D01*
X226949856Y-58269450D02*
X99144815Y-58269450D01*
X98762051Y-55531964D02*
X98762051Y-57886703D01*
X297472400Y-35970934D02*
X297472400Y-37151183D01*
X98751487Y-65819083D02*
X98762051Y-65808519D01*
X92616782Y-55152532D02*
X98382619Y-55152532D01*
X98762051Y-65808519D02*
X98762051Y-58651553D01*
X230656251Y-75550876D02*
X239828620Y-75550876D01*
X226956976Y-58276570D02*
X230584724Y-58276570D01*
X99144815Y-58269450D02*
X99144154Y-58269450D01*
X226780751Y-43825076D02*
X226780772Y-40571233D01*
X240252351Y-101579137D02*
X240252351Y-95221953D01*
X255006651Y-37999003D02*
X255006651Y-39721454D01*
X254579574Y-40148531D02*
X227203477Y-40148531D01*
X242643367Y-102001751D02*
X240674965Y-102001751D01*
X226950589Y-58270183D02*
X226949856Y-58269450D01*
X297048207Y-37575376D02*
X255430278Y-37575376D01*
X98762051Y-57886703D02*
X98762051Y-58651553D01*
X227203477Y-40148531D02*
G75*
G03*
X226780831Y-40571233I23J-422669D01*
G01*
X297472400Y-37151183D02*
G75*
G02*
X297048207Y-37575400I-424200J-17D01*
G01*
X239828620Y-75550876D02*
G75*
G02*
X240252324Y-75974607I-20J-423724D01*
G01*
X98382619Y-55152532D02*
G75*
G02*
X98762068Y-55531964I-19J-379468D01*
G01*
X98762068Y-57886720D02*
G75*
G03*
X99144815Y-58269432I382732J20D01*
G01*
X240674965Y-102001751D02*
G75*
G02*
X240252349Y-101579137I35J422651D01*
G01*
X255006651Y-39721454D02*
G75*
G02*
X254579574Y-40148551I-427051J-46D01*
G01*
X226950589Y-58270183D02*
G75*
G03*
X226956976Y-58276611I6411J-17D01*
G01*
X99144154Y-58269450D02*
G75*
G03*
X98762050Y-58651553I46J-382150D01*
G01*
X255430278Y-37575376D02*
G75*
G03*
X255006676Y-37999003I22J-423624D01*
G01*
%TO.N,Col3*%
X246558925Y-55025000D02*
X250831985Y-55025000D01*
X254966054Y-76503850D02*
X251035951Y-76503850D01*
X113932871Y-82979043D02*
X125958804Y-82979043D01*
X111684966Y-55012300D02*
X246558925Y-55012300D01*
X113869363Y-83042551D02*
X113932871Y-82979043D01*
X246558925Y-55012300D02*
X246558925Y-55025000D01*
X112088060Y-57586441D02*
X116440674Y-57586441D01*
X111664851Y-55032415D02*
X111664851Y-57163232D01*
X125958804Y-82979043D02*
X125958804Y-82958691D01*
X251753408Y-56537148D02*
X290678868Y-56537148D01*
X255387851Y-81914941D02*
X255387851Y-76925647D01*
X246558925Y-62847715D02*
X246558925Y-55025000D01*
X259302351Y-82338076D02*
X255810986Y-82338076D01*
X249567423Y-63271984D02*
X246983194Y-63271984D01*
X111675103Y-55022163D02*
X111664851Y-55032415D01*
X251256300Y-55449315D02*
X251256300Y-56040040D01*
X111675103Y-55022163D02*
G75*
G02*
X111684966Y-55012303I9897J-37D01*
G01*
X111664851Y-57163232D02*
G75*
G03*
X112088060Y-57586449I423249J32D01*
G01*
X255387851Y-76925647D02*
G75*
G03*
X254966054Y-76503849I-421751J47D01*
G01*
X251256300Y-56040040D02*
G75*
G03*
X251753408Y-56537100I497100J40D01*
G01*
X250831985Y-55025000D02*
G75*
G02*
X251256300Y-55449315I15J-424300D01*
G01*
X255810986Y-82338076D02*
G75*
G02*
X255387824Y-81914941I14J423176D01*
G01*
X290678868Y-56537148D02*
G75*
G03*
X290710048Y-56506035I32J31148D01*
G01*
X246983194Y-63271984D02*
G75*
G02*
X246558916Y-62847715I6J424284D01*
G01*
%TO.N,Col4*%
X310298851Y-54506439D02*
X310298851Y-55478807D01*
X270455451Y-55904807D02*
X264067876Y-55904807D01*
X135477351Y-73767476D02*
X269400451Y-73767476D01*
X269400451Y-73767476D02*
X269400451Y-73743855D01*
X309872191Y-55905467D02*
X270477125Y-55905467D01*
X310298851Y-55478807D02*
G75*
G02*
X309872191Y-55905451I-426651J7D01*
G01*
X270477125Y-55905467D02*
G75*
G03*
X270466567Y-55915974I-25J-10533D01*
G01*
X270466618Y-55915974D02*
G75*
G03*
X270455451Y-55904882I-11118J-26D01*
G01*
%TO.N,Col5*%
X165381626Y-74343855D02*
X165381613Y-74343842D01*
X164993451Y-74731977D02*
X164993451Y-74729251D01*
X309749651Y-39219076D02*
X287616804Y-39219076D01*
X155786011Y-58869450D02*
X151515251Y-58869450D01*
X165381613Y-74343842D02*
X164608068Y-74343842D01*
X310172400Y-35970934D02*
X310172400Y-38796327D01*
X287612612Y-54146658D02*
X287613251Y-54147297D01*
X283114851Y-54146658D02*
X287612612Y-54146658D01*
X165003235Y-75822778D02*
X164993451Y-75812994D01*
X164993451Y-75812994D02*
X164993451Y-74731977D01*
X287324168Y-74343855D02*
X165381626Y-74343855D01*
X153869712Y-74367476D02*
X153893333Y-74343855D01*
X153893333Y-74343855D02*
X164608055Y-74343855D01*
X287616804Y-39219076D02*
X287615533Y-39220347D01*
X164608068Y-74343842D02*
X164608055Y-74343855D01*
X165381613Y-74343842D02*
G75*
G03*
X164993442Y-74731977I-13J-388158D01*
G01*
X310172400Y-38796327D02*
G75*
G02*
X309749651Y-39219000I-422700J27D01*
G01*
X164993451Y-74729251D02*
G75*
G03*
X164608055Y-74343949I-385351J-49D01*
G01*
%TO.N,Col6*%
X183230601Y-93721885D02*
X183230601Y-93731476D01*
X313621692Y-46758185D02*
X306923751Y-46758185D01*
X307189851Y-94155127D02*
X307189851Y-97735776D01*
X183230601Y-93731476D02*
X306766200Y-93731476D01*
X306766200Y-93731476D02*
G75*
G02*
X307189824Y-94155127I0J-423624D01*
G01*
%TO.N,RE02a*%
X321356006Y-114583671D02*
X321356006Y-114600713D01*
X283139851Y-112235776D02*
X283139851Y-114160643D01*
X283562879Y-114583671D02*
X321356006Y-114583671D01*
X283139851Y-114160643D02*
G75*
G03*
X283562879Y-114583649I423049J43D01*
G01*
%TO.N,RE03b*%
X307300000Y-112275000D02*
X315529912Y-112275000D01*
X315529912Y-112275000D02*
X315530159Y-112274753D01*
%TD*%
M02*
