%TF.GenerationSoftware,KiCad,Pcbnew,9.0.3*%
%TF.CreationDate,2025-11-12T23:28:46+09:00*%
%TF.ProjectId,amphibious_pcb,616d7068-6962-4696-9f75-735f7063622e,rev?*%
%TF.SameCoordinates,Original*%
%TF.FileFunction,Profile,NP*%
%FSLAX46Y46*%
G04 Gerber Fmt 4.6, Leading zero omitted, Abs format (unit mm)*
G04 Created by KiCad (PCBNEW 9.0.3) date 2025-11-12 23:28:46*
%MOMM*%
%LPD*%
G01*
G04 APERTURE LIST*
%TA.AperFunction,Profile*%
%ADD10C,0.100000*%
%TD*%
%TA.AperFunction,Profile*%
%ADD11C,0.120000*%
%TD*%
G04 APERTURE END LIST*
D10*
X327632100Y-114003957D02*
G75*
G02*
X324632100Y-117003900I-2999900J-43D01*
G01*
X26282100Y-117003957D02*
G75*
G02*
X23282103Y-114003957I30J3000027D01*
G01*
X23282100Y-21203957D02*
X23282100Y-114003957D01*
X26282100Y-117003956D02*
X324632100Y-117003957D01*
X324632100Y-18203958D02*
X26282101Y-18203957D01*
X327632100Y-21203957D02*
X327632100Y-114003957D01*
X23282100Y-21203957D02*
G75*
G02*
X26282100Y-18203950I3000010J-3D01*
G01*
X324632100Y-18203957D02*
G75*
G02*
X327632043Y-21203957I0J-2999943D01*
G01*
D11*
%TO.C,L36*%
X155404200Y-79078900D02*
X158904200Y-79078900D01*
X155404200Y-82278900D02*
X155404200Y-79078900D01*
X158904200Y-79078900D02*
X158904200Y-82278900D01*
X158904200Y-82278900D02*
X155404200Y-82278900D01*
%TO.C,L6*%
X198266700Y-40978900D02*
X201766700Y-40978900D01*
X198266700Y-44178900D02*
X198266700Y-40978900D01*
X201766700Y-40978900D02*
X201766700Y-44178900D01*
X201766700Y-44178900D02*
X198266700Y-44178900D01*
%TO.C,L17*%
X88729200Y-60028900D02*
X92229200Y-60028900D01*
X88729200Y-63228900D02*
X88729200Y-60028900D01*
X92229200Y-60028900D02*
X92229200Y-63228900D01*
X92229200Y-63228900D02*
X88729200Y-63228900D01*
%TO.C,L5*%
X217316700Y-40978900D02*
X220816700Y-40978900D01*
X217316700Y-44178900D02*
X217316700Y-40978900D01*
X220816700Y-40978900D02*
X220816700Y-44178900D01*
X220816700Y-44178900D02*
X217316700Y-44178900D01*
%TO.C,L8*%
X160166700Y-40978900D02*
X163666700Y-40978900D01*
X160166700Y-44178900D02*
X160166700Y-40978900D01*
X163666700Y-40978900D02*
X163666700Y-44178900D01*
X163666700Y-44178900D02*
X160166700Y-44178900D01*
%TO.C,L29*%
X295898000Y-79078900D02*
X299398000Y-79078900D01*
X295898000Y-82278900D02*
X295898000Y-79078900D01*
X299398000Y-79078900D02*
X299398000Y-82278900D01*
X299398000Y-82278900D02*
X295898000Y-82278900D01*
%TO.C,L9*%
X141116700Y-40978900D02*
X144616700Y-40978900D01*
X141116700Y-44178900D02*
X141116700Y-40978900D01*
X144616700Y-40978900D02*
X144616700Y-44178900D01*
X144616700Y-44178900D02*
X141116700Y-44178900D01*
%TO.C,L16*%
X69679200Y-60028900D02*
X73179200Y-60028900D01*
X69679200Y-63228900D02*
X69679200Y-60028900D01*
X73179200Y-60028900D02*
X73179200Y-63228900D01*
X73179200Y-63228900D02*
X69679200Y-63228900D01*
%TO.C,L24*%
X222079200Y-60028900D02*
X225579200Y-60028900D01*
X222079200Y-63228900D02*
X222079200Y-60028900D01*
X225579200Y-60028900D02*
X225579200Y-63228900D01*
X225579200Y-63228900D02*
X222079200Y-63228900D01*
%TO.C,L43*%
X91110500Y-98128900D02*
X94610500Y-98128900D01*
X91110500Y-101328900D02*
X91110500Y-98128900D01*
X94610500Y-98128900D02*
X94610500Y-101328900D01*
X94610500Y-101328900D02*
X91110500Y-101328900D01*
%TO.C,L42*%
X69679200Y-98128900D02*
X73179200Y-98128900D01*
X69679200Y-101328900D02*
X69679200Y-98128900D01*
X73179200Y-98128900D02*
X73179200Y-101328900D01*
X73179200Y-101328900D02*
X69679200Y-101328900D01*
%TO.C,L46*%
X255416700Y-98128900D02*
X258916700Y-98128900D01*
X255416700Y-101328900D02*
X255416700Y-98128900D01*
X258916700Y-98128900D02*
X258916700Y-101328900D01*
X258916700Y-101328900D02*
X255416700Y-101328900D01*
%TO.C,L26*%
X260179200Y-60028900D02*
X263679200Y-60028900D01*
X260179200Y-63228900D02*
X260179200Y-60028900D01*
X263679200Y-60028900D02*
X263679200Y-63228900D01*
X263679200Y-63228900D02*
X260179200Y-63228900D01*
%TO.C,L20*%
X145879200Y-60028900D02*
X149379200Y-60028900D01*
X145879200Y-63228900D02*
X145879200Y-60028900D01*
X149379200Y-60028900D02*
X149379200Y-63228900D01*
X149379200Y-63228900D02*
X145879200Y-63228900D01*
%TO.C,L1*%
X298279200Y-40978900D02*
X301779200Y-40978900D01*
X298279200Y-44178900D02*
X298279200Y-40978900D01*
X301779200Y-40978900D02*
X301779200Y-44178900D01*
X301779200Y-44178900D02*
X298279200Y-44178900D01*
%TO.C,L22*%
X183979200Y-60028900D02*
X187479200Y-60028900D01*
X183979200Y-63228900D02*
X183979200Y-60028900D01*
X187479200Y-60028900D02*
X187479200Y-63228900D01*
X187479200Y-63228900D02*
X183979200Y-63228900D01*
%TO.C,L3*%
X255416700Y-40978900D02*
X258916700Y-40978900D01*
X255416700Y-44178900D02*
X255416700Y-40978900D01*
X258916700Y-40978900D02*
X258916700Y-44178900D01*
X258916700Y-44178900D02*
X255416700Y-44178900D01*
%TO.C,L19*%
X126829200Y-60028900D02*
X130329200Y-60028900D01*
X126829200Y-63228900D02*
X126829200Y-60028900D01*
X130329200Y-60028900D02*
X130329200Y-63228900D01*
X130329200Y-63228900D02*
X126829200Y-63228900D01*
%TO.C,L31*%
X250654200Y-79078900D02*
X254154200Y-79078900D01*
X250654200Y-82278900D02*
X250654200Y-79078900D01*
X254154200Y-79078900D02*
X254154200Y-82278900D01*
X254154200Y-82278900D02*
X250654200Y-82278900D01*
%TO.C,L7*%
X179216700Y-40978900D02*
X182716700Y-40978900D01*
X179216700Y-44178900D02*
X179216700Y-40978900D01*
X182716700Y-40978900D02*
X182716700Y-44178900D01*
X182716700Y-44178900D02*
X179216700Y-44178900D01*
%TO.C,L12*%
X83966700Y-40978900D02*
X87466700Y-40978900D01*
X83966700Y-44178900D02*
X83966700Y-40978900D01*
X87466700Y-40978900D02*
X87466700Y-44178900D01*
X87466700Y-44178900D02*
X83966700Y-44178900D01*
%TO.C,L27*%
X279229200Y-60028900D02*
X282729200Y-60028900D01*
X279229200Y-63228900D02*
X279229200Y-60028900D01*
X282729200Y-60028900D02*
X282729200Y-63228900D01*
X282729200Y-63228900D02*
X279229200Y-63228900D01*
%TO.C,L13*%
X64916700Y-40978900D02*
X68416700Y-40978900D01*
X64916700Y-44178900D02*
X64916700Y-40978900D01*
X68416700Y-40978900D02*
X68416700Y-44178900D01*
X68416700Y-44178900D02*
X64916700Y-44178900D01*
%TO.C,L41*%
X53010500Y-79078900D02*
X56510500Y-79078900D01*
X53010500Y-82278900D02*
X53010500Y-79078900D01*
X56510500Y-79078900D02*
X56510500Y-82278900D01*
X56510500Y-82278900D02*
X53010500Y-82278900D01*
%TO.C,L11*%
X103016700Y-40978900D02*
X106516700Y-40978900D01*
X103016700Y-44178900D02*
X103016700Y-40978900D01*
X106516700Y-40978900D02*
X106516700Y-44178900D01*
X106516700Y-44178900D02*
X103016700Y-44178900D01*
%TO.C,L45*%
X233985500Y-98128900D02*
X237485500Y-98128900D01*
X233985500Y-101328900D02*
X233985500Y-98128900D01*
X237485500Y-98128900D02*
X237485500Y-101328900D01*
X237485500Y-101328900D02*
X233985500Y-101328900D01*
%TO.C,L14*%
X45866700Y-40978900D02*
X49366700Y-40978900D01*
X45866700Y-44178900D02*
X45866700Y-40978900D01*
X49366700Y-40978900D02*
X49366700Y-44178900D01*
X49366700Y-44178900D02*
X45866700Y-44178900D01*
%TO.C,L28*%
X300660500Y-60028900D02*
X304160500Y-60028900D01*
X300660500Y-63228900D02*
X300660500Y-60028900D01*
X304160500Y-60028900D02*
X304160500Y-63228900D01*
X304160500Y-63228900D02*
X300660500Y-63228900D01*
%TO.C,L21*%
X164929200Y-60028900D02*
X168429200Y-60028900D01*
X164929200Y-63228900D02*
X164929200Y-60028900D01*
X168429200Y-60028900D02*
X168429200Y-63228900D01*
X168429200Y-63228900D02*
X164929200Y-63228900D01*
%TO.C,L10*%
X122066700Y-40978900D02*
X125566700Y-40978900D01*
X122066700Y-44178900D02*
X122066700Y-40978900D01*
X125566700Y-40978900D02*
X125566700Y-44178900D01*
X125566700Y-44178900D02*
X122066700Y-44178900D01*
%TO.C,L32*%
X231604200Y-79078900D02*
X235104200Y-79078900D01*
X231604200Y-82278900D02*
X231604200Y-79078900D01*
X235104200Y-79078900D02*
X235104200Y-82278900D01*
X235104200Y-82278900D02*
X231604200Y-82278900D01*
%TO.C,L33*%
X212554200Y-79078900D02*
X216054200Y-79078900D01*
X212554200Y-82278900D02*
X212554200Y-79078900D01*
X216054200Y-79078900D02*
X216054200Y-82278900D01*
X216054200Y-82278900D02*
X212554200Y-82278900D01*
%TO.C,L30*%
X269704200Y-79078900D02*
X273204200Y-79078900D01*
X269704200Y-82278900D02*
X269704200Y-79078900D01*
X273204200Y-79078900D02*
X273204200Y-82278900D01*
X273204200Y-82278900D02*
X269704200Y-82278900D01*
%TO.C,L4*%
X236366700Y-40978900D02*
X239866700Y-40978900D01*
X236366700Y-44178900D02*
X236366700Y-40978900D01*
X239866700Y-40978900D02*
X239866700Y-44178900D01*
X239866700Y-44178900D02*
X236366700Y-44178900D01*
%TO.C,L34*%
X193504200Y-79078900D02*
X197004200Y-79078900D01*
X193504200Y-82278900D02*
X193504200Y-79078900D01*
X197004200Y-79078900D02*
X197004200Y-82278900D01*
X197004200Y-82278900D02*
X193504200Y-82278900D01*
%TO.C,L35*%
X174454200Y-79078900D02*
X177954200Y-79078900D01*
X174454200Y-82278900D02*
X174454200Y-79078900D01*
X177954200Y-79078900D02*
X177954200Y-82278900D01*
X177954200Y-82278900D02*
X174454200Y-82278900D01*
%TO.C,L18*%
X107779200Y-60028900D02*
X111279200Y-60028900D01*
X107779200Y-63228900D02*
X107779200Y-60028900D01*
X111279200Y-60028900D02*
X111279200Y-63228900D01*
X111279200Y-63228900D02*
X107779200Y-63228900D01*
%TO.C,L38*%
X117304200Y-79078900D02*
X120804200Y-79078900D01*
X117304200Y-82278900D02*
X117304200Y-79078900D01*
X120804200Y-79078900D02*
X120804200Y-82278900D01*
X120804200Y-82278900D02*
X117304200Y-82278900D01*
%TO.C,L44*%
X162548000Y-98128900D02*
X166048000Y-98128900D01*
X162548000Y-101328900D02*
X162548000Y-98128900D01*
X166048000Y-98128900D02*
X166048000Y-101328900D01*
X166048000Y-101328900D02*
X162548000Y-101328900D01*
%TO.C,L37*%
X136354200Y-79078900D02*
X139854200Y-79078900D01*
X136354200Y-82278900D02*
X136354200Y-79078900D01*
X139854200Y-79078900D02*
X139854200Y-82278900D01*
X139854200Y-82278900D02*
X136354200Y-82278900D01*
%TO.C,L40*%
X79204200Y-79078900D02*
X82704200Y-79078900D01*
X79204200Y-82278900D02*
X79204200Y-79078900D01*
X82704200Y-79078900D02*
X82704200Y-82278900D01*
X82704200Y-82278900D02*
X79204200Y-82278900D01*
%TO.C,L39*%
X98254200Y-79078900D02*
X101754200Y-79078900D01*
X98254200Y-82278900D02*
X98254200Y-79078900D01*
X101754200Y-79078900D02*
X101754200Y-82278900D01*
X101754200Y-82278900D02*
X98254200Y-82278900D01*
%TO.C,L23*%
X203029200Y-60028900D02*
X206529200Y-60028900D01*
X203029200Y-63228900D02*
X203029200Y-60028900D01*
X206529200Y-60028900D02*
X206529200Y-63228900D01*
X206529200Y-63228900D02*
X203029200Y-63228900D01*
%TO.C,L25*%
X241129200Y-60028900D02*
X244629200Y-60028900D01*
X241129200Y-63228900D02*
X241129200Y-60028900D01*
X244629200Y-60028900D02*
X244629200Y-63228900D01*
X244629200Y-63228900D02*
X241129200Y-63228900D01*
%TO.C,L15*%
X48248000Y-60028900D02*
X51748000Y-60028900D01*
X48248000Y-63228900D02*
X48248000Y-60028900D01*
X51748000Y-60028900D02*
X51748000Y-63228900D01*
X51748000Y-63228900D02*
X48248000Y-63228900D01*
%TO.C,L2*%
X274466700Y-40978900D02*
X277966700Y-40978900D01*
X274466700Y-44178900D02*
X274466700Y-40978900D01*
X277966700Y-40978900D02*
X277966700Y-44178900D01*
X277966700Y-44178900D02*
X274466700Y-44178900D01*
%TD*%
M02*
