%TF.GenerationSoftware,KiCad,Pcbnew,9.0.3*%
%TF.CreationDate,2025-11-12T23:28:46+09:00*%
%TF.ProjectId,amphibious_pcb,616d7068-6962-4696-9f75-735f7063622e,rev?*%
%TF.SameCoordinates,Original*%
%TF.FileFunction,Soldermask,Top*%
%TF.FilePolarity,Negative*%
%FSLAX46Y46*%
G04 Gerber Fmt 4.6, Leading zero omitted, Abs format (unit mm)*
G04 Created by KiCad (PCBNEW 9.0.3) date 2025-11-12 23:28:46*
%MOMM*%
%LPD*%
G01*
G04 APERTURE LIST*
%ADD10C,2.000000*%
%ADD11C,3.000000*%
%ADD12C,4.000000*%
%ADD13O,1.600000X1.300000*%
%ADD14C,3.100000*%
%ADD15C,3.050000*%
%ADD16C,1.800000*%
%ADD17C,1.250000*%
G04 APERTURE END LIST*
D10*
%TO.C,SW5*%
X71755000Y-47625000D03*
D11*
X70485000Y-50165000D03*
D12*
X66675000Y-47625000D03*
D11*
X64135000Y-52705000D03*
D10*
X61595000Y-47625000D03*
%TD*%
%TO.C,SW8*%
X76517500Y-104775000D03*
D11*
X75247500Y-107315000D03*
D12*
X71437500Y-104775000D03*
D11*
X68897500Y-109855000D03*
D10*
X66357500Y-104775000D03*
%TD*%
%TO.C,SW12*%
X97948800Y-104775000D03*
D11*
X96678800Y-107315000D03*
D12*
X92868800Y-104775000D03*
D11*
X90328800Y-109855000D03*
D10*
X87788800Y-104775000D03*
%TD*%
%TO.C,SW2*%
X55086300Y-66675000D03*
D11*
X53816300Y-69215000D03*
D12*
X50006300Y-66675000D03*
D11*
X47466300Y-71755000D03*
D10*
X44926300Y-66675000D03*
%TD*%
D11*
%TO.C,SW4*%
X51435000Y-107315000D03*
D12*
X47625000Y-104775000D03*
D11*
X45085000Y-109855000D03*
D13*
X45125000Y-112275000D03*
X50125000Y-112275000D03*
X47625000Y-112275000D03*
D14*
X53175000Y-104775000D03*
X42075000Y-104775000D03*
D13*
X45125000Y-97775000D03*
X50125000Y-97775000D03*
%TD*%
D10*
%TO.C,SW1*%
X52705000Y-47625000D03*
D11*
X51435000Y-50165000D03*
D12*
X47625000Y-47625000D03*
D11*
X45085000Y-52705000D03*
D10*
X42545000Y-47625000D03*
%TD*%
%TO.C,SW3*%
X59848800Y-85725000D03*
D11*
X58578800Y-88265000D03*
D12*
X54768800Y-85725000D03*
D11*
X52228800Y-90805000D03*
D10*
X49688800Y-85725000D03*
%TD*%
%TO.C,SW7*%
X86042500Y-85725000D03*
D11*
X84772500Y-88265000D03*
D12*
X80962500Y-85725000D03*
D11*
X78422500Y-90805000D03*
D10*
X75882500Y-85725000D03*
%TD*%
%TO.C,SW6*%
X76517500Y-66675000D03*
D11*
X75247500Y-69215000D03*
D12*
X71437500Y-66675000D03*
D11*
X68897500Y-71755000D03*
D10*
X66357500Y-66675000D03*
%TD*%
%TO.C,SW9*%
X90805000Y-47625000D03*
D11*
X89535000Y-50165000D03*
D12*
X85725000Y-47625000D03*
D11*
X83185000Y-52705000D03*
D10*
X80645000Y-47625000D03*
%TD*%
%TO.C,SW10*%
X95567500Y-66675000D03*
D11*
X94297500Y-69215000D03*
D12*
X90487500Y-66675000D03*
D11*
X87947500Y-71755000D03*
D10*
X85407500Y-66675000D03*
%TD*%
%TO.C,SW11*%
X105092500Y-85725000D03*
D11*
X103822500Y-88265000D03*
D12*
X100012500Y-85725000D03*
D11*
X97472500Y-90805000D03*
D10*
X94932500Y-85725000D03*
%TD*%
%TO.C,SW13*%
X109855000Y-47625000D03*
D11*
X108585000Y-50165000D03*
D12*
X104775000Y-47625000D03*
D11*
X102235000Y-52705000D03*
D10*
X99695000Y-47625000D03*
%TD*%
%TO.C,SW15*%
X124142500Y-85725000D03*
D11*
X122872500Y-88265000D03*
D12*
X119062500Y-85725000D03*
D11*
X116522500Y-90805000D03*
D10*
X113982500Y-85725000D03*
%TD*%
%TO.C,SW14*%
X114617500Y-66675000D03*
D11*
X113347500Y-69215000D03*
D12*
X109537500Y-66675000D03*
D11*
X106997500Y-71755000D03*
D10*
X104457500Y-66675000D03*
%TD*%
%TO.C,SW16*%
X128905000Y-47625000D03*
D11*
X127635000Y-50165000D03*
D12*
X123825000Y-47625000D03*
D11*
X121285000Y-52705000D03*
D10*
X118745000Y-47625000D03*
%TD*%
%TO.C,SW25*%
X181292500Y-85725000D03*
D11*
X180022500Y-88265000D03*
D12*
X176212500Y-85725000D03*
D11*
X173672500Y-90805000D03*
D10*
X171132500Y-85725000D03*
%TD*%
%TO.C,SW17*%
X133667500Y-66675000D03*
D11*
X132397500Y-69215000D03*
D12*
X128587500Y-66675000D03*
D11*
X126047500Y-71755000D03*
D10*
X123507500Y-66675000D03*
%TD*%
%TO.C,SW19*%
X147955000Y-47625000D03*
D11*
X146685000Y-50165000D03*
D12*
X142875000Y-47625000D03*
D11*
X140335000Y-52705000D03*
D10*
X137795000Y-47625000D03*
%TD*%
%TO.C,SW21*%
X162242500Y-85725000D03*
D11*
X160972500Y-88265000D03*
D12*
X157162500Y-85725000D03*
D11*
X154622500Y-90805000D03*
D10*
X152082500Y-85725000D03*
%TD*%
%TO.C,SW23*%
X167005000Y-47625000D03*
D11*
X165735000Y-50165000D03*
D12*
X161925000Y-47625000D03*
D11*
X159385000Y-52705000D03*
D10*
X156845000Y-47625000D03*
%TD*%
%TO.C,SW24*%
X171767500Y-66675000D03*
D11*
X170497500Y-69215000D03*
D12*
X166687500Y-66675000D03*
D11*
X164147500Y-71755000D03*
D10*
X161607500Y-66675000D03*
%TD*%
%TO.C,SW18*%
X143192500Y-85725000D03*
D11*
X141922500Y-88265000D03*
D12*
X138112500Y-85725000D03*
D11*
X135572500Y-90805000D03*
D10*
X133032500Y-85725000D03*
%TD*%
%TO.C,SW20*%
X152717500Y-66675000D03*
D11*
X151447500Y-69215000D03*
D12*
X147637500Y-66675000D03*
D11*
X145097500Y-71755000D03*
D10*
X142557500Y-66675000D03*
%TD*%
%TO.C,SW30*%
X209867500Y-66675000D03*
D11*
X208597500Y-69215000D03*
D12*
X204787500Y-66675000D03*
D11*
X202247500Y-71755000D03*
D10*
X199707500Y-66675000D03*
%TD*%
%TO.C,SW28*%
X200342500Y-85725000D03*
D11*
X199072500Y-88265000D03*
D12*
X195262500Y-85725000D03*
D11*
X192722500Y-90805000D03*
D10*
X190182500Y-85725000D03*
%TD*%
%TO.C,SW32*%
X224155000Y-47625000D03*
D11*
X222885000Y-50165000D03*
D12*
X219075000Y-47625000D03*
D11*
X216535000Y-52705000D03*
D10*
X213995000Y-47625000D03*
%TD*%
%TO.C,SW27*%
X190817500Y-66675000D03*
D11*
X189547500Y-69215000D03*
D12*
X185737500Y-66675000D03*
D11*
X183197500Y-71755000D03*
D10*
X180657500Y-66675000D03*
%TD*%
%TO.C,SW34*%
X238442500Y-85725000D03*
D11*
X237172500Y-88265000D03*
D12*
X233362500Y-85725000D03*
D11*
X230822500Y-90805000D03*
D10*
X228282500Y-85725000D03*
%TD*%
%TO.C,SW31*%
X219392500Y-85725000D03*
D11*
X218122500Y-88265000D03*
D12*
X214312500Y-85725000D03*
D11*
X211772500Y-90805000D03*
D10*
X209232500Y-85725000D03*
%TD*%
%TO.C,SW26*%
X186055000Y-47625000D03*
D11*
X184785000Y-50165000D03*
D12*
X180975000Y-47625000D03*
D11*
X178435000Y-52705000D03*
D10*
X175895000Y-47625000D03*
%TD*%
%TO.C,SW33*%
X228917500Y-66675000D03*
D11*
X227647500Y-69215000D03*
D12*
X223837500Y-66675000D03*
D11*
X221297500Y-71755000D03*
D10*
X218757500Y-66675000D03*
%TD*%
%TO.C,SW29*%
X205105000Y-47625000D03*
D11*
X203835000Y-50165000D03*
D12*
X200025000Y-47625000D03*
D11*
X197485000Y-52705000D03*
D10*
X194945000Y-47625000D03*
%TD*%
%TO.C,SW48*%
X302736300Y-85725000D03*
D11*
X301466300Y-88265000D03*
D12*
X297656300Y-85725000D03*
D11*
X295116300Y-90805000D03*
D10*
X292576300Y-85725000D03*
%TD*%
%TO.C,SW38*%
X257492500Y-85725000D03*
D11*
X256222500Y-88265000D03*
D12*
X252412500Y-85725000D03*
D11*
X249872500Y-90805000D03*
D10*
X247332500Y-85725000D03*
%TD*%
%TO.C,SW36*%
X243205000Y-47625000D03*
D11*
X241935000Y-50165000D03*
D12*
X238125000Y-47625000D03*
D11*
X235585000Y-52705000D03*
D10*
X233045000Y-47625000D03*
%TD*%
%TO.C,SW37*%
X247967500Y-66675000D03*
D11*
X246697500Y-69215000D03*
D12*
X242887500Y-66675000D03*
D11*
X240347500Y-71755000D03*
D10*
X237807500Y-66675000D03*
%TD*%
%TO.C,SW45*%
X286067500Y-66675000D03*
D11*
X284797500Y-69215000D03*
D12*
X280987500Y-66675000D03*
D11*
X278447500Y-71755000D03*
D10*
X275907500Y-66675000D03*
%TD*%
%TO.C,SW40*%
X262255000Y-47625000D03*
D11*
X260985000Y-50165000D03*
D12*
X257175000Y-47625000D03*
D11*
X254635000Y-52705000D03*
D10*
X252095000Y-47625000D03*
%TD*%
%TO.C,SW41*%
X267017500Y-66675000D03*
D11*
X265747500Y-69215000D03*
D12*
X261937500Y-66675000D03*
D11*
X259397500Y-71755000D03*
D10*
X256857500Y-66675000D03*
%TD*%
%TO.C,SW44*%
X281305000Y-47625000D03*
D11*
X280035000Y-50165000D03*
D12*
X276225000Y-47625000D03*
D11*
X273685000Y-52705000D03*
D10*
X271145000Y-47625000D03*
%TD*%
%TO.C,SW46*%
X305117500Y-47625000D03*
D11*
X303847500Y-50165000D03*
D12*
X300037500Y-47625000D03*
D11*
X297497500Y-52705000D03*
D10*
X294957500Y-47625000D03*
%TD*%
D11*
%TO.C,SW49*%
X308610000Y-107315000D03*
D12*
X304800000Y-104775000D03*
D11*
X302260000Y-109855000D03*
D13*
X302300000Y-112275000D03*
X307300000Y-112275000D03*
X304800000Y-112275000D03*
D14*
X310350000Y-104775000D03*
X299250000Y-104775000D03*
D13*
X302300000Y-97775000D03*
X307300000Y-97775000D03*
%TD*%
D10*
%TO.C,SW35*%
X240823800Y-104775000D03*
D11*
X239553800Y-107315000D03*
D12*
X235743800Y-104775000D03*
D11*
X233203800Y-109855000D03*
D10*
X230663800Y-104775000D03*
%TD*%
%TO.C,SW39*%
X262255000Y-104775000D03*
D11*
X260985000Y-107315000D03*
D12*
X257175000Y-104775000D03*
D11*
X254635000Y-109855000D03*
D10*
X252095000Y-104775000D03*
%TD*%
D15*
%TO.C,SW22*%
X114102500Y-97775000D03*
D12*
X114102500Y-113015000D03*
D16*
X159032500Y-104775000D03*
D11*
X161572500Y-109855000D03*
D12*
X164112500Y-104775000D03*
D11*
X167922500Y-107315000D03*
D16*
X169192500Y-104775000D03*
D15*
X214122500Y-97775000D03*
D12*
X214122500Y-113015000D03*
%TD*%
D17*
%TO.C,U1*%
X292412400Y-35970934D03*
X294932400Y-35970934D03*
X297472400Y-35970934D03*
X300002400Y-35970934D03*
X302552400Y-35970934D03*
X305092400Y-35970934D03*
X307632400Y-35970934D03*
X310172400Y-35970934D03*
X312712400Y-35970934D03*
X312712400Y-33430934D03*
X312712400Y-30880934D03*
X312712400Y-28350600D03*
X312712400Y-25800600D03*
X312712400Y-23270934D03*
X312696741Y-20730934D03*
X310172400Y-20730934D03*
X307632400Y-20730934D03*
X305092400Y-20730934D03*
X302552400Y-20730934D03*
X300002400Y-20730934D03*
X297472400Y-20730934D03*
X294932400Y-20730934D03*
X292412400Y-20730934D03*
%TD*%
D10*
%TO.C,SW42*%
X276542500Y-85725000D03*
D11*
X275272500Y-88265000D03*
D12*
X271462500Y-85725000D03*
D11*
X268922500Y-90805000D03*
D10*
X266382500Y-85725000D03*
%TD*%
D11*
%TO.C,SW43*%
X289560000Y-107315000D03*
D12*
X285750000Y-104775000D03*
D11*
X283210000Y-109855000D03*
D13*
X283250000Y-112275000D03*
X288250000Y-112275000D03*
X285750000Y-112275000D03*
D14*
X291300000Y-104775000D03*
X280200000Y-104775000D03*
D13*
X283250000Y-97775000D03*
X288250000Y-97775000D03*
%TD*%
D10*
%TO.C,SW47*%
X307498800Y-66675000D03*
D11*
X306228800Y-69215000D03*
D12*
X302418800Y-66675000D03*
D11*
X299878800Y-71755000D03*
D10*
X297338800Y-66675000D03*
%TD*%
M02*
