%TF.GenerationSoftware,KiCad,Pcbnew,9.0.3*%
%TF.CreationDate,2025-11-12T23:28:46+09:00*%
%TF.ProjectId,amphibious_pcb,616d7068-6962-4696-9f75-735f7063622e,rev?*%
%TF.SameCoordinates,Original*%
%TF.FileFunction,Copper,L2,Bot*%
%TF.FilePolarity,Positive*%
%FSLAX46Y46*%
G04 Gerber Fmt 4.6, Leading zero omitted, Abs format (unit mm)*
G04 Created by KiCad (PCBNEW 9.0.3) date 2025-11-12 23:28:46*
%MOMM*%
%LPD*%
G01*
G04 APERTURE LIST*
G04 Aperture macros list*
%AMRoundRect*
0 Rectangle with rounded corners*
0 $1 Rounding radius*
0 $2 $3 $4 $5 $6 $7 $8 $9 X,Y pos of 4 corners*
0 Add a 4 corners polygon primitive as box body*
4,1,4,$2,$3,$4,$5,$6,$7,$8,$9,$2,$3,0*
0 Add four circle primitives for the rounded corners*
1,1,$1+$1,$2,$3*
1,1,$1+$1,$4,$5*
1,1,$1+$1,$6,$7*
1,1,$1+$1,$8,$9*
0 Add four rect primitives between the rounded corners*
20,1,$1+$1,$2,$3,$4,$5,0*
20,1,$1+$1,$4,$5,$6,$7,0*
20,1,$1+$1,$6,$7,$8,$9,0*
20,1,$1+$1,$8,$9,$2,$3,0*%
%AMFreePoly0*
4,1,22,1.150000,1.217000,1.242000,1.125000,1.275000,1.000000,1.275000,-0.378000,1.255000,-0.477000,1.196000,-0.560000,1.110000,-0.613000,0.807000,-0.752000,0.530000,-0.939000,0.287000,-1.167000,0.203000,-1.228000,0.102000,-1.250000,-1.025000,-1.250000,-1.150000,-1.217000,-1.242000,-1.125000,-1.275000,-1.000000,-1.275000,1.000000,-1.242000,1.125000,-1.150000,1.217000,-1.025000,1.250000,
1.025000,1.250000,1.150000,1.217000,1.150000,1.217000,$1*%
G04 Aperture macros list end*
%TA.AperFunction,SMDPad,CuDef*%
%ADD10R,3.300000X3.000000*%
%TD*%
%TA.AperFunction,ComponentPad*%
%ADD11O,1.600000X1.300000*%
%TD*%
%TA.AperFunction,SMDPad,CuDef*%
%ADD12RoundRect,0.249600X0.550400X0.900400X-0.550400X0.900400X-0.550400X-0.900400X0.550400X-0.900400X0*%
%TD*%
%TA.AperFunction,ComponentPad*%
%ADD13C,3.100000*%
%TD*%
%TA.AperFunction,SMDPad,CuDef*%
%ADD14RoundRect,0.249600X0.550400X1.300400X-0.550400X1.300400X-0.550400X-1.300400X0.550400X-1.300400X0*%
%TD*%
%TA.AperFunction,SMDPad,CuDef*%
%ADD15RoundRect,0.250000X1.025000X1.000000X-1.025000X1.000000X-1.025000X-1.000000X1.025000X-1.000000X0*%
%TD*%
%TA.AperFunction,SMDPad,CuDef*%
%ADD16FreePoly0,180.000000*%
%TD*%
%TA.AperFunction,SMDPad,CuDef*%
%ADD17R,2.200000X0.820000*%
%TD*%
%TA.AperFunction,SMDPad,CuDef*%
%ADD18R,0.950000X1.300000*%
%TD*%
%TA.AperFunction,ComponentPad*%
%ADD19C,1.250000*%
%TD*%
%TA.AperFunction,ViaPad*%
%ADD20C,0.600000*%
%TD*%
%TA.AperFunction,Conductor*%
%ADD21C,0.400000*%
%TD*%
%TA.AperFunction,Conductor*%
%ADD22C,0.200000*%
%TD*%
G04 APERTURE END LIST*
D10*
%TO.P,SW5,1,1*%
%TO.N,Col1*%
X74125000Y-50205000D03*
%TO.P,SW5,2,2*%
%TO.N,Net-(D5-A)*%
X60525000Y-52745000D03*
%TD*%
%TO.P,SW8,1,1*%
%TO.N,Col1*%
X78887500Y-107355000D03*
%TO.P,SW8,2,2*%
%TO.N,Net-(D8-A)*%
X65287500Y-109895000D03*
%TD*%
%TO.P,SW12,1,1*%
%TO.N,Col2*%
X100318800Y-107355000D03*
%TO.P,SW12,2,2*%
%TO.N,Net-(D12-A)*%
X86718800Y-109895000D03*
%TD*%
%TO.P,SW2,1,1*%
%TO.N,Col0*%
X57456300Y-69255000D03*
%TO.P,SW2,2,2*%
%TO.N,Net-(D2-A)*%
X43856300Y-71795000D03*
%TD*%
D11*
%TO.P,SW4,A,A*%
%TO.N,RE01a*%
X45125000Y-112275000D03*
%TO.P,SW4,B,B*%
%TO.N,RE01b*%
X50125000Y-112275000D03*
%TO.P,SW4,C,C*%
%TO.N,GND*%
X47625000Y-112275000D03*
D12*
%TO.P,SW4,MP*%
%TO.N,N/C*%
X53975000Y-104375000D03*
D13*
X53175000Y-104775000D03*
X42075000Y-104775000D03*
D14*
X41275000Y-104775000D03*
D11*
%TO.P,SW4,S1,S1*%
%TO.N,Net-(D4-A)*%
X45125000Y-97775000D03*
D15*
X41535000Y-109855000D03*
D16*
%TO.P,SW4,S2,S2*%
%TO.N,Col0*%
X54985000Y-107315000D03*
D11*
X50125000Y-97775000D03*
%TD*%
D10*
%TO.P,SW1,1,1*%
%TO.N,Col0*%
X55075000Y-50205000D03*
%TO.P,SW1,2,2*%
%TO.N,Net-(D1-A)*%
X41475000Y-52745000D03*
%TD*%
%TO.P,SW3,1,1*%
%TO.N,Col0*%
X62218800Y-88305000D03*
%TO.P,SW3,2,2*%
%TO.N,Net-(D3-A)*%
X48618800Y-90845000D03*
%TD*%
%TO.P,SW7,1,1*%
%TO.N,Col1*%
X88412500Y-88305000D03*
%TO.P,SW7,2,2*%
%TO.N,Net-(D7-A)*%
X74812500Y-90845000D03*
%TD*%
%TO.P,SW6,1,1*%
%TO.N,Col1*%
X78887500Y-69255000D03*
%TO.P,SW6,2,2*%
%TO.N,Net-(D6-A)*%
X65287500Y-71795000D03*
%TD*%
%TO.P,SW9,1,1*%
%TO.N,Col2*%
X93175000Y-50205000D03*
%TO.P,SW9,2,2*%
%TO.N,Net-(D9-A)*%
X79575000Y-52745000D03*
%TD*%
%TO.P,SW10,1,1*%
%TO.N,Col2*%
X97937500Y-69255000D03*
%TO.P,SW10,2,2*%
%TO.N,Net-(D10-A)*%
X84337500Y-71795000D03*
%TD*%
%TO.P,SW11,1,1*%
%TO.N,Col2*%
X107462500Y-88305000D03*
%TO.P,SW11,2,2*%
%TO.N,Net-(D11-A)*%
X93862500Y-90845000D03*
%TD*%
%TO.P,SW13,1,1*%
%TO.N,Col3*%
X112225000Y-50205000D03*
%TO.P,SW13,2,2*%
%TO.N,Net-(D13-A)*%
X98625000Y-52745000D03*
%TD*%
%TO.P,SW15,1,1*%
%TO.N,Col3*%
X126512500Y-88305000D03*
%TO.P,SW15,2,2*%
%TO.N,Net-(D15-A)*%
X112912500Y-90845000D03*
%TD*%
%TO.P,SW14,1,1*%
%TO.N,Col3*%
X116987500Y-69255000D03*
%TO.P,SW14,2,2*%
%TO.N,Net-(D14-A)*%
X103387500Y-71795000D03*
%TD*%
%TO.P,SW16,1,1*%
%TO.N,Col4*%
X131275000Y-50205000D03*
%TO.P,SW16,2,2*%
%TO.N,Net-(D16-A)*%
X117675000Y-52745000D03*
%TD*%
%TO.P,SW25,1,1*%
%TO.N,Col6*%
X183662500Y-88305000D03*
%TO.P,SW25,2,2*%
%TO.N,Net-(D25-A)*%
X170062500Y-90845000D03*
%TD*%
%TO.P,SW17,1,1*%
%TO.N,Col4*%
X136037500Y-69255000D03*
%TO.P,SW17,2,2*%
%TO.N,Net-(D17-A)*%
X122437500Y-71795000D03*
%TD*%
%TO.P,SW19,1,1*%
%TO.N,Col5*%
X150325000Y-50205000D03*
%TO.P,SW19,2,2*%
%TO.N,Net-(D19-A)*%
X136725000Y-52745000D03*
%TD*%
%TO.P,SW21,1,1*%
%TO.N,Col5*%
X164612500Y-88305000D03*
%TO.P,SW21,2,2*%
%TO.N,Net-(D21-A)*%
X151012500Y-90845000D03*
%TD*%
%TO.P,SW23,1,1*%
%TO.N,Col6*%
X169375000Y-50205000D03*
%TO.P,SW23,2,2*%
%TO.N,Net-(D23-A)*%
X155775000Y-52745000D03*
%TD*%
%TO.P,SW24,1,1*%
%TO.N,Col6*%
X174137500Y-69255000D03*
%TO.P,SW24,2,2*%
%TO.N,Net-(D24-A)*%
X160537500Y-71795000D03*
%TD*%
%TO.P,SW18,1,1*%
%TO.N,Col4*%
X145562500Y-88305000D03*
%TO.P,SW18,2,2*%
%TO.N,Net-(D18-A)*%
X131962500Y-90845000D03*
%TD*%
%TO.P,SW20,1,1*%
%TO.N,Col5*%
X155087500Y-69255000D03*
%TO.P,SW20,2,2*%
%TO.N,Net-(D20-A)*%
X141487500Y-71795000D03*
%TD*%
%TO.P,SW30,1,1*%
%TO.N,Col1*%
X212237500Y-69255000D03*
%TO.P,SW30,2,2*%
%TO.N,Net-(D30-K)*%
X198637500Y-71795000D03*
%TD*%
%TO.P,SW28,1,1*%
%TO.N,Col0*%
X202712500Y-88305000D03*
%TO.P,SW28,2,2*%
%TO.N,Net-(D28-K)*%
X189112500Y-90845000D03*
%TD*%
%TO.P,SW32,1,1*%
%TO.N,Col2*%
X226525000Y-50205000D03*
%TO.P,SW32,2,2*%
%TO.N,Net-(D32-K)*%
X212925000Y-52745000D03*
%TD*%
%TO.P,SW27,1,1*%
%TO.N,Col0*%
X193187500Y-69255000D03*
%TO.P,SW27,2,2*%
%TO.N,Net-(D27-K)*%
X179587500Y-71795000D03*
%TD*%
%TO.P,SW34,1,1*%
%TO.N,Col2*%
X240812500Y-88305000D03*
%TO.P,SW34,2,2*%
%TO.N,Net-(D34-K)*%
X227212500Y-90845000D03*
%TD*%
%TO.P,SW31,1,1*%
%TO.N,Col1*%
X221762500Y-88305000D03*
%TO.P,SW31,2,2*%
%TO.N,Net-(D31-K)*%
X208162500Y-90845000D03*
%TD*%
%TO.P,SW26,1,1*%
%TO.N,Col0*%
X188425000Y-50205000D03*
%TO.P,SW26,2,2*%
%TO.N,Net-(D26-K)*%
X174825000Y-52745000D03*
%TD*%
%TO.P,SW33,1,1*%
%TO.N,Col2*%
X231287500Y-69255000D03*
%TO.P,SW33,2,2*%
%TO.N,Net-(D33-K)*%
X217687500Y-71795000D03*
%TD*%
%TO.P,SW29,1,1*%
%TO.N,Col1*%
X207475000Y-50205000D03*
%TO.P,SW29,2,2*%
%TO.N,Net-(D29-K)*%
X193875000Y-52745000D03*
%TD*%
%TO.P,SW48,1,1*%
%TO.N,Col6*%
X305106300Y-88305000D03*
%TO.P,SW48,2,2*%
%TO.N,Net-(D48-K)*%
X291506300Y-90845000D03*
%TD*%
%TO.P,SW38,1,1*%
%TO.N,Col3*%
X259862500Y-88305000D03*
%TO.P,SW38,2,2*%
%TO.N,Net-(D38-K)*%
X246262500Y-90845000D03*
%TD*%
%TO.P,SW36,1,1*%
%TO.N,Col3*%
X245575000Y-50205000D03*
%TO.P,SW36,2,2*%
%TO.N,Net-(D36-K)*%
X231975000Y-52745000D03*
%TD*%
%TO.P,SW37,1,1*%
%TO.N,Col3*%
X250337500Y-69255000D03*
%TO.P,SW37,2,2*%
%TO.N,Net-(D37-K)*%
X236737500Y-71795000D03*
%TD*%
%TO.P,SW45,1,1*%
%TO.N,Col5*%
X288437500Y-69255000D03*
%TO.P,SW45,2,2*%
%TO.N,Net-(D45-K)*%
X274837500Y-71795000D03*
%TD*%
%TO.P,SW40,1,1*%
%TO.N,Col4*%
X264625000Y-50205000D03*
%TO.P,SW40,2,2*%
%TO.N,Net-(D40-K)*%
X251025000Y-52745000D03*
%TD*%
%TO.P,SW41,1,1*%
%TO.N,Col4*%
X269387500Y-69255000D03*
%TO.P,SW41,2,2*%
%TO.N,Net-(D41-K)*%
X255787500Y-71795000D03*
%TD*%
%TO.P,SW44,1,1*%
%TO.N,Col5*%
X283675000Y-50205000D03*
%TO.P,SW44,2,2*%
%TO.N,Net-(D44-K)*%
X270075000Y-52745000D03*
%TD*%
%TO.P,SW46,1,1*%
%TO.N,Col6*%
X307487500Y-50205000D03*
%TO.P,SW46,2,2*%
%TO.N,Net-(D46-K)*%
X293887500Y-52745000D03*
%TD*%
D11*
%TO.P,SW49,A,A*%
%TO.N,RE03a*%
X302300000Y-112275000D03*
%TO.P,SW49,B,B*%
%TO.N,RE03b*%
X307300000Y-112275000D03*
%TO.P,SW49,C,C*%
%TO.N,GND*%
X304800000Y-112275000D03*
D12*
%TO.P,SW49,MP*%
%TO.N,N/C*%
X311150000Y-104375000D03*
D13*
X310350000Y-104775000D03*
X299250000Y-104775000D03*
D14*
X298450000Y-104775000D03*
D11*
%TO.P,SW49,S1,S1*%
%TO.N,Net-(D49-K)*%
X302300000Y-97775000D03*
D15*
X298710000Y-109855000D03*
D16*
%TO.P,SW49,S2,S2*%
%TO.N,Col6*%
X312160000Y-107315000D03*
D11*
X307300000Y-97775000D03*
%TD*%
D10*
%TO.P,SW35,1,1*%
%TO.N,Col2*%
X243193800Y-107355000D03*
%TO.P,SW35,2,2*%
%TO.N,Net-(D35-K)*%
X229593800Y-109895000D03*
%TD*%
%TO.P,SW39,1,1*%
%TO.N,Col3*%
X264625000Y-107355000D03*
%TO.P,SW39,2,2*%
%TO.N,Net-(D39-K)*%
X251025000Y-109895000D03*
%TD*%
%TO.P,SW22,1,1*%
%TO.N,Col5*%
X171512500Y-107315000D03*
%TO.P,SW22,2,2*%
%TO.N,Net-(D22-A)*%
X158012500Y-109855000D03*
%TD*%
D17*
%TO.P,L36,1,DOUT*%
%TO.N,Net-(L36-DOUT)*%
X154204200Y-81428900D03*
%TO.P,L36,2,VSS*%
%TO.N,GND*%
X160104200Y-81428900D03*
%TO.P,L36,3,DIN*%
%TO.N,Net-(L35-DOUT)*%
X160104200Y-79928900D03*
%TO.P,L36,4,VDD*%
%TO.N,LEDVCC*%
X154204200Y-79928900D03*
%TD*%
D18*
%TO.P,D43,1,K*%
%TO.N,Net-(D43-K)*%
X277415600Y-106550000D03*
%TO.P,D43,2,A*%
%TO.N,Row3*%
X277415600Y-103000000D03*
%TD*%
D17*
%TO.P,L6,1,DOUT*%
%TO.N,Net-(L6-DOUT)*%
X197066700Y-43328900D03*
%TO.P,L6,2,VSS*%
%TO.N,GND*%
X202966700Y-43328900D03*
%TO.P,L6,3,DIN*%
%TO.N,Net-(L5-DOUT)*%
X202966700Y-41828900D03*
%TO.P,L6,4,VDD*%
%TO.N,LEDVCC*%
X197066700Y-41828900D03*
%TD*%
%TO.P,L17,1,DOUT*%
%TO.N,Net-(L17-DOUT)*%
X93429200Y-60878900D03*
%TO.P,L17,2,VSS*%
%TO.N,GND*%
X87529200Y-60878900D03*
%TO.P,L17,3,DIN*%
%TO.N,Net-(L16-DOUT)*%
X87529200Y-62378900D03*
%TO.P,L17,4,VDD*%
%TO.N,LEDVCC*%
X93429200Y-62378900D03*
%TD*%
D18*
%TO.P,D31,1,K*%
%TO.N,Net-(D31-K)*%
X205978100Y-87500000D03*
%TO.P,D31,2,A*%
%TO.N,Row2*%
X205978100Y-83950000D03*
%TD*%
D17*
%TO.P,L5,1,DOUT*%
%TO.N,Net-(L5-DOUT)*%
X216116700Y-43328900D03*
%TO.P,L5,2,VSS*%
%TO.N,GND*%
X222016700Y-43328900D03*
%TO.P,L5,3,DIN*%
%TO.N,Net-(L4-DOUT)*%
X222016700Y-41828900D03*
%TO.P,L5,4,VDD*%
%TO.N,LEDVCC*%
X216116700Y-41828900D03*
%TD*%
%TO.P,L8,1,DOUT*%
%TO.N,Net-(L8-DOUT)*%
X158966700Y-43328900D03*
%TO.P,L8,2,VSS*%
%TO.N,GND*%
X164866700Y-43328900D03*
%TO.P,L8,3,DIN*%
%TO.N,Net-(L7-DOUT)*%
X164866700Y-41828900D03*
%TO.P,L8,4,VDD*%
%TO.N,LEDVCC*%
X158966700Y-41828900D03*
%TD*%
%TO.P,L29,1,DOUT*%
%TO.N,Net-(L29-DOUT)*%
X294698000Y-81428900D03*
%TO.P,L29,2,VSS*%
%TO.N,GND*%
X300598000Y-81428900D03*
%TO.P,L29,3,DIN*%
%TO.N,Net-(L28-DOUT)*%
X300598000Y-79928900D03*
%TO.P,L29,4,VDD*%
%TO.N,LEDVCC*%
X294698000Y-79928900D03*
%TD*%
D18*
%TO.P,D3,1,K*%
%TO.N,Row2*%
X46434400Y-83950000D03*
%TO.P,D3,2,A*%
%TO.N,Net-(D3-A)*%
X46434400Y-87500000D03*
%TD*%
%TO.P,D10,1,K*%
%TO.N,Row1*%
X82153100Y-64900000D03*
%TO.P,D10,2,A*%
%TO.N,Net-(D10-A)*%
X82153100Y-68450000D03*
%TD*%
%TO.P,D15,1,K*%
%TO.N,Row2*%
X110728100Y-83950000D03*
%TO.P,D15,2,A*%
%TO.N,Net-(D15-A)*%
X110728100Y-87500000D03*
%TD*%
D17*
%TO.P,L9,1,DOUT*%
%TO.N,Net-(L10-DIN)*%
X139916700Y-43328900D03*
%TO.P,L9,2,VSS*%
%TO.N,GND*%
X145816700Y-43328900D03*
%TO.P,L9,3,DIN*%
%TO.N,Net-(L8-DOUT)*%
X145816700Y-41828900D03*
%TO.P,L9,4,VDD*%
%TO.N,LEDVCC*%
X139916700Y-41828900D03*
%TD*%
D18*
%TO.P,D16,1,K*%
%TO.N,Row0*%
X115490600Y-45856300D03*
%TO.P,D16,2,A*%
%TO.N,Net-(D16-A)*%
X115490600Y-49406300D03*
%TD*%
D17*
%TO.P,L16,1,DOUT*%
%TO.N,Net-(L16-DOUT)*%
X74379200Y-60878900D03*
%TO.P,L16,2,VSS*%
%TO.N,GND*%
X68479200Y-60878900D03*
%TO.P,L16,3,DIN*%
%TO.N,Net-(L15-DOUT)*%
X68479200Y-62378900D03*
%TO.P,L16,4,VDD*%
%TO.N,LEDVCC*%
X74379200Y-62378900D03*
%TD*%
D18*
%TO.P,D46,1,K*%
%TO.N,Net-(D46-K)*%
X291703100Y-49400000D03*
%TO.P,D46,2,A*%
%TO.N,Row0*%
X291703100Y-45850000D03*
%TD*%
%TO.P,D21,1,K*%
%TO.N,Row2*%
X148828100Y-83950000D03*
%TO.P,D21,2,A*%
%TO.N,Net-(D21-A)*%
X148828100Y-87500000D03*
%TD*%
D19*
%TO.P,U1,1,0*%
%TO.N,Col0*%
X292412400Y-35970934D03*
%TO.P,U1,2,1*%
%TO.N,Col1*%
X294932400Y-35970934D03*
%TO.P,U1,3,2*%
%TO.N,Col2*%
X297472400Y-35970934D03*
%TO.P,U1,4,3*%
%TO.N,Col3*%
X300002400Y-35970934D03*
%TO.P,U1,5,4*%
%TO.N,unconnected-(U1-4-Pad5)*%
X302552400Y-35970934D03*
%TO.P,U1,6,5*%
%TO.N,unconnected-(U1-5-Pad6)*%
X305092400Y-35970934D03*
%TO.P,U1,7,6*%
%TO.N,Col4*%
X307632400Y-35970934D03*
%TO.P,U1,8,7*%
%TO.N,Col5*%
X310172400Y-35970934D03*
%TO.P,U1,9,8*%
%TO.N,Col6*%
X312712400Y-35970934D03*
%TO.P,U1,10,9*%
%TO.N,Row0*%
X312712400Y-33430934D03*
%TO.P,U1,11,10*%
%TO.N,Row1*%
X312712400Y-30880934D03*
%TO.P,U1,12,11*%
%TO.N,Row2*%
X312712400Y-28350600D03*
%TO.P,U1,13,12*%
%TO.N,Row3*%
X312712400Y-25800600D03*
%TO.P,U1,14,13*%
%TO.N,LED*%
X312712400Y-23270934D03*
%TO.P,U1,15,14*%
%TO.N,RE01a*%
X312696741Y-20730934D03*
%TO.P,U1,16,15*%
%TO.N,RE01b*%
X310172400Y-20730934D03*
%TO.P,U1,17,26*%
%TO.N,RE02a*%
X307632400Y-20730934D03*
%TO.P,U1,18,27*%
%TO.N,RE02b*%
X305092400Y-20730934D03*
%TO.P,U1,19,28*%
%TO.N,RE03a*%
X302552400Y-20730934D03*
%TO.P,U1,20,29*%
%TO.N,RE03b*%
X300002400Y-20730934D03*
%TO.P,U1,21,3V3*%
%TO.N,unconnected-(U1-3V3-Pad21)*%
X297472400Y-20730934D03*
%TO.P,U1,22,GND*%
%TO.N,GND*%
X294932400Y-20730934D03*
%TO.P,U1,23,5V*%
%TO.N,VCC*%
X292412400Y-20730934D03*
%TD*%
D18*
%TO.P,D26,1,K*%
%TO.N,Net-(D26-K)*%
X172640600Y-49406300D03*
%TO.P,D26,2,A*%
%TO.N,Row0*%
X172640600Y-45856300D03*
%TD*%
D17*
%TO.P,L24,1,DOUT*%
%TO.N,Net-(L24-DOUT)*%
X226779200Y-60878900D03*
%TO.P,L24,2,VSS*%
%TO.N,GND*%
X220879200Y-60878900D03*
%TO.P,L24,3,DIN*%
%TO.N,Net-(L23-DOUT)*%
X220879200Y-62378900D03*
%TO.P,L24,4,VDD*%
%TO.N,LEDVCC*%
X226779200Y-62378900D03*
%TD*%
D18*
%TO.P,D14,1,K*%
%TO.N,Row1*%
X101203100Y-64900000D03*
%TO.P,D14,2,A*%
%TO.N,Net-(D14-A)*%
X101203100Y-68450000D03*
%TD*%
D17*
%TO.P,L43,1,DOUT*%
%TO.N,Net-(L43-DOUT)*%
X95810500Y-98978900D03*
%TO.P,L43,2,VSS*%
%TO.N,GND*%
X89910500Y-98978900D03*
%TO.P,L43,3,DIN*%
%TO.N,Net-(L42-DOUT)*%
X89910500Y-100478900D03*
%TO.P,L43,4,VDD*%
%TO.N,LEDVCC*%
X95810500Y-100478900D03*
%TD*%
D18*
%TO.P,D47,1,K*%
%TO.N,Net-(D47-K)*%
X294084400Y-68450000D03*
%TO.P,D47,2,A*%
%TO.N,Row1*%
X294084400Y-64900000D03*
%TD*%
%TO.P,D4,1,K*%
%TO.N,Row3*%
X39290600Y-103000000D03*
%TO.P,D4,2,A*%
%TO.N,Net-(D4-A)*%
X39290600Y-106550000D03*
%TD*%
%TO.P,D11,1,K*%
%TO.N,Row2*%
X91678100Y-83950000D03*
%TO.P,D11,2,A*%
%TO.N,Net-(D11-A)*%
X91678100Y-87500000D03*
%TD*%
D17*
%TO.P,L42,1,DOUT*%
%TO.N,Net-(L42-DOUT)*%
X74379200Y-98978900D03*
%TO.P,L42,2,VSS*%
%TO.N,GND*%
X68479200Y-98978900D03*
%TO.P,L42,3,DIN*%
%TO.N,Net-(L41-DOUT)*%
X68479200Y-100478900D03*
%TO.P,L42,4,VDD*%
%TO.N,LEDVCC*%
X74379200Y-100478900D03*
%TD*%
D18*
%TO.P,D49,1,K*%
%TO.N,Net-(D49-K)*%
X296419300Y-106550000D03*
%TO.P,D49,2,A*%
%TO.N,Row3*%
X296419300Y-103000000D03*
%TD*%
D17*
%TO.P,L46,1,DOUT*%
%TO.N,unconnected-(L46-DOUT-Pad1)*%
X260116700Y-98978900D03*
%TO.P,L46,2,VSS*%
%TO.N,GND*%
X254216700Y-98978900D03*
%TO.P,L46,3,DIN*%
%TO.N,Net-(L45-DOUT)*%
X254216700Y-100478900D03*
%TO.P,L46,4,VDD*%
%TO.N,LEDVCC*%
X260116700Y-100478900D03*
%TD*%
%TO.P,L26,1,DOUT*%
%TO.N,Net-(L26-DOUT)*%
X264879200Y-60878900D03*
%TO.P,L26,2,VSS*%
%TO.N,GND*%
X258979200Y-60878900D03*
%TO.P,L26,3,DIN*%
%TO.N,Net-(L25-DOUT)*%
X258979200Y-62378900D03*
%TO.P,L26,4,VDD*%
%TO.N,LEDVCC*%
X264879200Y-62378900D03*
%TD*%
D18*
%TO.P,D35,1,K*%
%TO.N,Net-(D35-K)*%
X227409400Y-106550000D03*
%TO.P,D35,2,A*%
%TO.N,Row3*%
X227409400Y-103000000D03*
%TD*%
%TO.P,D42,1,K*%
%TO.N,Net-(D42-K)*%
X263128100Y-87500000D03*
%TO.P,D42,2,A*%
%TO.N,Row2*%
X263128100Y-83950000D03*
%TD*%
D17*
%TO.P,L20,1,DOUT*%
%TO.N,Net-(L20-DOUT)*%
X150579200Y-60878900D03*
%TO.P,L20,2,VSS*%
%TO.N,GND*%
X144679200Y-60878900D03*
%TO.P,L20,3,DIN*%
%TO.N,Net-(L19-DOUT)*%
X144679200Y-62378900D03*
%TO.P,L20,4,VDD*%
%TO.N,LEDVCC*%
X150579200Y-62378900D03*
%TD*%
D18*
%TO.P,D8,1,K*%
%TO.N,Row3*%
X63103100Y-103000000D03*
%TO.P,D8,2,A*%
%TO.N,Net-(D8-A)*%
X63103100Y-106550000D03*
%TD*%
%TO.P,D1,1,K*%
%TO.N,Row0*%
X39290600Y-45850000D03*
%TO.P,D1,2,A*%
%TO.N,Net-(D1-A)*%
X39290600Y-49400000D03*
%TD*%
%TO.P,D33,1,K*%
%TO.N,Net-(D33-K)*%
X215503100Y-68450000D03*
%TO.P,D33,2,A*%
%TO.N,Row1*%
X215503100Y-64900000D03*
%TD*%
D17*
%TO.P,L1,1,DOUT*%
%TO.N,Net-(L1-DOUT)*%
X297079200Y-43328900D03*
%TO.P,L1,2,VSS*%
%TO.N,GND*%
X302979200Y-43328900D03*
%TO.P,L1,3,DIN*%
%TO.N,LED*%
X302979200Y-41828900D03*
%TO.P,L1,4,VDD*%
%TO.N,LEDVCC*%
X297079200Y-41828900D03*
%TD*%
D10*
%TO.P,SW42,1,1*%
%TO.N,Col4*%
X278912500Y-88305000D03*
%TO.P,SW42,2,2*%
%TO.N,Net-(D42-K)*%
X265312500Y-90845000D03*
%TD*%
D18*
%TO.P,D2,1,K*%
%TO.N,Row1*%
X41671900Y-64900000D03*
%TO.P,D2,2,A*%
%TO.N,Net-(D2-A)*%
X41671900Y-68450000D03*
%TD*%
%TO.P,D19,1,K*%
%TO.N,Row0*%
X134540600Y-45856300D03*
%TO.P,D19,2,A*%
%TO.N,Net-(D19-A)*%
X134540600Y-49406300D03*
%TD*%
%TO.P,D12,1,K*%
%TO.N,Row3*%
X84534400Y-103000000D03*
%TO.P,D12,2,A*%
%TO.N,Net-(D12-A)*%
X84534400Y-106550000D03*
%TD*%
%TO.P,D29,1,K*%
%TO.N,Net-(D29-K)*%
X191690600Y-49406300D03*
%TO.P,D29,2,A*%
%TO.N,Row0*%
X191690600Y-45856300D03*
%TD*%
%TO.P,D36,1,K*%
%TO.N,Net-(D36-K)*%
X229790600Y-49400000D03*
%TO.P,D36,2,A*%
%TO.N,Row0*%
X229790600Y-45850000D03*
%TD*%
D17*
%TO.P,L22,1,DOUT*%
%TO.N,Net-(L22-DOUT)*%
X188679200Y-60878900D03*
%TO.P,L22,2,VSS*%
%TO.N,GND*%
X182779200Y-60878900D03*
%TO.P,L22,3,DIN*%
%TO.N,Net-(L21-DOUT)*%
X182779200Y-62378900D03*
%TO.P,L22,4,VDD*%
%TO.N,LEDVCC*%
X188679200Y-62378900D03*
%TD*%
D18*
%TO.P,D24,1,K*%
%TO.N,Row1*%
X158353100Y-64900000D03*
%TO.P,D24,2,A*%
%TO.N,Net-(D24-A)*%
X158353100Y-68450000D03*
%TD*%
%TO.P,D20,1,K*%
%TO.N,Row1*%
X139303100Y-64900000D03*
%TO.P,D20,2,A*%
%TO.N,Net-(D20-A)*%
X139303100Y-68450000D03*
%TD*%
D17*
%TO.P,L3,1,DOUT*%
%TO.N,Net-(L3-DOUT)*%
X254216700Y-43328900D03*
%TO.P,L3,2,VSS*%
%TO.N,GND*%
X260116700Y-43328900D03*
%TO.P,L3,3,DIN*%
%TO.N,Net-(L2-DOUT)*%
X260116700Y-41828900D03*
%TO.P,L3,4,VDD*%
%TO.N,LEDVCC*%
X254216700Y-41828900D03*
%TD*%
%TO.P,L19,1,DOUT*%
%TO.N,Net-(L19-DOUT)*%
X131529200Y-60878900D03*
%TO.P,L19,2,VSS*%
%TO.N,GND*%
X125629200Y-60878900D03*
%TO.P,L19,3,DIN*%
%TO.N,Net-(L18-DOUT)*%
X125629200Y-62378900D03*
%TO.P,L19,4,VDD*%
%TO.N,LEDVCC*%
X131529200Y-62378900D03*
%TD*%
%TO.P,L31,1,DOUT*%
%TO.N,Net-(L31-DOUT)*%
X249454200Y-81428900D03*
%TO.P,L31,2,VSS*%
%TO.N,GND*%
X255354200Y-81428900D03*
%TO.P,L31,3,DIN*%
%TO.N,Net-(L30-DOUT)*%
X255354200Y-79928900D03*
%TO.P,L31,4,VDD*%
%TO.N,LEDVCC*%
X249454200Y-79928900D03*
%TD*%
D18*
%TO.P,D28,1,K*%
%TO.N,Net-(D28-K)*%
X186928100Y-87500000D03*
%TO.P,D28,2,A*%
%TO.N,Row2*%
X186928100Y-83950000D03*
%TD*%
D17*
%TO.P,L7,1,DOUT*%
%TO.N,Net-(L7-DOUT)*%
X178016700Y-43328900D03*
%TO.P,L7,2,VSS*%
%TO.N,GND*%
X183916700Y-43328900D03*
%TO.P,L7,3,DIN*%
%TO.N,Net-(L6-DOUT)*%
X183916700Y-41828900D03*
%TO.P,L7,4,VDD*%
%TO.N,LEDVCC*%
X178016700Y-41828900D03*
%TD*%
%TO.P,L12,1,DOUT*%
%TO.N,Net-(L12-DOUT)*%
X82766700Y-43328900D03*
%TO.P,L12,2,VSS*%
%TO.N,GND*%
X88666700Y-43328900D03*
%TO.P,L12,3,DIN*%
%TO.N,Net-(L11-DOUT)*%
X88666700Y-41828900D03*
%TO.P,L12,4,VDD*%
%TO.N,LEDVCC*%
X82766700Y-41828900D03*
%TD*%
D11*
%TO.P,SW43,A,A*%
%TO.N,RE02a*%
X283250000Y-112275000D03*
%TO.P,SW43,B,B*%
%TO.N,RE02b*%
X288250000Y-112275000D03*
%TO.P,SW43,C,C*%
%TO.N,GND*%
X285750000Y-112275000D03*
D12*
%TO.P,SW43,MP*%
%TO.N,N/C*%
X292100000Y-104375000D03*
D13*
X291300000Y-104775000D03*
X280200000Y-104775000D03*
D14*
X279400000Y-104775000D03*
D11*
%TO.P,SW43,S1,S1*%
%TO.N,Net-(D43-K)*%
X283250000Y-97775000D03*
D15*
X279660000Y-109855000D03*
D16*
%TO.P,SW43,S2,S2*%
%TO.N,Col4*%
X293110000Y-107315000D03*
D11*
X288250000Y-97775000D03*
%TD*%
D17*
%TO.P,L27,1,DOUT*%
%TO.N,Net-(L27-DOUT)*%
X283929200Y-60878900D03*
%TO.P,L27,2,VSS*%
%TO.N,GND*%
X278029200Y-60878900D03*
%TO.P,L27,3,DIN*%
%TO.N,Net-(L26-DOUT)*%
X278029200Y-62378900D03*
%TO.P,L27,4,VDD*%
%TO.N,LEDVCC*%
X283929200Y-62378900D03*
%TD*%
%TO.P,L13,1,DOUT*%
%TO.N,Net-(L13-DOUT)*%
X63716700Y-43328900D03*
%TO.P,L13,2,VSS*%
%TO.N,GND*%
X69616700Y-43328900D03*
%TO.P,L13,3,DIN*%
%TO.N,Net-(L12-DOUT)*%
X69616700Y-41828900D03*
%TO.P,L13,4,VDD*%
%TO.N,LEDVCC*%
X63716700Y-41828900D03*
%TD*%
%TO.P,L41,1,DOUT*%
%TO.N,Net-(L41-DOUT)*%
X51810500Y-81428900D03*
%TO.P,L41,2,VSS*%
%TO.N,GND*%
X57710500Y-81428900D03*
%TO.P,L41,3,DIN*%
%TO.N,Net-(L40-DOUT)*%
X57710500Y-79928900D03*
%TO.P,L41,4,VDD*%
%TO.N,LEDVCC*%
X51810500Y-79928900D03*
%TD*%
D18*
%TO.P,D37,1,K*%
%TO.N,Net-(D37-K)*%
X234553100Y-68450000D03*
%TO.P,D37,2,A*%
%TO.N,Row1*%
X234553100Y-64900000D03*
%TD*%
%TO.P,D7,1,K*%
%TO.N,Row2*%
X72628100Y-83950000D03*
%TO.P,D7,2,A*%
%TO.N,Net-(D7-A)*%
X72628100Y-87500000D03*
%TD*%
D17*
%TO.P,L11,1,DOUT*%
%TO.N,Net-(L11-DOUT)*%
X101816700Y-43328900D03*
%TO.P,L11,2,VSS*%
%TO.N,GND*%
X107716700Y-43328900D03*
%TO.P,L11,3,DIN*%
%TO.N,Net-(L10-DOUT)*%
X107716700Y-41828900D03*
%TO.P,L11,4,VDD*%
%TO.N,LEDVCC*%
X101816700Y-41828900D03*
%TD*%
D18*
%TO.P,D41,1,K*%
%TO.N,Net-(D41-K)*%
X253603100Y-68450000D03*
%TO.P,D41,2,A*%
%TO.N,Row1*%
X253603100Y-64900000D03*
%TD*%
D17*
%TO.P,L45,1,DOUT*%
%TO.N,Net-(L45-DOUT)*%
X238685500Y-98978900D03*
%TO.P,L45,2,VSS*%
%TO.N,GND*%
X232785500Y-98978900D03*
%TO.P,L45,3,DIN*%
%TO.N,Net-(L44-DOUT)*%
X232785500Y-100478900D03*
%TO.P,L45,4,VDD*%
%TO.N,LEDVCC*%
X238685500Y-100478900D03*
%TD*%
%TO.P,L14,1,DOUT*%
%TO.N,Net-(L14-DOUT)*%
X44666700Y-43328900D03*
%TO.P,L14,2,VSS*%
%TO.N,GND*%
X50566700Y-43328900D03*
%TO.P,L14,3,DIN*%
%TO.N,Net-(L13-DOUT)*%
X50566700Y-41828900D03*
%TO.P,L14,4,VDD*%
%TO.N,LEDVCC*%
X44666700Y-41828900D03*
%TD*%
D18*
%TO.P,D17,1,K*%
%TO.N,Row1*%
X120253100Y-64900000D03*
%TO.P,D17,2,A*%
%TO.N,Net-(D17-A)*%
X120253100Y-68450000D03*
%TD*%
%TO.P,D45,1,K*%
%TO.N,Net-(D45-K)*%
X272653100Y-68450000D03*
%TO.P,D45,2,A*%
%TO.N,Row1*%
X272653100Y-64900000D03*
%TD*%
D17*
%TO.P,L28,1,DOUT*%
%TO.N,Net-(L28-DOUT)*%
X305360500Y-60878900D03*
%TO.P,L28,2,VSS*%
%TO.N,GND*%
X299460500Y-60878900D03*
%TO.P,L28,3,DIN*%
%TO.N,Net-(L27-DOUT)*%
X299460500Y-62378900D03*
%TO.P,L28,4,VDD*%
%TO.N,LEDVCC*%
X305360500Y-62378900D03*
%TD*%
%TO.P,L21,1,DOUT*%
%TO.N,Net-(L21-DOUT)*%
X169629200Y-60878900D03*
%TO.P,L21,2,VSS*%
%TO.N,GND*%
X163729200Y-60878900D03*
%TO.P,L21,3,DIN*%
%TO.N,Net-(L20-DOUT)*%
X163729200Y-62378900D03*
%TO.P,L21,4,VDD*%
%TO.N,LEDVCC*%
X169629200Y-62378900D03*
%TD*%
D18*
%TO.P,D5,1,K*%
%TO.N,Row0*%
X58340600Y-45850000D03*
%TO.P,D5,2,A*%
%TO.N,Net-(D5-A)*%
X58340600Y-49400000D03*
%TD*%
D17*
%TO.P,L10,1,DOUT*%
%TO.N,Net-(L10-DOUT)*%
X120866700Y-43328900D03*
%TO.P,L10,2,VSS*%
%TO.N,GND*%
X126766700Y-43328900D03*
%TO.P,L10,3,DIN*%
%TO.N,Net-(L10-DIN)*%
X126766700Y-41828900D03*
%TO.P,L10,4,VDD*%
%TO.N,LEDVCC*%
X120866700Y-41828900D03*
%TD*%
%TO.P,L32,1,DOUT*%
%TO.N,Net-(L32-DOUT)*%
X230404200Y-81428900D03*
%TO.P,L32,2,VSS*%
%TO.N,GND*%
X236304200Y-81428900D03*
%TO.P,L32,3,DIN*%
%TO.N,Net-(L31-DOUT)*%
X236304200Y-79928900D03*
%TO.P,L32,4,VDD*%
%TO.N,LEDVCC*%
X230404200Y-79928900D03*
%TD*%
D18*
%TO.P,D38,1,K*%
%TO.N,Net-(D38-K)*%
X244078100Y-87500000D03*
%TO.P,D38,2,A*%
%TO.N,Row2*%
X244078100Y-83950000D03*
%TD*%
%TO.P,D18,1,K*%
%TO.N,Row2*%
X129778100Y-83950000D03*
%TO.P,D18,2,A*%
%TO.N,Net-(D18-A)*%
X129778100Y-87500000D03*
%TD*%
%TO.P,D32,1,K*%
%TO.N,Net-(D32-K)*%
X210740600Y-49400000D03*
%TO.P,D32,2,A*%
%TO.N,Row0*%
X210740600Y-45850000D03*
%TD*%
%TO.P,D44,1,K*%
%TO.N,Net-(D44-K)*%
X267890600Y-49400000D03*
%TO.P,D44,2,A*%
%TO.N,Row0*%
X267890600Y-45850000D03*
%TD*%
%TO.P,D9,1,K*%
%TO.N,Row0*%
X77390600Y-45850000D03*
%TO.P,D9,2,A*%
%TO.N,Net-(D9-A)*%
X77390600Y-49400000D03*
%TD*%
D17*
%TO.P,L33,1,DOUT*%
%TO.N,Net-(L33-DOUT)*%
X211354200Y-81428900D03*
%TO.P,L33,2,VSS*%
%TO.N,GND*%
X217254200Y-81428900D03*
%TO.P,L33,3,DIN*%
%TO.N,Net-(L32-DOUT)*%
X217254200Y-79928900D03*
%TO.P,L33,4,VDD*%
%TO.N,LEDVCC*%
X211354200Y-79928900D03*
%TD*%
%TO.P,L30,1,DOUT*%
%TO.N,Net-(L30-DOUT)*%
X268504200Y-81428900D03*
%TO.P,L30,2,VSS*%
%TO.N,GND*%
X274404200Y-81428900D03*
%TO.P,L30,3,DIN*%
%TO.N,Net-(L29-DOUT)*%
X274404200Y-79928900D03*
%TO.P,L30,4,VDD*%
%TO.N,LEDVCC*%
X268504200Y-79928900D03*
%TD*%
D18*
%TO.P,D40,1,K*%
%TO.N,Net-(D40-K)*%
X248840600Y-49400000D03*
%TO.P,D40,2,A*%
%TO.N,Row0*%
X248840600Y-45850000D03*
%TD*%
%TO.P,D25,1,K*%
%TO.N,Row2*%
X167878100Y-83950000D03*
%TO.P,D25,2,A*%
%TO.N,Net-(D25-A)*%
X167878100Y-87500000D03*
%TD*%
D10*
%TO.P,SW47,1,1*%
%TO.N,Col6*%
X309868800Y-69255000D03*
%TO.P,SW47,2,2*%
%TO.N,Net-(D47-K)*%
X296268800Y-71795000D03*
%TD*%
D18*
%TO.P,D23,1,K*%
%TO.N,Row0*%
X153590600Y-45850000D03*
%TO.P,D23,2,A*%
%TO.N,Net-(D23-A)*%
X153590600Y-49400000D03*
%TD*%
D17*
%TO.P,L4,1,DOUT*%
%TO.N,Net-(L4-DOUT)*%
X235166700Y-43328900D03*
%TO.P,L4,2,VSS*%
%TO.N,GND*%
X241066700Y-43328900D03*
%TO.P,L4,3,DIN*%
%TO.N,Net-(L3-DOUT)*%
X241066700Y-41828900D03*
%TO.P,L4,4,VDD*%
%TO.N,LEDVCC*%
X235166700Y-41828900D03*
%TD*%
D18*
%TO.P,D0,1,K*%
%TO.N,LEDVCC*%
X319181200Y-30145100D03*
%TO.P,D0,2,A*%
%TO.N,VCC*%
X319181200Y-26595100D03*
%TD*%
D17*
%TO.P,L34,1,DOUT*%
%TO.N,Net-(L34-DOUT)*%
X192304200Y-81428900D03*
%TO.P,L34,2,VSS*%
%TO.N,GND*%
X198204200Y-81428900D03*
%TO.P,L34,3,DIN*%
%TO.N,Net-(L33-DOUT)*%
X198204200Y-79928900D03*
%TO.P,L34,4,VDD*%
%TO.N,LEDVCC*%
X192304200Y-79928900D03*
%TD*%
D18*
%TO.P,D13,1,K*%
%TO.N,Row0*%
X96440600Y-45850000D03*
%TO.P,D13,2,A*%
%TO.N,Net-(D13-A)*%
X96440600Y-49400000D03*
%TD*%
D17*
%TO.P,L35,1,DOUT*%
%TO.N,Net-(L35-DOUT)*%
X173254200Y-81428900D03*
%TO.P,L35,2,VSS*%
%TO.N,GND*%
X179154200Y-81428900D03*
%TO.P,L35,3,DIN*%
%TO.N,Net-(L34-DOUT)*%
X179154200Y-79928900D03*
%TO.P,L35,4,VDD*%
%TO.N,LEDVCC*%
X173254200Y-79928900D03*
%TD*%
%TO.P,L18,1,DOUT*%
%TO.N,Net-(L18-DOUT)*%
X112479200Y-60878900D03*
%TO.P,L18,2,VSS*%
%TO.N,GND*%
X106579200Y-60878900D03*
%TO.P,L18,3,DIN*%
%TO.N,Net-(L17-DOUT)*%
X106579200Y-62378900D03*
%TO.P,L18,4,VDD*%
%TO.N,LEDVCC*%
X112479200Y-62378900D03*
%TD*%
D18*
%TO.P,D22,1,K*%
%TO.N,Row3*%
X155971900Y-103000000D03*
%TO.P,D22,2,A*%
%TO.N,Net-(D22-A)*%
X155971900Y-106550000D03*
%TD*%
D17*
%TO.P,L38,1,DOUT*%
%TO.N,Net-(L38-DOUT)*%
X116104200Y-81428900D03*
%TO.P,L38,2,VSS*%
%TO.N,GND*%
X122004200Y-81428900D03*
%TO.P,L38,3,DIN*%
%TO.N,Net-(L37-DOUT)*%
X122004200Y-79928900D03*
%TO.P,L38,4,VDD*%
%TO.N,LEDVCC*%
X116104200Y-79928900D03*
%TD*%
%TO.P,L44,1,DOUT*%
%TO.N,Net-(L44-DOUT)*%
X167248000Y-98978900D03*
%TO.P,L44,2,VSS*%
%TO.N,GND*%
X161348000Y-98978900D03*
%TO.P,L44,3,DIN*%
%TO.N,Net-(L43-DOUT)*%
X161348000Y-100478900D03*
%TO.P,L44,4,VDD*%
%TO.N,LEDVCC*%
X167248000Y-100478900D03*
%TD*%
%TO.P,L37,1,DOUT*%
%TO.N,Net-(L37-DOUT)*%
X135154200Y-81428900D03*
%TO.P,L37,2,VSS*%
%TO.N,GND*%
X141054200Y-81428900D03*
%TO.P,L37,3,DIN*%
%TO.N,Net-(L36-DOUT)*%
X141054200Y-79928900D03*
%TO.P,L37,4,VDD*%
%TO.N,LEDVCC*%
X135154200Y-79928900D03*
%TD*%
%TO.P,L40,1,DOUT*%
%TO.N,Net-(L40-DOUT)*%
X78004200Y-81428900D03*
%TO.P,L40,2,VSS*%
%TO.N,GND*%
X83904200Y-81428900D03*
%TO.P,L40,3,DIN*%
%TO.N,Net-(L39-DOUT)*%
X83904200Y-79928900D03*
%TO.P,L40,4,VDD*%
%TO.N,LEDVCC*%
X78004200Y-79928900D03*
%TD*%
%TO.P,L39,1,DOUT*%
%TO.N,Net-(L39-DOUT)*%
X97054200Y-81428900D03*
%TO.P,L39,2,VSS*%
%TO.N,GND*%
X102954200Y-81428900D03*
%TO.P,L39,3,DIN*%
%TO.N,Net-(L38-DOUT)*%
X102954200Y-79928900D03*
%TO.P,L39,4,VDD*%
%TO.N,LEDVCC*%
X97054200Y-79928900D03*
%TD*%
D18*
%TO.P,D34,1,K*%
%TO.N,Net-(D34-K)*%
X225028100Y-87500000D03*
%TO.P,D34,2,A*%
%TO.N,Row2*%
X225028100Y-83950000D03*
%TD*%
D17*
%TO.P,L23,1,DOUT*%
%TO.N,Net-(L23-DOUT)*%
X207729200Y-60878900D03*
%TO.P,L23,2,VSS*%
%TO.N,GND*%
X201829200Y-60878900D03*
%TO.P,L23,3,DIN*%
%TO.N,Net-(L22-DOUT)*%
X201829200Y-62378900D03*
%TO.P,L23,4,VDD*%
%TO.N,LEDVCC*%
X207729200Y-62378900D03*
%TD*%
D18*
%TO.P,D39,1,K*%
%TO.N,Net-(D39-K)*%
X248840600Y-106550000D03*
%TO.P,D39,2,A*%
%TO.N,Row3*%
X248840600Y-103000000D03*
%TD*%
%TO.P,D48,1,K*%
%TO.N,Net-(D48-K)*%
X289321900Y-87500000D03*
%TO.P,D48,2,A*%
%TO.N,Row2*%
X289321900Y-83950000D03*
%TD*%
D17*
%TO.P,L25,1,DOUT*%
%TO.N,Net-(L25-DOUT)*%
X245829200Y-60878900D03*
%TO.P,L25,2,VSS*%
%TO.N,GND*%
X239929200Y-60878900D03*
%TO.P,L25,3,DIN*%
%TO.N,Net-(L24-DOUT)*%
X239929200Y-62378900D03*
%TO.P,L25,4,VDD*%
%TO.N,LEDVCC*%
X245829200Y-62378900D03*
%TD*%
D18*
%TO.P,D6,1,K*%
%TO.N,Row1*%
X63103100Y-64900000D03*
%TO.P,D6,2,A*%
%TO.N,Net-(D6-A)*%
X63103100Y-68450000D03*
%TD*%
D17*
%TO.P,L15,1,DOUT*%
%TO.N,Net-(L15-DOUT)*%
X52948000Y-60878900D03*
%TO.P,L15,2,VSS*%
%TO.N,GND*%
X47048000Y-60878900D03*
%TO.P,L15,3,DIN*%
%TO.N,Net-(L14-DOUT)*%
X47048000Y-62378900D03*
%TO.P,L15,4,VDD*%
%TO.N,LEDVCC*%
X52948000Y-62378900D03*
%TD*%
%TO.P,L2,1,DOUT*%
%TO.N,Net-(L2-DOUT)*%
X273266700Y-43328900D03*
%TO.P,L2,2,VSS*%
%TO.N,GND*%
X279166700Y-43328900D03*
%TO.P,L2,3,DIN*%
%TO.N,Net-(L1-DOUT)*%
X279166700Y-41828900D03*
%TO.P,L2,4,VDD*%
%TO.N,LEDVCC*%
X273266700Y-41828900D03*
%TD*%
D18*
%TO.P,D30,1,K*%
%TO.N,Net-(D30-K)*%
X196453100Y-68450000D03*
%TO.P,D30,2,A*%
%TO.N,Row1*%
X196453100Y-64900000D03*
%TD*%
%TO.P,D27,1,K*%
%TO.N,Net-(D27-K)*%
X177403100Y-68450000D03*
%TO.P,D27,2,A*%
%TO.N,Row1*%
X177403100Y-64900000D03*
%TD*%
D20*
%TO.N,VCC*%
X319071051Y-22001015D03*
%TO.N,LEDVCC*%
X252563814Y-62351337D03*
X52487851Y-63955076D03*
X233406495Y-62355006D03*
X166891251Y-92723876D03*
X229985051Y-62365591D03*
X113443521Y-75552738D03*
X319087711Y-40250026D03*
X77105223Y-95888071D03*
X292646651Y-64984076D03*
X102046582Y-95883262D03*
X195406371Y-77279978D03*
X297327152Y-40228447D03*
X61194639Y-75617557D03*
X242632331Y-100443894D03*
X81101772Y-58726892D03*
X78085759Y-75593378D03*
X173453569Y-77282847D03*
X308214251Y-59030593D03*
X172157434Y-94536051D03*
X61190951Y-63955076D03*
X273506551Y-40181418D03*
X269852927Y-59030593D03*
X115434454Y-62379743D03*
X138291062Y-75593378D03*
X262944567Y-97221554D03*
X286880446Y-59025000D03*
X93416070Y-75616032D03*
X96493851Y-62357740D03*
X138277939Y-62339676D03*
%TO.N,Row0*%
X60394451Y-44450876D03*
X99104798Y-44500301D03*
X79855640Y-44584681D03*
X213806467Y-45024524D03*
X42479651Y-44450876D03*
X137621171Y-44136756D03*
X270756300Y-45024524D03*
X248738007Y-42794240D03*
X194756300Y-45025000D03*
X291759756Y-43148085D03*
X117725155Y-44316983D03*
X175138345Y-45835834D03*
X232543004Y-45024524D03*
X156372149Y-44840834D03*
%TO.N,Row1*%
X300400351Y-56505467D03*
X99362051Y-63854875D03*
X41556154Y-58963067D03*
X158283826Y-56206099D03*
X120110098Y-56227256D03*
X256706111Y-63865334D03*
X85756300Y-63856345D03*
X293915145Y-56533104D03*
X199284539Y-63925328D03*
X177292951Y-59298613D03*
X275578601Y-63861983D03*
X177306038Y-56222695D03*
X120123672Y-59393176D03*
X62810049Y-61893645D03*
X64884306Y-64859247D03*
X308925949Y-30883018D03*
X218409051Y-63921187D03*
X139191877Y-56225819D03*
X237564315Y-63914399D03*
X293899203Y-60558029D03*
%TO.N,Row2*%
X246061908Y-82980599D03*
X131754573Y-83017952D03*
X91684521Y-81006874D03*
X265174151Y-82173825D03*
X290309827Y-75660476D03*
X46477779Y-80068176D03*
X170506300Y-83025000D03*
X229370078Y-82980599D03*
X186915907Y-80541847D03*
X312500831Y-66709617D03*
X110626391Y-78421462D03*
X208756300Y-83046274D03*
X146082700Y-83025000D03*
X72751233Y-78421462D03*
%TO.N,Row3*%
X247756300Y-114775000D03*
X62258651Y-99660476D03*
X39180451Y-99660476D03*
X314563319Y-99653295D03*
X82756300Y-114025000D03*
X274984838Y-99674751D03*
X296272651Y-99660476D03*
X153523141Y-109336429D03*
X224256300Y-108525000D03*
%TO.N,LED*%
X303877384Y-27791810D03*
%TO.N,Net-(L1-DOUT)*%
X284033690Y-41797620D03*
X294562451Y-43198952D03*
%TO.N,GND*%
X183118940Y-77982847D03*
X286180446Y-55140756D03*
X240279200Y-57414096D03*
X107457870Y-77306206D03*
X223977966Y-81406132D03*
X201956001Y-81410007D03*
X183006300Y-57407233D03*
X89704093Y-96588071D03*
X262059309Y-81391760D03*
X164159859Y-77983043D03*
X202070264Y-57412946D03*
X303604944Y-78314405D03*
X169717769Y-43317128D03*
X228744271Y-57412946D03*
X152506235Y-57406035D03*
X188006300Y-43275000D03*
X220530577Y-81415833D03*
X163990122Y-57406035D03*
X119205857Y-61679743D03*
X68256300Y-96588071D03*
X68256300Y-102025000D03*
X272386251Y-96322476D03*
X144911411Y-57406962D03*
X277701072Y-78320076D03*
X215660306Y-57412946D03*
X299711342Y-55138280D03*
X190659717Y-57412946D03*
X123878652Y-58869450D03*
X254456551Y-96322476D03*
X124278962Y-77307954D03*
%TO.N,Net-(L7-DOUT)*%
X173141941Y-41823043D03*
X168664594Y-41823043D03*
%TO.N,Net-(L15-DOUT)*%
X64680183Y-62350512D03*
X55916351Y-60873217D03*
%TO.N,Net-(L16-DOUT)*%
X78582624Y-60858808D03*
X83158529Y-60844728D03*
%TO.N,Net-(L18-DOUT)*%
X115448961Y-60902536D03*
X122349892Y-60920784D03*
%TO.N,Net-(L19-DOUT)*%
X141096494Y-60829478D03*
X135459383Y-60844551D03*
%TO.N,Net-(L20-DOUT)*%
X153976131Y-60849214D03*
X160112895Y-62284946D03*
%TO.N,Net-(L21-DOUT)*%
X179485873Y-55612300D03*
X170095813Y-55612300D03*
%TO.N,Net-(L26-DOUT)*%
X268870443Y-60903401D03*
X273189655Y-60888132D03*
%TO.N,Net-(L27-DOUT)*%
X283473083Y-57938183D03*
X294730214Y-57969112D03*
%TO.N,Net-(L28-DOUT)*%
X310362178Y-64088760D03*
X297441051Y-64099476D03*
%TO.N,Net-(L29-DOUT)*%
X279075509Y-81424463D03*
X291330473Y-81399730D03*
%TO.N,Net-(L30-DOUT)*%
X260198665Y-79902381D03*
X265955680Y-82773825D03*
%TO.N,Net-(L34-DOUT)*%
X190302727Y-75736283D03*
X178706491Y-75733095D03*
%TO.N,Net-(L35-DOUT)*%
X170710151Y-81300876D03*
X163459859Y-79976711D03*
%TO.N,Net-(L37-DOUT)*%
X133397551Y-76515387D03*
X117133961Y-76530553D03*
%TO.N,Net-(L38-DOUT)*%
X112491638Y-79861259D03*
X106655095Y-79911358D03*
%TO.N,Net-(L40-DOUT)*%
X57265149Y-77531976D03*
X75313951Y-77531976D03*
%TO.N,Net-(L42-DOUT)*%
X73939065Y-95160380D03*
X83006300Y-95187475D03*
%TO.N,Net-(L43-DOUT)*%
X99222234Y-98937412D03*
X155954536Y-100449198D03*
%TO.N,Net-(L44-DOUT)*%
X227637286Y-100449081D03*
X171056300Y-98939676D03*
%TO.N,Col0*%
X194397810Y-59958005D03*
X60394451Y-63213876D03*
X188728051Y-43989676D03*
X194431428Y-64071356D03*
%TO.N,RE01a*%
X37137318Y-31528228D03*
%TO.N,RE01b*%
X316624719Y-115528932D03*
%TO.N,Col1*%
X212570550Y-76579978D03*
X70281139Y-94560380D03*
X74552261Y-58306077D03*
X291761404Y-74964187D03*
X87771446Y-94587475D03*
X78340428Y-63908627D03*
X212596915Y-59306562D03*
X212578251Y-62965476D03*
X78327351Y-74641469D03*
X223030990Y-80523203D03*
%TO.N,Col2*%
X98751487Y-65819083D03*
X242643367Y-102001751D03*
X226950589Y-58270183D03*
X226780751Y-43825076D03*
X240252351Y-95221953D03*
X230656251Y-75550876D03*
X240252351Y-82015476D03*
X92616782Y-55152532D03*
X230584724Y-58276570D03*
%TO.N,Col3*%
X113869363Y-83042551D03*
X249567423Y-63271984D03*
X251035951Y-76503850D03*
X246558925Y-55025000D03*
X125958804Y-82958691D03*
X116440674Y-57586441D03*
X111675103Y-55022163D03*
X290709981Y-56506035D03*
X259302351Y-82338076D03*
%TO.N,Col4*%
X310298851Y-54506439D03*
X269400451Y-73743855D03*
X135477351Y-73767476D03*
X264067876Y-55904807D03*
X270466618Y-55915974D03*
%TO.N,Col5*%
X287324168Y-74343855D03*
X155786011Y-58869450D03*
X283114851Y-54146658D03*
X151515251Y-58869450D03*
X153869712Y-74367476D03*
X165003235Y-75822778D03*
X287615533Y-39220347D03*
X287613251Y-54147297D03*
%TO.N,Col6*%
X313621692Y-46758185D03*
X306923751Y-46758185D03*
X183230601Y-93721885D03*
%TO.N,RE02a*%
X321356006Y-114600713D03*
%TO.N,RE03b*%
X315530159Y-112274753D03*
%TD*%
D21*
%TO.N,VCC*%
X319071051Y-22001015D02*
X319071051Y-26555876D01*
%TO.N,LEDVCC*%
X251786007Y-77279978D02*
X250257227Y-77279978D01*
X297319051Y-41789676D02*
X297319051Y-40248005D01*
X178366700Y-41828900D02*
X175273934Y-41828900D01*
X232945498Y-41789676D02*
X235406551Y-41789676D01*
X77105223Y-95888071D02*
X77105223Y-99877810D01*
X197306551Y-41789676D02*
X197306551Y-39918818D01*
X207269051Y-62339676D02*
X207269051Y-62263776D01*
X273506551Y-40181418D02*
X286318401Y-40181418D01*
X83568788Y-39361116D02*
X98878343Y-39361116D01*
X229985051Y-62365591D02*
X229959136Y-62339676D01*
X178366700Y-41828900D02*
X178366700Y-39909939D01*
X81101772Y-58726892D02*
X81101772Y-61574383D01*
X71206188Y-76154088D02*
X71206188Y-92922378D01*
X247006300Y-79367808D02*
X247006300Y-77844368D01*
X150229200Y-62378900D02*
X150229200Y-63450655D01*
X215192118Y-77279959D02*
X213702639Y-77279959D01*
X262950451Y-99879060D02*
X262950451Y-97221554D01*
X195406371Y-77279978D02*
X193106585Y-77279978D01*
X61297944Y-41273650D02*
X61297944Y-39918816D01*
X211704200Y-79928900D02*
X209431923Y-79928900D01*
X52050351Y-76181905D02*
X52050351Y-79889676D01*
X135956191Y-75593378D02*
X138291062Y-75593378D01*
X81101772Y-61574383D02*
X81101782Y-61574393D01*
X140156551Y-41789676D02*
X140156551Y-39925072D01*
X214268073Y-41828900D02*
X216466700Y-41828900D01*
X154554200Y-79928900D02*
X154554200Y-75686494D01*
X114006042Y-79889676D02*
X116344051Y-79889676D01*
X154951423Y-55444372D02*
X154951423Y-61776695D01*
X97404200Y-79928900D02*
X93979130Y-79928900D01*
X173564976Y-79889676D02*
X167455159Y-79889676D01*
X80006300Y-41275000D02*
X80006300Y-39922400D01*
X246441880Y-77279976D02*
X234169423Y-77279976D01*
X113443521Y-75552738D02*
X113443521Y-79327155D01*
X45468695Y-39361116D02*
X60740244Y-39361116D01*
X252563814Y-76500340D02*
X252563814Y-76502171D01*
X64511699Y-39361116D02*
X79445016Y-39361116D01*
X283469051Y-62339676D02*
X284167351Y-62339676D01*
X44906551Y-39923251D02*
X44906561Y-39923241D01*
X166891251Y-80453584D02*
X166891251Y-92723876D01*
X236077417Y-39353994D02*
X250941108Y-39353994D01*
X214446520Y-62826600D02*
X214446520Y-76534347D01*
X259656551Y-100439676D02*
X262389835Y-100439676D01*
X173453569Y-77282847D02*
X173453569Y-79778269D01*
X238225351Y-100439676D02*
X242628113Y-100439676D01*
X138277939Y-62339676D02*
X138277939Y-65958397D01*
X213702620Y-77279978D02*
X212162060Y-77279978D01*
X232625877Y-77279978D02*
X231312939Y-77279978D01*
X192544051Y-77842512D02*
X192544051Y-79928900D01*
X232386053Y-39913355D02*
X232386053Y-41230231D01*
X249804200Y-79928900D02*
X247567392Y-79928900D01*
X81101782Y-61574393D02*
X81101782Y-63126266D01*
X80321947Y-62354250D02*
X80329746Y-62354250D01*
X138291062Y-75593378D02*
X151442324Y-75593378D01*
X73919051Y-62339676D02*
X73919051Y-62354250D01*
X216912581Y-39353994D02*
X231826692Y-39353994D01*
X81101772Y-75034673D02*
X81101772Y-63126276D01*
X286880446Y-40743463D02*
X286880446Y-59025000D01*
X78085759Y-75593378D02*
X80543067Y-75593378D01*
X154388442Y-62339676D02*
X150119051Y-62339676D01*
X174149750Y-39334223D02*
X159878536Y-39334223D01*
X140720507Y-39361116D02*
X151756300Y-39361116D01*
X232625879Y-77279976D02*
X232625877Y-77279978D01*
X83006551Y-41789676D02*
X83006551Y-39923353D01*
X102619583Y-39361116D02*
X117447990Y-39361116D01*
X61190951Y-63955076D02*
X61190951Y-75613869D01*
X121106551Y-39912840D02*
X121106551Y-41789676D01*
X215192137Y-77279978D02*
X215192118Y-77279959D01*
X252563814Y-62351337D02*
X252563814Y-76500340D01*
X174711916Y-41266882D02*
X174711916Y-39896389D01*
X211594051Y-77847987D02*
X211594051Y-79889676D01*
X159316700Y-39896059D02*
X159316700Y-41828900D01*
X78085759Y-75593378D02*
X71766898Y-75593378D01*
X99441256Y-41264508D02*
X99441256Y-39924029D01*
X171661583Y-61778213D02*
X171661583Y-55445104D01*
X249694051Y-77843154D02*
X249694051Y-79889676D01*
X194696394Y-41265500D02*
X194696394Y-39909538D01*
X121658275Y-39361116D02*
X136865013Y-39361116D01*
X293208613Y-79889676D02*
X294937851Y-79889676D01*
X245369051Y-62339676D02*
X252563814Y-62339676D01*
X292646651Y-64984076D02*
X292646651Y-79327714D01*
X273506551Y-40181418D02*
X273506551Y-40537976D01*
X234169423Y-77279976D02*
X232625879Y-77279976D01*
X195406371Y-77279978D02*
X208311006Y-77279978D01*
X230754200Y-77838717D02*
X230754200Y-79928900D01*
X76543357Y-100439676D02*
X73919051Y-100439676D01*
X246441888Y-77279968D02*
X246441880Y-77279976D01*
X188329200Y-62275000D02*
X194842594Y-62275000D01*
X52487851Y-62339676D02*
X52487851Y-63955076D01*
X268744051Y-79889676D02*
X263719094Y-79889676D01*
X208872158Y-79369135D02*
X208872158Y-77841130D01*
X134524051Y-62339676D02*
X138277939Y-62339676D01*
X137428147Y-39924250D02*
X137428147Y-41266675D01*
X197871375Y-39353994D02*
X213139690Y-39353994D01*
X195406340Y-62838746D02*
X195406340Y-77279947D01*
X102056551Y-41789676D02*
X102056551Y-39924148D01*
X254566700Y-40745325D02*
X254566700Y-41828900D01*
X171099187Y-54882708D02*
X155513087Y-54882708D01*
X137990372Y-41828900D02*
X140266700Y-41828900D01*
X102006300Y-95923544D02*
X102006300Y-99879205D01*
X269290379Y-62339676D02*
X264419051Y-62339676D01*
X64066700Y-41828900D02*
X61853194Y-41828900D01*
X233397651Y-62355006D02*
X233397651Y-76508204D01*
X304900351Y-62339676D02*
X307653269Y-62339676D01*
X214446520Y-76534347D02*
X214446520Y-76536078D01*
X139064286Y-66744782D02*
X140587596Y-66744782D01*
X167453677Y-77282847D02*
X173453569Y-77282847D01*
X121216700Y-41828900D02*
X118562855Y-41828900D01*
X77105223Y-94048827D02*
X77105223Y-95888071D01*
X263155151Y-79325733D02*
X263155151Y-77843855D01*
X284167351Y-62339676D02*
X286320534Y-62339676D01*
X101445829Y-100439676D02*
X95350351Y-100439676D01*
X152571920Y-79928900D02*
X154554200Y-79928900D01*
X169169051Y-62339676D02*
X171100120Y-62339676D01*
X166891251Y-75684871D02*
X166891251Y-76720421D01*
X251786016Y-77279969D02*
X251786007Y-77279978D01*
X115434454Y-62379743D02*
X112059118Y-62379743D01*
X172157434Y-94536051D02*
X172157434Y-99915692D01*
X235516700Y-41828900D02*
X235516700Y-39914711D01*
X286880446Y-61779764D02*
X286880446Y-59025000D01*
X194136032Y-39349176D02*
X178927463Y-39349176D01*
X156459852Y-41828900D02*
X159316700Y-41828900D01*
X155117916Y-75122778D02*
X166329158Y-75122778D01*
X230754200Y-79928900D02*
X227888426Y-79928900D01*
X61194639Y-75617557D02*
X52614699Y-75617557D01*
X71770181Y-93486371D02*
X76542767Y-93486371D01*
X273506551Y-40181418D02*
X255130607Y-40181418D01*
X135394051Y-79889676D02*
X135394051Y-76155518D01*
X131069051Y-62339676D02*
X134524051Y-62339676D01*
X262950451Y-97221554D02*
X262944567Y-97221554D01*
X138277939Y-75580255D02*
X138277939Y-67503665D01*
X138277939Y-67503665D02*
X138277939Y-65958397D01*
X102166700Y-41828900D02*
X100005648Y-41828900D01*
X207269051Y-62263776D02*
X213883696Y-62263776D01*
X251506300Y-39919186D02*
X251506300Y-41269506D01*
X96493851Y-62357740D02*
X92987115Y-62357740D01*
X73919051Y-62354250D02*
X80321947Y-62354250D01*
X253343442Y-77279978D02*
X253343433Y-77279969D01*
X155896120Y-39923229D02*
X155896155Y-41265218D01*
X171594226Y-100478900D02*
X166898000Y-100478900D01*
X229959136Y-62339676D02*
X226319051Y-62339676D01*
X252563814Y-62339676D02*
X252563814Y-62351337D01*
X227330376Y-79370836D02*
X227330415Y-77842436D01*
X138277939Y-65958397D02*
X138277927Y-65958409D01*
X93416070Y-75616032D02*
X93416070Y-79365840D01*
X319071051Y-30105876D02*
X319071051Y-40233366D01*
X213702639Y-77279959D02*
X213702620Y-77279978D01*
X197416700Y-41828900D02*
X195259794Y-41828900D01*
X216356551Y-41789676D02*
X216356551Y-39910085D01*
X151756300Y-39361116D02*
X155333992Y-39361116D01*
X233406495Y-62355006D02*
X233397651Y-62355006D01*
X308214251Y-61778694D02*
X308214251Y-59030593D01*
X262591274Y-77279978D02*
X253343442Y-77279978D01*
X188329200Y-62378900D02*
X188329200Y-62275000D01*
X78087682Y-79928900D02*
X78354200Y-79928900D01*
X269852927Y-59030593D02*
X269852927Y-61777128D01*
X195406340Y-77279947D02*
X195406371Y-77279978D01*
X273506551Y-40537976D02*
X273506551Y-41789676D01*
X81101782Y-63126266D02*
X81101772Y-63126276D01*
X63956551Y-41789676D02*
X63956551Y-39916264D01*
X213704596Y-39918900D02*
X213704596Y-41265423D01*
X253343433Y-77279969D02*
X251786016Y-77279969D01*
X319071051Y-40233366D02*
X319087711Y-40250026D01*
X152005313Y-76156367D02*
X152005313Y-79362293D01*
X226767971Y-77279978D02*
X215192137Y-77279978D01*
X44906551Y-41789676D02*
X44906551Y-39923251D01*
X216356551Y-39910085D02*
X216356534Y-39910068D01*
X78087682Y-75595301D02*
X78087682Y-79928900D01*
X118006300Y-41272345D02*
X118006300Y-39919426D01*
X102046582Y-95883262D02*
X102006300Y-95923544D01*
X138291062Y-75593378D02*
X138277939Y-75580255D01*
X252065694Y-41828900D02*
X254566700Y-41828900D01*
X192544051Y-79928900D02*
X192654200Y-79928900D01*
X140892833Y-64774612D02*
X140892833Y-66439545D01*
X149666569Y-64013286D02*
X141654159Y-64013286D01*
X83116700Y-41828900D02*
X80560200Y-41828900D01*
X233397651Y-76508204D02*
G75*
G02*
X232625879Y-77279951I-771751J4D01*
G01*
X154554200Y-75686494D02*
G75*
G02*
X155117916Y-75122800I563700J-6D01*
G01*
X166891251Y-76720421D02*
G75*
G03*
X167453677Y-77282849I562449J21D01*
G01*
X216356534Y-39910068D02*
G75*
G02*
X216912581Y-39353934I556066J68D01*
G01*
X174711916Y-39896389D02*
G75*
G03*
X174149750Y-39334184I-562216J-11D01*
G01*
X212162060Y-77279978D02*
G75*
G03*
X211594078Y-77847987I40J-568022D01*
G01*
X52614699Y-75617557D02*
G75*
G03*
X52050357Y-76181905I1J-564343D01*
G01*
X247006300Y-77844368D02*
G75*
G03*
X246441888Y-77280000I-564400J-32D01*
G01*
X152005313Y-79362293D02*
G75*
G03*
X152571920Y-79928887I566587J-7D01*
G01*
X253343433Y-77279969D02*
G75*
G02*
X252563731Y-76500340I-33J779669D01*
G01*
X247567392Y-79928900D02*
G75*
G02*
X247006300Y-79367808I8J561100D01*
G01*
X150229200Y-63450655D02*
G75*
G02*
X149666569Y-64013300I-562600J-45D01*
G01*
X178347331Y-41809531D02*
G75*
G02*
X178366669Y-41828900I-31J-19369D01*
G01*
X81101782Y-61574393D02*
G75*
G02*
X80321947Y-62354282I-779882J-7D01*
G01*
X195259794Y-41828900D02*
G75*
G02*
X194696400Y-41265500I6J563400D01*
G01*
X92987115Y-62357740D02*
G75*
G02*
X92969060Y-62339676I-15J18040D01*
G01*
X135394051Y-76155518D02*
G75*
G02*
X135956191Y-75593351I562149J18D01*
G01*
X263719094Y-79889676D02*
G75*
G02*
X263155124Y-79325733I6J563976D01*
G01*
X250257227Y-77279978D02*
G75*
G03*
X249693978Y-77843154I-27J-563222D01*
G01*
X80543067Y-75593378D02*
G75*
G03*
X81101778Y-75034673I33J558678D01*
G01*
X113443521Y-79327155D02*
G75*
G03*
X114006042Y-79889679I562479J-45D01*
G01*
X213883696Y-62263776D02*
G75*
G02*
X214446524Y-62826600I4J-562824D01*
G01*
X286320534Y-62339676D02*
G75*
G03*
X286880376Y-61779764I-34J559876D01*
G01*
X167455159Y-79889676D02*
G75*
G03*
X166891276Y-80453584I41J-563924D01*
G01*
X173453569Y-79778269D02*
G75*
G03*
X173604200Y-79928931I150631J-31D01*
G01*
X140892833Y-66439545D02*
G75*
G02*
X140587596Y-66744733I-305233J45D01*
G01*
X80329746Y-62354250D02*
G75*
G02*
X81101750Y-63126276I-46J-772050D01*
G01*
X151442324Y-75593378D02*
G75*
G02*
X152005322Y-76156367I-24J-563022D01*
G01*
X231312939Y-77279978D02*
G75*
G03*
X230754178Y-77838717I-39J-558722D01*
G01*
X242628113Y-100439676D02*
G75*
G02*
X242632324Y-100443894I-13J-4224D01*
G01*
X71766898Y-75593378D02*
G75*
G03*
X71206178Y-76154088I2J-560722D01*
G01*
X139036822Y-66744782D02*
G75*
G03*
X138277882Y-67503665I-22J-758918D01*
G01*
X136865013Y-39361116D02*
G75*
G02*
X137428084Y-39924250I-13J-563084D01*
G01*
X99441256Y-39924029D02*
G75*
G03*
X98878343Y-39361044I-562956J29D01*
G01*
X178366700Y-39909939D02*
G75*
G02*
X178927463Y-39349100I560800J39D01*
G01*
X141654159Y-64013286D02*
G75*
G03*
X140892886Y-64774612I41J-761314D01*
G01*
X197306551Y-39918818D02*
G75*
G02*
X197871375Y-39353951I564849J18D01*
G01*
X140156551Y-39925072D02*
G75*
G02*
X140720507Y-39361151I563949J-28D01*
G01*
X194842594Y-62275000D02*
G75*
G02*
X195406300Y-62838746I6J-563700D01*
G01*
X213139690Y-39353994D02*
G75*
G02*
X213704606Y-39918900I10J-564906D01*
G01*
X61297944Y-39918816D02*
G75*
G03*
X60740244Y-39361056I-557744J16D01*
G01*
X273552793Y-40200572D02*
G75*
G02*
X273506560Y-40181409I7J65372D01*
G01*
X194696394Y-39909538D02*
G75*
G03*
X194136032Y-39349106I-560394J38D01*
G01*
X118562855Y-41828900D02*
G75*
G02*
X118006300Y-41272345I45J556600D01*
G01*
X175273934Y-41828900D02*
G75*
G02*
X174711900Y-41266882I-34J562000D01*
G01*
X76542767Y-93486371D02*
G75*
G02*
X77105229Y-94048827I33J-562429D01*
G01*
X80560200Y-41828900D02*
G75*
G02*
X80006300Y-41275000I0J553900D01*
G01*
X252506300Y-62408851D02*
G75*
G02*
X252563814Y-62351300I57500J51D01*
G01*
X155513087Y-54882708D02*
G75*
G03*
X154951408Y-55444372I13J-561692D01*
G01*
X171100120Y-62339676D02*
G75*
G03*
X171661576Y-61778213I-20J561476D01*
G01*
X80006300Y-39922400D02*
G75*
G03*
X79445016Y-39361100I-561300J0D01*
G01*
X77105223Y-99877810D02*
G75*
G02*
X76543357Y-100439623I-561823J10D01*
G01*
X137428147Y-41266675D02*
G75*
G03*
X137990372Y-41828953I562253J-25D01*
G01*
X231826692Y-39353994D02*
G75*
G02*
X232386106Y-39913355I8J-559406D01*
G01*
X269852927Y-61777128D02*
G75*
G02*
X269290379Y-62339627I-562527J28D01*
G01*
X173604200Y-79928900D02*
G75*
G03*
X173564976Y-79889700I-39200J0D01*
G01*
X172157434Y-99915692D02*
G75*
G02*
X171594226Y-100478934I-563234J-8D01*
G01*
X263155151Y-77843855D02*
G75*
G03*
X262591274Y-77280049I-563851J-45D01*
G01*
X297319051Y-40248005D02*
G75*
G02*
X297327152Y-40228447I27649J5D01*
G01*
X213704596Y-41265423D02*
G75*
G03*
X214268073Y-41828904I563504J23D01*
G01*
X252563814Y-76502171D02*
G75*
G02*
X251786007Y-77280014I-777814J-29D01*
G01*
X138277927Y-65958409D02*
G75*
G03*
X139064286Y-66744773I786373J9D01*
G01*
X209431923Y-79928900D02*
G75*
G02*
X208872100Y-79369135I-23J559800D01*
G01*
X44906561Y-39923241D02*
G75*
G02*
X45468695Y-39361061I562139J41D01*
G01*
X171661583Y-55445104D02*
G75*
G03*
X171099187Y-54882717I-562383J4D01*
G01*
X154951423Y-61776695D02*
G75*
G02*
X154388442Y-62339723I-563023J-5D01*
G01*
X214446520Y-76536078D02*
G75*
G02*
X213702620Y-77280020I-743920J-22D01*
G01*
X102006300Y-99879205D02*
G75*
G02*
X101445829Y-100439700I-560500J5D01*
G01*
X227888426Y-79928900D02*
G75*
G02*
X227330400Y-79370836I-26J558000D01*
G01*
X61190951Y-75613869D02*
G75*
G03*
X61194639Y-75617549I3649J-31D01*
G01*
X61853194Y-41828900D02*
G75*
G02*
X61297900Y-41273650I6J555300D01*
G01*
X83006551Y-39923353D02*
G75*
G02*
X83568788Y-39361151I562249J-47D01*
G01*
X208872158Y-77841130D02*
G75*
G03*
X208311006Y-77279942I-561158J30D01*
G01*
X255130607Y-40181418D02*
G75*
G03*
X254566718Y-40745325I-7J-563882D01*
G01*
X71206188Y-92922378D02*
G75*
G03*
X71770181Y-93486412I564012J-22D01*
G01*
X112059118Y-62379743D02*
G75*
G02*
X112019057Y-62339676I-18J40043D01*
G01*
X215192118Y-77279959D02*
G75*
G02*
X214446441Y-76534347I-18J745659D01*
G01*
X307653269Y-62339676D02*
G75*
G03*
X308214276Y-61778694I31J560976D01*
G01*
X155896155Y-41265218D02*
G75*
G03*
X156459852Y-41828945I563745J18D01*
G01*
X234169423Y-77279976D02*
G75*
G02*
X233397624Y-76508204I-23J771776D01*
G01*
X155333992Y-39361116D02*
G75*
G02*
X155896084Y-39923229I8J-562084D01*
G01*
X235516700Y-39914711D02*
G75*
G02*
X236077417Y-39354000I560700J11D01*
G01*
X286318401Y-40181418D02*
G75*
G02*
X286880482Y-40743463I-1J-562082D01*
G01*
X193106585Y-77279978D02*
G75*
G03*
X192544078Y-77842512I15J-562522D01*
G01*
X227330415Y-77842436D02*
G75*
G03*
X226767971Y-77279985I-562415J36D01*
G01*
X262389835Y-100439676D02*
G75*
G03*
X262950376Y-99879060I-35J560576D01*
G01*
X166329158Y-75122778D02*
G75*
G02*
X166891322Y-75684871I42J-562122D01*
G01*
X100005648Y-41828900D02*
G75*
G02*
X99441200Y-41264508I-48J564400D01*
G01*
X250941108Y-39353994D02*
G75*
G02*
X251506306Y-39919186I-8J-565206D01*
G01*
X251506300Y-41269506D02*
G75*
G03*
X252065694Y-41828900I559400J6D01*
G01*
X63956551Y-39916264D02*
G75*
G02*
X64511699Y-39361151I555149J-36D01*
G01*
X232386053Y-41230231D02*
G75*
G03*
X232945498Y-41789647I559447J31D01*
G01*
X93416070Y-79365840D02*
G75*
G03*
X93979130Y-79928830I563030J40D01*
G01*
X121658275Y-39361116D02*
G75*
G03*
X121106616Y-39912840I25J-551684D01*
G01*
X102056551Y-39924148D02*
G75*
G02*
X102619583Y-39361051I563049J48D01*
G01*
X159878536Y-39334223D02*
G75*
G03*
X159316623Y-39896059I-36J-561877D01*
G01*
X118006300Y-39919426D02*
G75*
G03*
X117447990Y-39361100I-558300J26D01*
G01*
X292646651Y-79327714D02*
G75*
G03*
X293208613Y-79889649I561949J14D01*
G01*
D22*
%TO.N,Net-(D1-A)*%
X41389101Y-49360776D02*
X39180451Y-49360776D01*
X41814851Y-52705776D02*
X41814851Y-49786526D01*
X41814851Y-49786526D02*
G75*
G03*
X41389101Y-49360749I-425751J26D01*
G01*
%TO.N,Row0*%
X79855640Y-44584681D02*
X79855652Y-45386876D01*
X175138345Y-45835834D02*
X172690009Y-45835834D01*
X248730451Y-42801796D02*
X248730451Y-45810776D01*
X172640600Y-45856300D02*
X172640600Y-45263762D01*
X232535745Y-45031783D02*
X232535745Y-45385651D01*
X191690600Y-45856300D02*
X191580451Y-45856300D01*
X191690600Y-45856300D02*
X191690600Y-45442403D01*
X270329225Y-45850000D02*
X267890600Y-45850000D01*
X42479651Y-45387378D02*
X42479651Y-44450876D01*
X291759756Y-43148085D02*
X291759756Y-45793344D01*
X194756300Y-45025000D02*
X192108003Y-45025000D01*
X248738007Y-42794240D02*
X248730451Y-42786684D01*
X60394451Y-45387371D02*
X60394451Y-44450876D01*
X153590600Y-45850000D02*
X153590600Y-45267239D01*
X248738007Y-42794240D02*
X248730451Y-42801796D01*
X79431759Y-45810776D02*
X77280451Y-45810776D01*
X39180451Y-45810776D02*
X42056253Y-45810776D01*
X270756300Y-45024524D02*
X270756288Y-45422949D01*
X137197770Y-45817076D02*
X134430451Y-45817076D01*
X213806467Y-45024524D02*
X213809373Y-45027430D01*
X99104798Y-44500301D02*
X99104797Y-45388421D01*
X213809373Y-45027430D02*
X213809373Y-45386948D01*
X291592951Y-45409076D02*
X291592951Y-45810776D01*
X58230451Y-45810776D02*
X59971046Y-45810776D01*
X117300647Y-45817076D02*
X115380451Y-45817076D01*
X117725155Y-44316983D02*
X117725167Y-45392551D01*
X213385573Y-45810776D02*
X210630451Y-45810776D01*
X98682442Y-45810776D02*
X96330451Y-45810776D01*
X137621171Y-44136756D02*
X137621204Y-45393631D01*
X232543004Y-45024524D02*
X232535745Y-45031783D01*
X172217672Y-44840834D02*
X154017005Y-44840834D01*
X232110649Y-45810776D02*
X229680451Y-45810776D01*
X232535745Y-45385651D02*
G75*
G02*
X232110649Y-45810845I-425145J-49D01*
G01*
X192108003Y-45025000D02*
G75*
G03*
X191690600Y-45442403I-3J-417400D01*
G01*
X172690009Y-45835834D02*
G75*
G03*
X172640597Y-45856297I-9J-69866D01*
G01*
X42056253Y-45810776D02*
G75*
G03*
X42479676Y-45387378I47J423376D01*
G01*
X172530451Y-45746151D02*
G75*
G03*
X172640600Y-45856349I110149J-49D01*
G01*
X99104797Y-45388421D02*
G75*
G02*
X98682442Y-45810797I-422397J21D01*
G01*
X213809373Y-45386948D02*
G75*
G02*
X213385573Y-45810773I-423773J-52D01*
G01*
X172640600Y-45263762D02*
G75*
G03*
X172217672Y-44840900I-422900J-38D01*
G01*
X137621204Y-45393631D02*
G75*
G02*
X137197770Y-45817004I-423404J31D01*
G01*
X270756288Y-45422949D02*
G75*
G02*
X270329225Y-45849988I-427088J49D01*
G01*
X59971046Y-45810776D02*
G75*
G03*
X60394376Y-45387371I-46J423376D01*
G01*
X117725167Y-45392551D02*
G75*
G02*
X117300647Y-45817167I-424567J-49D01*
G01*
X172623337Y-45839037D02*
G75*
G02*
X172640563Y-45856300I-37J-17263D01*
G01*
X79855652Y-45386876D02*
G75*
G02*
X79431759Y-45810752I-423852J-24D01*
G01*
X154017005Y-44840834D02*
G75*
G03*
X153590634Y-45267239I-5J-426366D01*
G01*
X291759756Y-45793344D02*
G75*
G02*
X291703100Y-45849956I-56656J44D01*
G01*
%TO.N,Row1*%
X308924638Y-38541361D02*
X308924638Y-30884329D01*
X293803317Y-64900000D02*
X294084400Y-64900000D01*
X120123672Y-64860776D02*
X120142951Y-64860776D01*
X272386251Y-64860776D02*
X272542951Y-64860776D01*
X120123672Y-59393176D02*
X120123672Y-64860776D01*
X85756300Y-63856345D02*
X99360581Y-63856345D01*
X62994480Y-64859247D02*
X64884306Y-64859247D01*
X253603100Y-64900000D02*
X256282219Y-64900000D01*
X82153100Y-64281868D02*
X82153100Y-64900000D01*
X158283826Y-64900000D02*
X158353100Y-64900000D01*
X311098400Y-56081480D02*
X311098400Y-39338228D01*
X41561751Y-64860776D02*
X41561751Y-58968664D01*
X120110451Y-59379955D02*
X120123672Y-59393176D01*
X293899203Y-60558029D02*
X293899203Y-64714803D01*
X41561751Y-58968664D02*
X41556154Y-58963067D01*
X237564315Y-63914399D02*
X237564315Y-64476104D01*
X256706111Y-64476108D02*
X256706111Y-63865334D01*
X300400351Y-56505467D02*
X310674413Y-56505467D01*
X272653100Y-64900000D02*
X275153432Y-64900000D01*
X62810049Y-61893645D02*
X62798251Y-61905443D01*
X85756300Y-63856345D02*
X82578623Y-63856345D01*
X177292951Y-64860776D02*
X177292951Y-59298613D01*
X199284539Y-64475156D02*
X199284539Y-63925328D01*
X177292951Y-59298613D02*
X177292951Y-56235782D01*
X62798251Y-64860776D02*
X62992951Y-64860776D01*
X120110451Y-56227609D02*
X120110451Y-59379955D01*
X139192951Y-56226893D02*
X139191877Y-56225819D01*
X237140419Y-64900000D02*
X234553100Y-64900000D01*
X158283826Y-56206099D02*
X158283826Y-64900000D01*
X196453100Y-64900000D02*
X198859695Y-64900000D01*
X120110098Y-56227256D02*
X120110451Y-56227609D01*
X99362051Y-63854875D02*
X100779269Y-63854875D01*
X215392951Y-64860776D02*
X217983989Y-64860776D01*
X308924638Y-30884329D02*
X308925949Y-30883018D01*
X293915145Y-56533104D02*
X293915145Y-60542087D01*
X275578601Y-64474831D02*
X275578601Y-63861983D01*
X139192951Y-64860776D02*
X139192951Y-56226893D01*
X99360581Y-63856345D02*
X99362051Y-63854875D01*
X101203100Y-64900000D02*
X101203100Y-64278706D01*
X62798251Y-61905443D02*
X62798251Y-64860776D01*
X218409051Y-64435714D02*
X218409051Y-63921187D01*
X310740623Y-38980451D02*
X309363728Y-38980451D01*
X62992951Y-64860776D02*
X62994480Y-64859247D01*
X310674413Y-56505467D02*
G75*
G03*
X311098367Y-56081480I-13J423967D01*
G01*
X198859695Y-64900000D02*
G75*
G03*
X199284500Y-64475156I5J424800D01*
G01*
X101092951Y-64789851D02*
G75*
G03*
X101203100Y-64900049I110149J-49D01*
G01*
X311098400Y-39338228D02*
G75*
G03*
X310740623Y-38980400I-357800J28D01*
G01*
X217983989Y-64860776D02*
G75*
G03*
X218409076Y-64435714I11J425076D01*
G01*
X177292951Y-56235782D02*
G75*
G02*
X177306038Y-56222751I13049J-18D01*
G01*
X82578623Y-63856345D02*
G75*
G03*
X82153045Y-64281868I-23J-425555D01*
G01*
X293899203Y-64714803D02*
G75*
G03*
X294084400Y-64899997I185197J3D01*
G01*
X256282219Y-64900000D02*
G75*
G03*
X256706100Y-64476108I-19J423900D01*
G01*
X275153432Y-64900000D02*
G75*
G03*
X275578600Y-64474831I-32J425200D01*
G01*
X293915145Y-60542087D02*
G75*
G02*
X293899203Y-60558045I-15945J-13D01*
G01*
X100779269Y-63854875D02*
G75*
G02*
X101203125Y-64278706I31J-423825D01*
G01*
X309363728Y-38980451D02*
G75*
G02*
X308924649Y-38541361I-28J439051D01*
G01*
X237564315Y-64476104D02*
G75*
G02*
X237140419Y-64900015I-423915J4D01*
G01*
%TO.N,Net-(D2-A)*%
X41561751Y-68410776D02*
X43772540Y-68410776D01*
X44196151Y-68834387D02*
X44196151Y-71755776D01*
X43772540Y-68410776D02*
G75*
G02*
X44196124Y-68834387I-40J-423624D01*
G01*
%TO.N,Row2*%
X131742721Y-83029804D02*
X131754573Y-83017952D01*
X290301051Y-75669252D02*
X290301051Y-83486441D01*
X221787873Y-79161035D02*
X224626162Y-79161035D01*
X265174151Y-82173825D02*
X265174151Y-83486832D01*
X221364381Y-82622676D02*
X221364381Y-79584527D01*
X148828100Y-83950000D02*
X146505732Y-83950000D01*
X186928100Y-83950000D02*
X185178915Y-83950000D01*
X312273523Y-38807902D02*
X311795673Y-38330052D01*
X167878100Y-83449812D02*
X167878100Y-83950000D01*
X246061908Y-83527051D02*
X246061908Y-82980599D01*
X46477779Y-80068176D02*
X46477779Y-83906621D01*
X184756300Y-83527385D02*
X184756300Y-83449884D01*
X208756300Y-83046274D02*
X206401023Y-83046274D01*
X146082700Y-83526968D02*
X146082700Y-83025000D01*
X91684521Y-81006874D02*
X91684521Y-83943579D01*
X311570883Y-37787361D02*
X311570883Y-28738371D01*
X205978100Y-83950000D02*
X205978100Y-83469197D01*
X72747380Y-83830720D02*
X72747380Y-78425315D01*
X110617951Y-83910776D02*
X110617951Y-78429902D01*
X311997878Y-28311376D02*
X312602251Y-28311376D01*
X264750207Y-83910776D02*
X263017951Y-83910776D01*
X289876716Y-83910776D02*
X289211751Y-83910776D01*
X72835951Y-83910776D02*
X72517951Y-83910776D01*
X129667951Y-83910776D02*
X131318679Y-83910776D01*
X72751233Y-78421462D02*
X72756300Y-78426529D01*
X290309827Y-75660476D02*
X290301051Y-75669252D01*
X186915907Y-80541847D02*
X186928100Y-80541847D01*
X184331416Y-83025000D02*
X170506300Y-83025000D01*
X208756300Y-83046274D02*
X220940783Y-83046274D01*
X225050427Y-83910776D02*
X228945549Y-83910776D01*
X186928100Y-80541847D02*
X186928100Y-83950000D01*
X229370078Y-83486247D02*
X229370078Y-82980599D01*
X225050427Y-79585300D02*
X225050427Y-83910776D01*
X244078100Y-83950000D02*
X245638959Y-83950000D01*
X170506300Y-83025000D02*
X168302912Y-83025000D01*
X131742721Y-83486734D02*
X131742721Y-83029804D01*
X312500831Y-66709617D02*
X312500831Y-39356673D01*
X220940783Y-83046274D02*
G75*
G03*
X221364374Y-82622676I17J423574D01*
G01*
X184756300Y-83449884D02*
G75*
G03*
X184331416Y-83025000I-424900J-16D01*
G01*
X265174151Y-83486832D02*
G75*
G02*
X264750207Y-83910751I-423951J32D01*
G01*
X72628100Y-83950000D02*
G75*
G03*
X72747400Y-83830720I0J119300D01*
G01*
X168302912Y-83025000D02*
G75*
G03*
X167878100Y-83449812I-12J-424800D01*
G01*
X146505732Y-83950000D02*
G75*
G02*
X146082700Y-83526968I-32J423000D01*
G01*
X131318679Y-83910776D02*
G75*
G03*
X131742776Y-83486734I21J424076D01*
G01*
X46477779Y-83906621D02*
G75*
G02*
X46434400Y-83949979I-43379J21D01*
G01*
X228945549Y-83910776D02*
G75*
G03*
X229370076Y-83486247I-49J424576D01*
G01*
X311570883Y-28738371D02*
G75*
G02*
X311997878Y-28311383I427017J-29D01*
G01*
X110617951Y-78429902D02*
G75*
G02*
X110626391Y-78421451I8449J2D01*
G01*
X221364381Y-79584527D02*
G75*
G02*
X221787873Y-79160981I423519J27D01*
G01*
X312500831Y-39356673D02*
G75*
G03*
X312273499Y-38807926I-776031J-27D01*
G01*
X206401023Y-83046274D02*
G75*
G03*
X205978074Y-83469197I-23J-422926D01*
G01*
X311795673Y-38330052D02*
G75*
G02*
X311570921Y-37787361I542727J542652D01*
G01*
X185178915Y-83950000D02*
G75*
G02*
X184756300Y-83527385I-15J422600D01*
G01*
X224626162Y-79161035D02*
G75*
G02*
X225050465Y-79585300I38J-424265D01*
G01*
X91684521Y-83943579D02*
G75*
G02*
X91678100Y-83950021I-6421J-21D01*
G01*
X290301051Y-83486441D02*
G75*
G02*
X289876716Y-83910751I-424351J41D01*
G01*
X72747380Y-78425315D02*
G75*
G02*
X72751233Y-78421480I3820J15D01*
G01*
X245638959Y-83950000D02*
G75*
G03*
X246061900Y-83527051I41J422900D01*
G01*
%TO.N,Net-(D3-A)*%
X46324251Y-87460776D02*
X48534959Y-87460776D01*
X48958651Y-87884468D02*
X48958651Y-90805776D01*
X48534959Y-87460776D02*
G75*
G02*
X48958724Y-87884468I41J-423724D01*
G01*
%TO.N,Net-(D4-A)*%
X39598509Y-109815776D02*
X41424851Y-109815776D01*
X39180451Y-106884714D02*
X39180451Y-109397718D01*
X44278955Y-98471672D02*
X44278955Y-106460927D01*
X43855168Y-106884714D02*
X39180451Y-106884714D01*
X45014851Y-97735776D02*
G75*
G03*
X44278976Y-98471672I49J-735924D01*
G01*
X44278955Y-106460927D02*
G75*
G02*
X43855168Y-106884655I-423755J27D01*
G01*
X39180451Y-109397718D02*
G75*
G03*
X39598509Y-109815749I418049J18D01*
G01*
%TO.N,Row3*%
X314563319Y-99653295D02*
X314563319Y-26183152D01*
X274984838Y-102576001D02*
X274984838Y-99674751D01*
X248177380Y-103000000D02*
X248840600Y-103000000D01*
X82756300Y-114025000D02*
X82756300Y-103422430D01*
X83178730Y-103000000D02*
X84534400Y-103000000D01*
X63103100Y-103000000D02*
X62674432Y-103000000D01*
X153506300Y-109319588D02*
X153506300Y-103424527D01*
X296309151Y-102960776D02*
X296272651Y-102960776D01*
X153523141Y-109336429D02*
X153506300Y-109319588D01*
X153930827Y-103000000D02*
X155971900Y-103000000D01*
X224679863Y-102960776D02*
X227299251Y-102960776D01*
X277415600Y-103000000D02*
X275408837Y-103000000D01*
X39180451Y-102960776D02*
X39180451Y-99660476D01*
X224256300Y-108525000D02*
X224256300Y-103384339D01*
X312602251Y-25761376D02*
X314141543Y-25761376D01*
X62258651Y-99660476D02*
X62258651Y-102584219D01*
X296272651Y-102960776D02*
X296272651Y-99660476D01*
X247756300Y-114775000D02*
X247756300Y-103421080D01*
X247756300Y-103421080D02*
G75*
G02*
X248177380Y-103000000I421100J-20D01*
G01*
X275408837Y-103000000D02*
G75*
G02*
X274984800Y-102576001I-37J424000D01*
G01*
X153506300Y-103424527D02*
G75*
G02*
X153930827Y-103000000I424500J27D01*
G01*
X314563319Y-26183152D02*
G75*
G03*
X314141543Y-25761381I-421819J-48D01*
G01*
X62258651Y-102584219D02*
G75*
G03*
X62674432Y-102999949I415749J19D01*
G01*
X224256300Y-103384339D02*
G75*
G02*
X224679863Y-102960700I423600J39D01*
G01*
X82756300Y-103422430D02*
G75*
G02*
X83178730Y-103000000I422400J30D01*
G01*
%TO.N,Net-(D5-A)*%
X58652997Y-52705776D02*
X60864851Y-52705776D01*
X58230451Y-49360776D02*
X58230451Y-52283230D01*
X58230451Y-52283230D02*
G75*
G03*
X58652997Y-52705749I422549J30D01*
G01*
%TO.N,Net-(D6-A)*%
X62992951Y-68410776D02*
X65203095Y-68410776D01*
X65627351Y-68835032D02*
X65627351Y-71755776D01*
X65203095Y-68410776D02*
G75*
G02*
X65627324Y-68835032I5J-424224D01*
G01*
%TO.N,Net-(D7-A)*%
X75152351Y-87885171D02*
X75152351Y-90805776D01*
X72517951Y-87460776D02*
X74727956Y-87460776D01*
X74727956Y-87460776D02*
G75*
G02*
X75152424Y-87885171I44J-424424D01*
G01*
%TO.N,Net-(D8-A)*%
X63416642Y-109855776D02*
X65627351Y-109855776D01*
X62992951Y-106510776D02*
X62992951Y-109432085D01*
X62992951Y-109432085D02*
G75*
G03*
X63416642Y-109855749I423649J-15D01*
G01*
%TO.N,Net-(D9-A)*%
X77280451Y-49360776D02*
X77280451Y-52281535D01*
X77704692Y-52705776D02*
X79914851Y-52705776D01*
X77280451Y-52281535D02*
G75*
G03*
X77704692Y-52705749I424249J35D01*
G01*
%TO.N,Net-(D10-A)*%
X82042951Y-68410776D02*
X84252898Y-68410776D01*
X84677351Y-68835229D02*
X84677351Y-71755776D01*
X84252898Y-68410776D02*
G75*
G02*
X84677324Y-68835229I2J-424424D01*
G01*
%TO.N,Net-(D11-A)*%
X91567951Y-87460776D02*
X93779450Y-87460776D01*
X94202351Y-87883677D02*
X94202351Y-90805776D01*
X93779450Y-87460776D02*
G75*
G02*
X94202324Y-87883677I-50J-422924D01*
G01*
%TO.N,Net-(D12-A)*%
X84424251Y-106510776D02*
X86634061Y-106510776D01*
X87058651Y-106935366D02*
X87058651Y-109855776D01*
X86634061Y-106510776D02*
G75*
G02*
X87058724Y-106935366I39J-424624D01*
G01*
%TO.N,Net-(D13-A)*%
X96330451Y-49360776D02*
X98542229Y-49360776D01*
X98964851Y-49783398D02*
X98964851Y-52705776D01*
X98542229Y-49360776D02*
G75*
G02*
X98964824Y-49783398I-29J-422624D01*
G01*
%TO.N,Net-(D14-A)*%
X103727351Y-68835533D02*
X103727351Y-71755776D01*
X101092951Y-68410776D02*
X103302594Y-68410776D01*
X103302594Y-68410776D02*
G75*
G02*
X103727324Y-68835533I6J-424724D01*
G01*
%TO.N,Net-(D15-A)*%
X110617951Y-87460776D02*
X110617951Y-90381690D01*
X111042037Y-90805776D02*
X113252351Y-90805776D01*
X110617951Y-90381690D02*
G75*
G03*
X111042037Y-90805749I424049J-10D01*
G01*
%TO.N,Net-(D16-A)*%
X115380451Y-49367076D02*
X117590651Y-49367076D01*
X118014851Y-49791276D02*
X118014851Y-52705776D01*
X117590651Y-49367076D02*
G75*
G02*
X118014924Y-49791276I49J-424224D01*
G01*
%TO.N,Net-(D17-A)*%
X120142951Y-68410776D02*
X122353899Y-68410776D01*
X122777351Y-68834228D02*
X122777351Y-71755776D01*
X122353899Y-68410776D02*
G75*
G02*
X122777324Y-68834228I1J-423424D01*
G01*
%TO.N,Net-(D18-A)*%
X129667951Y-87460776D02*
X131878723Y-87460776D01*
X132302351Y-87884404D02*
X132302351Y-90805776D01*
X131878723Y-87460776D02*
G75*
G02*
X132302324Y-87884404I-23J-423624D01*
G01*
%TO.N,Net-(D19-A)*%
X137064851Y-49790628D02*
X137064851Y-52705776D01*
X134430451Y-49367076D02*
X136641299Y-49367076D01*
X136641299Y-49367076D02*
G75*
G02*
X137064824Y-49790628I1J-423524D01*
G01*
%TO.N,Net-(D20-A)*%
X141827351Y-68834936D02*
X141827351Y-71755776D01*
X139192951Y-68410776D02*
X141403191Y-68410776D01*
X141403191Y-68410776D02*
G75*
G02*
X141827324Y-68834936I9J-424124D01*
G01*
%TO.N,Net-(D21-A)*%
X151352351Y-87885270D02*
X151352351Y-90805776D01*
X148717951Y-87460776D02*
X150927857Y-87460776D01*
X150927857Y-87460776D02*
G75*
G02*
X151352424Y-87885270I43J-424524D01*
G01*
%TO.N,Net-(D22-A)*%
X158402351Y-109815776D02*
X158402351Y-106934122D01*
X157979005Y-106510776D02*
X155861751Y-106510776D01*
X158402351Y-106934122D02*
G75*
G03*
X157979005Y-106510749I-423351J22D01*
G01*
%TO.N,Net-(D23-A)*%
X153480451Y-49360776D02*
X153480451Y-52281567D01*
X153904660Y-52705776D02*
X156114851Y-52705776D01*
X153480451Y-52281567D02*
G75*
G03*
X153904660Y-52705849I424249J-33D01*
G01*
%TO.N,Net-(D24-A)*%
X158242951Y-68410776D02*
X160452722Y-68410776D01*
X160877351Y-68835405D02*
X160877351Y-71755776D01*
X160452722Y-68410776D02*
G75*
G02*
X160877324Y-68835405I-22J-424624D01*
G01*
%TO.N,Net-(D25-A)*%
X170402351Y-90805776D02*
X167767951Y-90805776D01*
X167767951Y-90805776D02*
X167767951Y-87460776D01*
%TO.N,Net-(D26-K)*%
X172530451Y-49367076D02*
X174742119Y-49367076D01*
X175164851Y-49789808D02*
X175164851Y-52705776D01*
X174742119Y-49367076D02*
G75*
G02*
X175164824Y-49789808I-19J-422724D01*
G01*
%TO.N,Net-(D27-K)*%
X177292951Y-68410776D02*
X179501076Y-68410776D01*
X179927351Y-68837051D02*
X179927351Y-71755776D01*
X179501076Y-68410776D02*
G75*
G02*
X179927424Y-68837051I24J-426324D01*
G01*
%TO.N,Net-(D28-K)*%
X186817951Y-87460776D02*
X186817951Y-90382488D01*
X187241239Y-90805776D02*
X189452351Y-90805776D01*
X186817951Y-90382488D02*
G75*
G03*
X187241239Y-90805749I423249J-12D01*
G01*
%TO.N,Net-(D29-K)*%
X191580451Y-49367076D02*
X193789056Y-49367076D01*
X194214851Y-49792871D02*
X194214851Y-52705776D01*
X193789056Y-49367076D02*
G75*
G02*
X194214924Y-49792871I44J-425824D01*
G01*
%TO.N,Net-(D30-K)*%
X198977351Y-68838004D02*
X198977351Y-71755776D01*
X196342951Y-68410776D02*
X198550123Y-68410776D01*
X198550123Y-68410776D02*
G75*
G02*
X198977324Y-68838004I-23J-427224D01*
G01*
%TO.N,Net-(D31-K)*%
X208502351Y-87885742D02*
X208502351Y-90805776D01*
X205867951Y-87460776D02*
X208077385Y-87460776D01*
X208077385Y-87460776D02*
G75*
G02*
X208502324Y-87885742I15J-424924D01*
G01*
%TO.N,Net-(D32-K)*%
X210630451Y-49360776D02*
X210630451Y-52283276D01*
X211052951Y-52705776D02*
X213264851Y-52705776D01*
X210630451Y-52283276D02*
G75*
G03*
X211052951Y-52705749I422449J-24D01*
G01*
%TO.N,Net-(D33-K)*%
X218027351Y-68835200D02*
X218027351Y-71755776D01*
X215392951Y-68410776D02*
X217602927Y-68410776D01*
X217602927Y-68410776D02*
G75*
G02*
X218027324Y-68835200I-27J-424424D01*
G01*
%TO.N,Net-(D34-K)*%
X227552351Y-87887387D02*
X227552351Y-90805776D01*
X224917951Y-87460776D02*
X227125740Y-87460776D01*
X227125740Y-87460776D02*
G75*
G02*
X227552324Y-87887387I-40J-426624D01*
G01*
%TO.N,Net-(D35-K)*%
X229933651Y-106934087D02*
X229933651Y-109855776D01*
X227299251Y-106510776D02*
X229510340Y-106510776D01*
X229510340Y-106510776D02*
G75*
G02*
X229933624Y-106934087I-40J-423324D01*
G01*
%TO.N,Net-(D36-K)*%
X232314851Y-49785710D02*
X232314851Y-52705776D01*
X229680451Y-49360776D02*
X231889917Y-49360776D01*
X231889917Y-49360776D02*
G75*
G02*
X232314824Y-49785710I-17J-424924D01*
G01*
%TO.N,Net-(D37-K)*%
X237077351Y-71755776D02*
X234865717Y-71755776D01*
X234442951Y-71333010D02*
X234442951Y-68410776D01*
X234865717Y-71755776D02*
G75*
G02*
X234442924Y-71333010I-17J422776D01*
G01*
%TO.N,Net-(D38-K)*%
X243967951Y-87460776D02*
X246180408Y-87460776D01*
X246602351Y-87882719D02*
X246602351Y-90805776D01*
X246180408Y-87460776D02*
G75*
G02*
X246602324Y-87882719I-8J-421924D01*
G01*
%TO.N,Net-(D39-K)*%
X251364851Y-106933733D02*
X251364851Y-109855776D01*
X248730451Y-106510776D02*
X250941894Y-106510776D01*
X250941894Y-106510776D02*
G75*
G02*
X251364824Y-106933733I6J-422924D01*
G01*
%TO.N,Net-(D40-K)*%
X251364851Y-49784484D02*
X251364851Y-52705776D01*
X248730451Y-49360776D02*
X250941143Y-49360776D01*
X250941143Y-49360776D02*
G75*
G02*
X251364824Y-49784484I-43J-423724D01*
G01*
%TO.N,Net-(D41-K)*%
X256127351Y-68833929D02*
X256127351Y-71755776D01*
X253492951Y-68410776D02*
X255704198Y-68410776D01*
X255704198Y-68410776D02*
G75*
G02*
X256127324Y-68833929I2J-423124D01*
G01*
%TO.N,Net-(D42-K)*%
X265652351Y-87884076D02*
X265652351Y-90805776D01*
X263017951Y-87460776D02*
X265229051Y-87460776D01*
X265229051Y-87460776D02*
G75*
G02*
X265652324Y-87884076I-51J-423324D01*
G01*
%TO.N,Net-(D43-K)*%
X279549851Y-109815776D02*
X277727241Y-109815776D01*
X282369397Y-106350654D02*
X282369397Y-98506230D01*
X277568710Y-106774035D02*
X281946016Y-106774035D01*
X277305451Y-109393986D02*
X277305451Y-106510776D01*
X282369397Y-98506230D02*
G75*
G02*
X283139851Y-97735697I770503J30D01*
G01*
X277727241Y-109815776D02*
G75*
G02*
X277305424Y-109393986I-41J421776D01*
G01*
X277305451Y-106510776D02*
G75*
G03*
X277568710Y-106774049I263249J-24D01*
G01*
X281946016Y-106774035D02*
G75*
G03*
X282369335Y-106350654I-16J423335D01*
G01*
%TO.N,Net-(D44-K)*%
X267780451Y-49360776D02*
X269990498Y-49360776D01*
X270414851Y-49785129D02*
X270414851Y-52705776D01*
X269990498Y-49360776D02*
G75*
G02*
X270414824Y-49785129I2J-424324D01*
G01*
%TO.N,Net-(D45-K)*%
X275177351Y-68835191D02*
X275177351Y-71755776D01*
X272542951Y-68410776D02*
X274752936Y-68410776D01*
X274752936Y-68410776D02*
G75*
G02*
X275177324Y-68835191I-36J-424424D01*
G01*
%TO.N,Net-(D46-K)*%
X291592951Y-49360776D02*
X293801754Y-49360776D01*
X294227351Y-49786373D02*
X294227351Y-52705776D01*
X293801754Y-49360776D02*
G75*
G02*
X294227424Y-49786373I46J-425624D01*
G01*
%TO.N,Net-(D47-K)*%
X296718800Y-71795000D02*
X294500391Y-71795000D01*
X294084400Y-68450000D02*
X294084400Y-71379009D01*
X294084400Y-71379009D02*
G75*
G03*
X294500391Y-71795000I416000J9D01*
G01*
%TO.N,Net-(D48-K)*%
X289211751Y-87460776D02*
X291423568Y-87460776D01*
X291846151Y-87883359D02*
X291846151Y-90805776D01*
X291423568Y-87460776D02*
G75*
G02*
X291846224Y-87883359I32J-422624D01*
G01*
%TO.N,Net-(D49-K)*%
X301437252Y-98488375D02*
X301437252Y-106470877D01*
X296419300Y-106895877D02*
X296419300Y-106550000D01*
X296309151Y-106510776D02*
X296309151Y-109386392D01*
X296670918Y-106872543D02*
X296598194Y-106799819D01*
X301012252Y-106895877D02*
X296419300Y-106895877D01*
X296738535Y-109815776D02*
X298599851Y-109815776D01*
X301437252Y-106470877D02*
G75*
G02*
X301012252Y-106895852I-424952J-23D01*
G01*
X296309151Y-109386392D02*
G75*
G03*
X296738535Y-109815749I429349J-8D01*
G01*
X302189851Y-97735776D02*
G75*
G03*
X301437276Y-98488375I49J-752624D01*
G01*
%TO.N,LED*%
X303859543Y-27809651D02*
X303859543Y-41789676D01*
X303877384Y-27791810D02*
X303859543Y-27809651D01*
X303859543Y-41789676D02*
X302519051Y-41789676D01*
%TO.N,Net-(L1-DOUT)*%
X297319051Y-43180076D02*
X297319051Y-43289676D01*
X294581327Y-43180076D02*
X297319051Y-43180076D01*
X284033690Y-41797620D02*
X284025746Y-41789676D01*
X294562451Y-43198952D02*
X294581327Y-43180076D01*
X284025746Y-41789676D02*
X278706551Y-41789676D01*
D21*
%TO.N,GND*%
X90646818Y-81954506D02*
X90646818Y-84960498D01*
X272386251Y-113233293D02*
X272386251Y-96322476D01*
X150568452Y-83001614D02*
X153490699Y-83001614D01*
X163596476Y-81389676D02*
X159644051Y-81389676D01*
X187991624Y-43289676D02*
X183456551Y-43289676D01*
X91412949Y-85726678D02*
X91407899Y-85726678D01*
X102494051Y-81389676D02*
X106894881Y-81389676D01*
X261805651Y-81389676D02*
X254894051Y-81389676D01*
X202069051Y-60839676D02*
X202069051Y-57414159D01*
X273944051Y-81389676D02*
X277120717Y-81389676D01*
X134207911Y-55257723D02*
X132661048Y-55257723D01*
X126306551Y-43311183D02*
X132866303Y-43311183D01*
X161587851Y-98939676D02*
X158471257Y-98939676D01*
X188006300Y-43275000D02*
X188020976Y-43289676D01*
X224541719Y-98978900D02*
X233135500Y-98978900D01*
X277477350Y-55140748D02*
X277477342Y-55140756D01*
X95401138Y-55310084D02*
X95401138Y-55319983D01*
X154256300Y-83776488D02*
X154256300Y-83767215D01*
X235844051Y-81313776D02*
X242450178Y-81313776D01*
X94641652Y-56079469D02*
X88564848Y-56079469D01*
X254456551Y-96322476D02*
X254456551Y-96304422D01*
X118640948Y-56079469D02*
X115238798Y-56079469D01*
X157344781Y-88525000D02*
X154819523Y-88525000D01*
X305677235Y-43289676D02*
X302668424Y-43289676D01*
X106055037Y-56079484D02*
X106055022Y-56079469D01*
X221556551Y-43123376D02*
X228167118Y-43123376D01*
X285184840Y-113796587D02*
X272949545Y-113796587D01*
X124437798Y-60839676D02*
X125870551Y-60839676D01*
X220504420Y-81389676D02*
X216794051Y-81389676D01*
X106055022Y-56079469D02*
X96170508Y-56079469D01*
X102604200Y-82594592D02*
X102604200Y-81428900D01*
X65694051Y-59054713D02*
X57834398Y-59054713D01*
X266887702Y-55920346D02*
X266887702Y-58005377D01*
X76331987Y-56870444D02*
X76331987Y-58530824D01*
X278269051Y-55933274D02*
X278269051Y-55932465D01*
X89704093Y-98978900D02*
X90260500Y-98978900D01*
X90150351Y-98939676D02*
X89879951Y-98939676D01*
X201935670Y-81389676D02*
X197744051Y-81389676D01*
X307146469Y-43289681D02*
X305677240Y-43289681D01*
X228730389Y-43686647D02*
X228730389Y-57399064D01*
X88206551Y-43289676D02*
X94837480Y-43289676D01*
X188020976Y-43289676D02*
X188991344Y-43289676D01*
X68256300Y-98978900D02*
X68829200Y-98978900D01*
X299700351Y-55301839D02*
X299700351Y-60839676D01*
X233025351Y-98978900D02*
X233135500Y-98978900D01*
X115238798Y-56079469D02*
X115238782Y-56079453D01*
X235844051Y-81389676D02*
X235844051Y-81313776D01*
X67689904Y-81389676D02*
X57399724Y-81389676D01*
X266328241Y-58564838D02*
X259784365Y-58564838D01*
X248577415Y-57414096D02*
X248577409Y-57414102D01*
X75767935Y-59094876D02*
X69278553Y-59094876D01*
X189844253Y-47583077D02*
X190343692Y-48082518D01*
X47625000Y-112275000D02*
X47625000Y-113668835D01*
X164406551Y-43289676D02*
X169690317Y-43289676D01*
X89704093Y-96588071D02*
X90087941Y-96588071D01*
X159192947Y-83001614D02*
X155031190Y-83001614D01*
X119181500Y-61679743D02*
X119205857Y-61679743D01*
X277682370Y-80828023D02*
X277682370Y-78338778D01*
X272386251Y-94362961D02*
X272386251Y-96322476D01*
X47326491Y-50968530D02*
X47326491Y-60878900D01*
X48187999Y-114231834D02*
X71567779Y-114231834D01*
X157907365Y-98375784D02*
X157907365Y-89087584D01*
X243013577Y-95529223D02*
X243013577Y-95539837D01*
X255692902Y-57414096D02*
X248577415Y-57414096D01*
X68256300Y-107027738D02*
X68256300Y-102025000D01*
X57399724Y-81389676D02*
X57360500Y-81428900D01*
X243788799Y-96304422D02*
X243788792Y-96304429D01*
X308972660Y-43289676D02*
X307146474Y-43289676D01*
X183139226Y-80866528D02*
X183139226Y-78003133D01*
X88564848Y-56079469D02*
X88564829Y-56079450D01*
X245584763Y-43853902D02*
X245584763Y-47249279D01*
X285618138Y-43289676D02*
X278706551Y-43289676D01*
X150006300Y-81988653D02*
X150006300Y-82439462D01*
X68829200Y-60878900D02*
X66815789Y-60878900D01*
X247813190Y-48376248D02*
X247813190Y-56649895D01*
X87769051Y-56875199D02*
X87769051Y-56870988D01*
X299691417Y-55292905D02*
X299700351Y-55301839D01*
X163969051Y-57427106D02*
X163990122Y-57406035D01*
X299711342Y-55138280D02*
X308979812Y-55138280D01*
X240279200Y-57414096D02*
X247061283Y-57414096D01*
X294932400Y-20730934D02*
X294932400Y-26140505D01*
X183139226Y-78003133D02*
X183118940Y-77982847D01*
X243013577Y-81877175D02*
X243013577Y-95529223D01*
X115238798Y-56079469D02*
X113685421Y-56079469D01*
X107599004Y-56079469D02*
X107598989Y-56079484D01*
X266887702Y-54359558D02*
X266887702Y-55920346D01*
X209126046Y-43328900D02*
X202616700Y-43328900D01*
X188006300Y-43275000D02*
X187991624Y-43289676D01*
X309538500Y-54579592D02*
X309538500Y-43855516D01*
X163969051Y-60839676D02*
X163969051Y-57427106D01*
X246149481Y-47813997D02*
X247250939Y-47813997D01*
X90646818Y-84960498D02*
X90646804Y-84960512D01*
X286180446Y-55140756D02*
X279061610Y-55140756D01*
X209690284Y-56849175D02*
X209690284Y-43893138D01*
X91412949Y-85726678D02*
X92559198Y-85726678D01*
X155031190Y-83001614D02*
X155031185Y-83001609D01*
X86977551Y-56079450D02*
X86977532Y-56079469D01*
X201956001Y-81410007D02*
X201935670Y-81389676D01*
X279061602Y-55140748D02*
X277477350Y-55140748D01*
X262059309Y-81391760D02*
X262059309Y-93235912D01*
X267668900Y-55140756D02*
X267667292Y-55140756D01*
X95401138Y-43853334D02*
X95401138Y-55310084D01*
X49654852Y-44881083D02*
X45217787Y-44881083D01*
X133428876Y-43873756D02*
X133428876Y-54478681D01*
X262622573Y-93799176D02*
X271822466Y-93799176D01*
X88564829Y-56079450D02*
X86977551Y-56079450D01*
X221229200Y-60878900D02*
X221229200Y-57975592D01*
X68256300Y-96588071D02*
X68256300Y-98978900D01*
X47326491Y-60878900D02*
X47398000Y-60878900D01*
X240606551Y-43289676D02*
X245020537Y-43289676D01*
X259329200Y-60878900D02*
X256821702Y-60878900D01*
X123716441Y-81389676D02*
X121544051Y-81389676D01*
X124436825Y-55257728D02*
X132661043Y-55257728D01*
X254456551Y-96304422D02*
X243788799Y-96304422D01*
X126306551Y-43289676D02*
X126306551Y-43311183D01*
X279061610Y-55140756D02*
X279061602Y-55140748D01*
X83444051Y-81389676D02*
X90081988Y-81389676D01*
X96170508Y-56079469D02*
X96170501Y-56079462D01*
X113896005Y-44836242D02*
X107817436Y-44836242D01*
X307146474Y-43289676D02*
X307146469Y-43289681D01*
X68256300Y-96588071D02*
X68256300Y-81956072D01*
X202069051Y-57414159D02*
X202070264Y-57412946D01*
X50216700Y-43328900D02*
X50216700Y-44319235D01*
X123878652Y-58869450D02*
X123878652Y-60280530D01*
X215660306Y-57412946D02*
X220666554Y-57412946D01*
X152521451Y-43853064D02*
X152521451Y-57390819D01*
X132661048Y-55257723D02*
X132661043Y-55257728D01*
X183019051Y-60839676D02*
X183019051Y-57419984D01*
X93686361Y-83157476D02*
X102041316Y-83157476D01*
X145356551Y-43289676D02*
X151958063Y-43289676D01*
X215660306Y-57412946D02*
X210254055Y-57412946D01*
X306409151Y-42552370D02*
X306409151Y-42557760D01*
X68719051Y-59654378D02*
X68719051Y-60839676D01*
X144919051Y-57399322D02*
X144919051Y-55820063D01*
X114459378Y-55300017D02*
X114459378Y-45399615D01*
X90646818Y-84960498D02*
X90646818Y-86487759D01*
X107457870Y-80826687D02*
X107457870Y-77306206D01*
X113685421Y-56079469D02*
X107599004Y-56079469D01*
X233025351Y-96864962D02*
X233025351Y-98978900D01*
X240169051Y-60839676D02*
X239534251Y-60839676D01*
X277682370Y-78338778D02*
X277701072Y-78320076D01*
X57278515Y-58498830D02*
X57278515Y-43853087D01*
X221556551Y-43289676D02*
X221556551Y-43123376D01*
X248577409Y-57414102D02*
X247061289Y-57414102D01*
X254456551Y-96322476D02*
X254456551Y-98978900D01*
X299711342Y-55138280D02*
X299691417Y-55158205D01*
X300137851Y-81389676D02*
X303043365Y-81389676D01*
X178804200Y-81428900D02*
X182576854Y-81428900D01*
X90646818Y-96029194D02*
X90646818Y-86487759D01*
X114459378Y-55300017D02*
X114459378Y-55305512D01*
X107598989Y-56079484D02*
X106055037Y-56079484D01*
X243788792Y-96304429D02*
X242248999Y-96304429D01*
X66256300Y-60319411D02*
X66256300Y-59616962D01*
X69156551Y-43289676D02*
X75766557Y-43289676D01*
X44654381Y-45444489D02*
X44654381Y-49839984D01*
X94641659Y-56079462D02*
X94641652Y-56079469D01*
X107256551Y-44275357D02*
X107256551Y-43289676D01*
X144356716Y-55257728D02*
X134207916Y-55257728D01*
X93124928Y-85160948D02*
X93124928Y-83718909D01*
X223977207Y-81628287D02*
X223977207Y-98414388D01*
X56715104Y-43289676D02*
X50106551Y-43289676D01*
X71566240Y-107589433D02*
X68817995Y-107589433D01*
X247061289Y-57414102D02*
X247061283Y-57414096D01*
X119205857Y-61679743D02*
X119205857Y-56644378D01*
X76331987Y-43855106D02*
X76331987Y-55286732D01*
X295494371Y-26702476D02*
X305845253Y-26702476D01*
X154256300Y-87961777D02*
X154256300Y-83776488D01*
X155031190Y-83001614D02*
X153490699Y-83001614D01*
X159754200Y-81428900D02*
X159754200Y-82440361D01*
X45216369Y-50401972D02*
X46759933Y-50401972D01*
X144919051Y-60839676D02*
X144919051Y-57414602D01*
X86977532Y-56079469D02*
X77124695Y-56079469D01*
X305677240Y-43289681D02*
X305677235Y-43289676D01*
X76331987Y-55286732D02*
X76331979Y-55286740D01*
X134207916Y-55257728D02*
X134207911Y-55257723D01*
X286180446Y-55140756D02*
X286180446Y-43851984D01*
X242248992Y-96304422D02*
X233585891Y-96304422D01*
X277477342Y-55140756D02*
X267668900Y-55140756D01*
X303604944Y-80828097D02*
X303604944Y-78314405D01*
X240279200Y-57414096D02*
X240279200Y-60878900D01*
X299691417Y-55158205D02*
X299691417Y-55292905D01*
X123878652Y-58869450D02*
X123878652Y-55815901D01*
X87769051Y-60839676D02*
X87769051Y-56875199D01*
X140704200Y-81428900D02*
X149446547Y-81428900D01*
X266887702Y-43853198D02*
X266887702Y-54359558D01*
X77124695Y-56079469D02*
X77122962Y-56079469D01*
X285750000Y-112275000D02*
X285750000Y-113231427D01*
X164159859Y-77983043D02*
X164159859Y-80826293D01*
X259656551Y-43289676D02*
X266324180Y-43289676D01*
X124278962Y-77307954D02*
X124278962Y-80827155D01*
X247813190Y-56649895D02*
X247813190Y-56662189D01*
X254456551Y-98978900D02*
X254566700Y-98978900D01*
X89704093Y-96588071D02*
X89704093Y-98978900D01*
X256256300Y-60313498D02*
X256256300Y-57977494D01*
X259219051Y-59130152D02*
X259219051Y-60839676D01*
X152521451Y-57390819D02*
X152506235Y-57406035D01*
X106819051Y-60839676D02*
X106819051Y-56859441D01*
X242248999Y-96304429D02*
X242248992Y-96304422D01*
X306409151Y-27266374D02*
X306409151Y-42552370D01*
X278269051Y-60839676D02*
X278269051Y-55933274D01*
X189552451Y-43850783D02*
X189552451Y-46878603D01*
X190638601Y-48794496D02*
X190638601Y-57391830D01*
X96170501Y-56079462D02*
X94641659Y-56079462D01*
X72130070Y-113669543D02*
X72130070Y-108153263D01*
X76331987Y-55286732D02*
X76331987Y-56870444D01*
X107598989Y-56079484D02*
G75*
G03*
X106819084Y-56859441I11J-779916D01*
G01*
X90087941Y-96588071D02*
G75*
G03*
X90646771Y-96029194I-41J558871D01*
G01*
X309538500Y-43855516D02*
G75*
G03*
X308972660Y-43289700I-565800J16D01*
G01*
X134207911Y-55257723D02*
G75*
G02*
X133428877Y-54478681I-11J779023D01*
G01*
X189552451Y-46878603D02*
G75*
G03*
X189844261Y-47583069I996249J3D01*
G01*
X71567779Y-114231834D02*
G75*
G03*
X72130134Y-113669543I21J562334D01*
G01*
X50216700Y-44319235D02*
G75*
G02*
X49654852Y-44881000I-561800J35D01*
G01*
X144919051Y-57414602D02*
G75*
G03*
X144911411Y-57406949I-7651J2D01*
G01*
X95401138Y-55319983D02*
G75*
G02*
X94641652Y-56079438I-759438J-17D01*
G01*
X215656051Y-57417201D02*
G75*
G02*
X215660306Y-57412951I4249J1D01*
G01*
X76331987Y-58530824D02*
G75*
G02*
X75767935Y-59094887I-564087J24D01*
G01*
X267667292Y-55140756D02*
G75*
G03*
X266887756Y-55920346I8J-779544D01*
G01*
X183019051Y-57419984D02*
G75*
G03*
X183006300Y-57407249I-12751J-16D01*
G01*
X243013577Y-95539837D02*
G75*
G02*
X242248992Y-96304377I-764577J37D01*
G01*
X164159859Y-80826293D02*
G75*
G02*
X163596476Y-81389659I-563359J-7D01*
G01*
X90081988Y-81389676D02*
G75*
G02*
X90646824Y-81954506I12J-564824D01*
G01*
X308979812Y-55138280D02*
G75*
G03*
X309538480Y-54579592I-12J558680D01*
G01*
X294932400Y-26140505D02*
G75*
G03*
X295494371Y-26702500I562000J5D01*
G01*
X247813190Y-56662189D02*
G75*
G02*
X247061283Y-57414090I-751890J-11D01*
G01*
X44654381Y-49839984D02*
G75*
G03*
X45216369Y-50402019I562019J-16D01*
G01*
X154256300Y-83767215D02*
G75*
G03*
X153490699Y-83001600I-765600J15D01*
G01*
X155031185Y-83001609D02*
G75*
G03*
X154256309Y-83776488I15J-774891D01*
G01*
X87769051Y-56870988D02*
G75*
G03*
X86977532Y-56079449I-791551J-12D01*
G01*
X228167118Y-43123376D02*
G75*
G02*
X228730324Y-43686647I-18J-563224D01*
G01*
X220666554Y-57412946D02*
G75*
G02*
X221229254Y-57975592I46J-562654D01*
G01*
X149446547Y-81428900D02*
G75*
G02*
X150006300Y-81988653I-47J-559800D01*
G01*
X233585891Y-96304422D02*
G75*
G03*
X233025322Y-96864962I9J-560578D01*
G01*
X47625000Y-113668835D02*
G75*
G03*
X48187999Y-114231800I563000J35D01*
G01*
X271822466Y-93799176D02*
G75*
G02*
X272386324Y-94362961I34J-563824D01*
G01*
X245020537Y-43289676D02*
G75*
G02*
X245584724Y-43853902I-37J-564224D01*
G01*
X302668424Y-43289676D02*
G75*
G03*
X302629176Y-43328900I-24J-39224D01*
G01*
X150006300Y-82439462D02*
G75*
G03*
X150568452Y-83001700I562200J-38D01*
G01*
X68817995Y-107589433D02*
G75*
G02*
X68256267Y-107027738I5J561733D01*
G01*
X247250939Y-47813997D02*
G75*
G02*
X247813103Y-48376248I-39J-562203D01*
G01*
X277120717Y-81389676D02*
G75*
G03*
X277682376Y-80828023I-17J561676D01*
G01*
X92559198Y-85726678D02*
G75*
G03*
X93124978Y-85160948I2J565778D01*
G01*
X66256300Y-59616962D02*
G75*
G03*
X65694051Y-59054800I-562200J-38D01*
G01*
X248577409Y-57414102D02*
G75*
G02*
X247813198Y-56649895I-9J764202D01*
G01*
X72130070Y-108153263D02*
G75*
G03*
X71566240Y-107589430I-563870J-37D01*
G01*
X266887702Y-54359558D02*
G75*
G03*
X267668900Y-55140798I781198J-42D01*
G01*
X305845253Y-26702476D02*
G75*
G02*
X306409224Y-27266374I47J-563924D01*
G01*
X188991344Y-43289676D02*
G75*
G02*
X189552424Y-43850783I-44J-561124D01*
G01*
X57834398Y-59054713D02*
G75*
G02*
X57278487Y-58498830I2J555913D01*
G01*
X68256300Y-81956072D02*
G75*
G03*
X67689904Y-81389700I-566400J-28D01*
G01*
X190343692Y-48082518D02*
G75*
G02*
X190638602Y-48794496I-711992J-711982D01*
G01*
X115238782Y-56079453D02*
G75*
G02*
X114459347Y-55300017I18J779453D01*
G01*
X209690284Y-43893138D02*
G75*
G03*
X209126046Y-43328816I-564284J38D01*
G01*
X102041316Y-83157476D02*
G75*
G03*
X102604176Y-82594592I-16J562876D01*
G01*
X243788792Y-96304429D02*
G75*
G02*
X243013571Y-95529223I8J775229D01*
G01*
X286180446Y-43851984D02*
G75*
G03*
X285618138Y-43289654I-562346J-16D01*
G01*
X93124928Y-83718909D02*
G75*
G02*
X93686361Y-83157428I561472J9D01*
G01*
X278269051Y-55932465D02*
G75*
G03*
X277477342Y-55140749I-791751J-35D01*
G01*
X75766557Y-43289676D02*
G75*
G02*
X76332024Y-43855106I43J-565424D01*
G01*
X76331979Y-55286740D02*
G75*
G03*
X77124695Y-56079521I792721J-60D01*
G01*
X210254055Y-57412946D02*
G75*
G02*
X209690354Y-56849175I45J563746D01*
G01*
X159754200Y-82440361D02*
G75*
G02*
X159192947Y-83001700I-561300J-39D01*
G01*
X262059309Y-93235912D02*
G75*
G03*
X262622573Y-93799191I563291J12D01*
G01*
X272949545Y-113796587D02*
G75*
G02*
X272386213Y-113233293I-45J563287D01*
G01*
X133428876Y-54489895D02*
G75*
G02*
X132661043Y-55257776I-767876J-5D01*
G01*
X256256300Y-57977494D02*
G75*
G03*
X255692902Y-57414100I-563400J-6D01*
G01*
X88564829Y-56079450D02*
G75*
G03*
X87769050Y-56875199I-29J-795750D01*
G01*
X114459378Y-45399615D02*
G75*
G03*
X113896005Y-44836222I-563378J15D01*
G01*
X245584763Y-47249279D02*
G75*
G03*
X246149481Y-47814037I564737J-21D01*
G01*
X144911411Y-57406962D02*
G75*
G03*
X144919062Y-57399322I-11J7662D01*
G01*
X94837480Y-43289676D02*
G75*
G02*
X95401124Y-43853334I20J-563624D01*
G01*
X158471257Y-98939676D02*
G75*
G02*
X157907424Y-98375784I43J563876D01*
G01*
X57278515Y-43853087D02*
G75*
G03*
X56715104Y-43289685I-563415J-13D01*
G01*
X107817436Y-44836242D02*
G75*
G02*
X107256558Y-44275357I-36J560842D01*
G01*
X132866303Y-43311183D02*
G75*
G02*
X133428917Y-43873756I-3J-562617D01*
G01*
X306409151Y-42557760D02*
G75*
G02*
X305677235Y-43289751I-731951J-40D01*
G01*
X151958063Y-43289676D02*
G75*
G02*
X152521524Y-43853064I37J-563424D01*
G01*
X45217787Y-44881083D02*
G75*
G03*
X44654383Y-45444489I13J-563417D01*
G01*
X154819523Y-88525000D02*
G75*
G02*
X154256300Y-87961777I-23J563200D01*
G01*
X279061602Y-55140748D02*
G75*
G03*
X278269048Y-55933274I-2J-792552D01*
G01*
X285750000Y-113231427D02*
G75*
G02*
X285184840Y-113796600I-565200J27D01*
G01*
X69278553Y-59094876D02*
G75*
G03*
X68719076Y-59654378I47J-559524D01*
G01*
X182576854Y-81428900D02*
G75*
G03*
X183139300Y-80866528I46J562400D01*
G01*
X256821702Y-60878900D02*
G75*
G02*
X256256300Y-60313498I-2J565400D01*
G01*
X106819051Y-56843498D02*
G75*
G03*
X106055022Y-56079449I-764051J-2D01*
G01*
X96170501Y-56079462D02*
G75*
G02*
X95401138Y-55310084I-1J769362D01*
G01*
X157907365Y-89087584D02*
G75*
G03*
X157344781Y-88525035I-562565J-16D01*
G01*
X223977207Y-98414388D02*
G75*
G03*
X224541719Y-98978893I564493J-12D01*
G01*
X144919051Y-55820063D02*
G75*
G03*
X144356716Y-55257749I-562351J-37D01*
G01*
X106894881Y-81389676D02*
G75*
G03*
X107457876Y-80826687I19J562976D01*
G01*
X123878652Y-60280530D02*
G75*
G03*
X124437798Y-60839648I559148J30D01*
G01*
X259784365Y-58564838D02*
G75*
G03*
X259219038Y-59130152I35J-565362D01*
G01*
X303043365Y-81389676D02*
G75*
G03*
X303604976Y-80828097I35J561576D01*
G01*
X90646804Y-84960512D02*
G75*
G03*
X91412949Y-85726596I766096J12D01*
G01*
X307146469Y-43289681D02*
G75*
G02*
X306409219Y-42552370I31J737281D01*
G01*
X77122962Y-56079469D02*
G75*
G03*
X76332069Y-56870444I38J-790931D01*
G01*
X66815789Y-60878900D02*
G75*
G02*
X66256300Y-60319411I11J559500D01*
G01*
X46759933Y-50401972D02*
G75*
G02*
X47326428Y-50968530I-33J-566528D01*
G01*
X228730389Y-57399064D02*
G75*
G03*
X228744271Y-57413011I13911J-36D01*
G01*
X266887702Y-58005377D02*
G75*
G02*
X266328241Y-58564902I-559502J-23D01*
G01*
X114459378Y-55305512D02*
G75*
G02*
X113685421Y-56079478I-773978J12D01*
G01*
X119205857Y-56644378D02*
G75*
G03*
X118640948Y-56079443I-564957J-22D01*
G01*
X124278962Y-80827155D02*
G75*
G02*
X123716441Y-81389762I-562562J-45D01*
G01*
X91407899Y-85726678D02*
G75*
G03*
X90646778Y-86487759I1J-761122D01*
G01*
X68815724Y-60892376D02*
G75*
G03*
X68829176Y-60878900I-24J13476D01*
G01*
X242450178Y-81313776D02*
G75*
G02*
X243013624Y-81877175I22J-563424D01*
G01*
X266324180Y-43289676D02*
G75*
G02*
X266887724Y-43853198I20J-563524D01*
G01*
X123878652Y-55815901D02*
G75*
G02*
X124436825Y-55257752I558148J1D01*
G01*
D22*
%TO.N,Net-(L2-DOUT)*%
X259766700Y-41828900D02*
X268301343Y-41828900D01*
X273616700Y-43328900D02*
X271612610Y-43328900D01*
X268725181Y-42252725D02*
X268725200Y-42905530D01*
X269148583Y-43328900D02*
X273616700Y-43328900D01*
X268301343Y-41828900D02*
G75*
G02*
X268725100Y-42252725I-43J-423800D01*
G01*
X268725200Y-42905530D02*
G75*
G03*
X269148583Y-43328900I423400J30D01*
G01*
%TO.N,Net-(L3-DOUT)*%
X247576504Y-42213474D02*
X247576504Y-46706884D01*
X250648887Y-43289676D02*
X254456551Y-43289676D01*
X240606551Y-41789676D02*
X247152706Y-41789676D01*
X250223825Y-46697872D02*
X250223825Y-43714738D01*
X247990334Y-47120714D02*
X249800983Y-47120714D01*
X247576504Y-46706884D02*
G75*
G03*
X247990334Y-47120696I413796J-16D01*
G01*
X249800983Y-47120714D02*
G75*
G03*
X250223814Y-46697872I17J422814D01*
G01*
X247152706Y-41789676D02*
G75*
G02*
X247576524Y-42213474I-6J-423824D01*
G01*
X250223825Y-43714738D02*
G75*
G02*
X250648887Y-43289625I425075J38D01*
G01*
%TO.N,Net-(L4-DOUT)*%
X230600694Y-42214273D02*
X230600694Y-42866520D01*
X231023850Y-43289676D02*
X235406551Y-43289676D01*
X221556551Y-41789676D02*
X230176097Y-41789676D01*
X230176097Y-41789676D02*
G75*
G02*
X230600724Y-42214273I3J-424624D01*
G01*
X230600694Y-42866520D02*
G75*
G03*
X231023850Y-43289706I423206J20D01*
G01*
%TO.N,Net-(L5-DOUT)*%
X216356551Y-43289676D02*
X211336707Y-43289676D01*
X210913002Y-42865977D02*
X210912990Y-42212341D01*
X210490317Y-41789676D02*
X202506551Y-41789676D01*
X210912990Y-42212341D02*
G75*
G03*
X210490317Y-41789610I-422690J41D01*
G01*
X211336707Y-43289676D02*
G75*
G02*
X210913024Y-42865977I-7J423676D01*
G01*
%TO.N,Net-(L6-DOUT)*%
X193304939Y-46699813D02*
X193304939Y-46249279D01*
X196995598Y-45826305D02*
X193727913Y-45826305D01*
X183456551Y-41789676D02*
X190081213Y-41789676D01*
X190505790Y-42214253D02*
X190505790Y-46699071D01*
X190927648Y-47120929D02*
X192883823Y-47120929D01*
X197416700Y-43328900D02*
X197416700Y-45405203D01*
X193727913Y-45826305D02*
G75*
G03*
X193304905Y-46249279I-13J-422995D01*
G01*
X197416700Y-45405203D02*
G75*
G02*
X196995598Y-45826300I-421100J3D01*
G01*
X190505790Y-46699071D02*
G75*
G03*
X190927648Y-47120910I421810J-29D01*
G01*
X192883823Y-47120929D02*
G75*
G03*
X193304929Y-46699813I-23J421129D01*
G01*
X190081213Y-41789676D02*
G75*
G02*
X190505824Y-42214253I-13J-424624D01*
G01*
%TO.N,Net-(L7-DOUT)*%
X173564856Y-43289676D02*
X178256551Y-43289676D01*
X168664594Y-41823043D02*
X164487106Y-41823043D01*
X173141941Y-41823043D02*
X173141941Y-42866761D01*
X164487106Y-41823043D02*
G75*
G02*
X164406544Y-41789683I-6J113943D01*
G01*
X173141941Y-42866761D02*
G75*
G03*
X173564856Y-43289759I422959J-39D01*
G01*
%TO.N,Net-(L8-DOUT)*%
X145356551Y-41789676D02*
X154484656Y-41789676D01*
X154908978Y-42213998D02*
X154908978Y-42864292D01*
X155334362Y-43289676D02*
X159206551Y-43289676D01*
X154484656Y-41789676D02*
G75*
G02*
X154909024Y-42213998I44J-424324D01*
G01*
X154908978Y-42864292D02*
G75*
G03*
X155334362Y-43289722I425422J-8D01*
G01*
%TO.N,Net-(L10-DIN)*%
X134840382Y-41789676D02*
X126306551Y-41789676D01*
X135264139Y-42866301D02*
X135264139Y-42213433D01*
X140156551Y-43289676D02*
X135687514Y-43289676D01*
X135264139Y-42213433D02*
G75*
G03*
X134840382Y-41789661I-423739J33D01*
G01*
X135687514Y-43289676D02*
G75*
G02*
X135264124Y-42866301I-14J423376D01*
G01*
%TO.N,Net-(L10-DOUT)*%
X110876151Y-42866011D02*
X110876151Y-42215001D01*
X110450826Y-41789676D02*
X107256551Y-41789676D01*
X121106551Y-43289676D02*
X111299816Y-43289676D01*
X110876151Y-42215001D02*
G75*
G03*
X110450826Y-41789649I-425351J1D01*
G01*
X111299816Y-43289676D02*
G75*
G02*
X110876124Y-42866011I-16J423676D01*
G01*
%TO.N,Net-(L11-DOUT)*%
X102166700Y-43328900D02*
X97837649Y-43328900D01*
X97412006Y-42903257D02*
X97412006Y-42254620D01*
X96986286Y-41828900D02*
X88316700Y-41828900D01*
X97412006Y-42254620D02*
G75*
G03*
X96986286Y-41828894I-425706J20D01*
G01*
X97837649Y-43328900D02*
G75*
G02*
X97412000Y-42903257I-49J425600D01*
G01*
%TO.N,Net-(L12-DOUT)*%
X76982326Y-41828900D02*
X69266700Y-41828900D01*
X83116700Y-43328900D02*
X77830727Y-43328900D01*
X77406057Y-42904243D02*
X77406037Y-42252597D01*
X77830727Y-43328900D02*
G75*
G02*
X77406000Y-42904243I-27J424700D01*
G01*
X77406037Y-42252597D02*
G75*
G03*
X76982326Y-41828863I-423737J-3D01*
G01*
%TO.N,Net-(L13-DOUT)*%
X59830631Y-43289676D02*
X63956551Y-43289676D01*
X50106551Y-41789676D02*
X58983924Y-41789676D01*
X59407858Y-42213610D02*
X59407858Y-42866903D01*
X58983924Y-41789676D02*
G75*
G02*
X59407824Y-42213610I-24J-423924D01*
G01*
X59407858Y-42866903D02*
G75*
G03*
X59830631Y-43289642I422742J3D01*
G01*
%TO.N,Net-(L14-DOUT)*%
X47398000Y-62378900D02*
X45191636Y-62378900D01*
X44906551Y-43289676D02*
X38262158Y-43289676D01*
X44766628Y-61953892D02*
X44766628Y-55826916D01*
X44343376Y-55403664D02*
X38262065Y-55403664D01*
X37838481Y-43713353D02*
X37838481Y-54980080D01*
X45191636Y-62378900D02*
G75*
G02*
X44766600Y-61953892I-36J425000D01*
G01*
X44766628Y-55826916D02*
G75*
G03*
X44343376Y-55403672I-423228J16D01*
G01*
X38262065Y-55403664D02*
G75*
G02*
X37838536Y-54980080I35J423564D01*
G01*
X38262158Y-43289676D02*
G75*
G03*
X37838476Y-43713353I42J-423724D01*
G01*
%TO.N,Net-(L15-DOUT)*%
X68719051Y-62339676D02*
X64691019Y-62339676D01*
X52598000Y-60878900D02*
X55910668Y-60878900D01*
X64691019Y-62339676D02*
G75*
G03*
X64680176Y-62350512I-19J-10824D01*
G01*
X55910668Y-60878900D02*
G75*
G03*
X55916400Y-60873217I32J5700D01*
G01*
%TO.N,Net-(L16-DOUT)*%
X78582624Y-60858808D02*
X78563492Y-60839676D01*
X78563492Y-60839676D02*
X73919051Y-60839676D01*
X87769051Y-62339676D02*
X83582217Y-62339676D01*
X83158529Y-61915988D02*
X83158529Y-60844728D01*
X83582217Y-62339676D02*
G75*
G02*
X83158524Y-61915988I-17J423676D01*
G01*
%TO.N,Net-(L17-DOUT)*%
X103267896Y-62339676D02*
X106819051Y-62339676D01*
X102844516Y-61165657D02*
X102844516Y-61916296D01*
X93066751Y-60741976D02*
X102420835Y-60741976D01*
X92969051Y-60839676D02*
G75*
G02*
X93066751Y-60741951I97749J-24D01*
G01*
X102420835Y-60741976D02*
G75*
G02*
X102844524Y-61165657I-35J-423724D01*
G01*
X102844516Y-61916296D02*
G75*
G03*
X103267896Y-62339684I423384J-4D01*
G01*
%TO.N,Net-(L18-DOUT)*%
X122807075Y-62339676D02*
X125869051Y-62339676D01*
X122349892Y-60920784D02*
X122349897Y-61882501D01*
X115448961Y-60902536D02*
X112081911Y-60902536D01*
X112081911Y-60902536D02*
G75*
G02*
X112019064Y-60839676I-11J62836D01*
G01*
X122349897Y-61882501D02*
G75*
G03*
X122807075Y-62339703I457203J1D01*
G01*
%TO.N,Net-(L19-DOUT)*%
X135459383Y-60844551D02*
X135454508Y-60839676D01*
X135454508Y-60839676D02*
X131069051Y-60839676D01*
X141085951Y-61916282D02*
X141085951Y-60840021D01*
X141085951Y-60840021D02*
X141096494Y-60829478D01*
X144919051Y-62339676D02*
X141509345Y-62339676D01*
X141509345Y-62339676D02*
G75*
G02*
X141085924Y-61916282I-45J423376D01*
G01*
%TO.N,Net-(L20-DOUT)*%
X153966593Y-60839676D02*
X150119051Y-60839676D01*
X164079200Y-62284946D02*
X164079200Y-62378900D01*
X160112895Y-62284946D02*
X164079200Y-62284946D01*
X153976131Y-60849214D02*
X153966593Y-60839676D01*
%TO.N,Net-(L21-DOUT)*%
X170098451Y-60878900D02*
X170098451Y-55614938D01*
X183019051Y-62339676D02*
X179902847Y-62339676D01*
X179481051Y-56089103D02*
X179485873Y-56084281D01*
X179485873Y-56084281D02*
X179485873Y-55612300D01*
X179481051Y-61917880D02*
X179481051Y-56089103D01*
X169279200Y-60878900D02*
X170098451Y-60878900D01*
X179902847Y-62339676D02*
G75*
G02*
X179481024Y-61917880I-47J421776D01*
G01*
X170098451Y-55614938D02*
G75*
G03*
X170095813Y-55612249I-2651J38D01*
G01*
%TO.N,Net-(L22-DOUT)*%
X188219051Y-60839676D02*
X196720312Y-60839676D01*
X197145547Y-61264911D02*
X197145547Y-61916432D01*
X197568791Y-62339676D02*
X202069051Y-62339676D01*
X196720312Y-60839676D02*
G75*
G02*
X197145524Y-61264911I-12J-425224D01*
G01*
X197145547Y-61916432D02*
G75*
G03*
X197568791Y-62339653I423253J32D01*
G01*
%TO.N,Net-(L23-DOUT)*%
X214723893Y-60878900D02*
X207379200Y-60878900D01*
X221229200Y-62378900D02*
X215571901Y-62378900D01*
X215149664Y-61956663D02*
X215149664Y-61304671D01*
X215149664Y-61304671D02*
G75*
G03*
X214723893Y-60878936I-425764J-29D01*
G01*
X215571901Y-62378900D02*
G75*
G02*
X215149700Y-61956663I-1J422200D01*
G01*
%TO.N,Net-(L24-DOUT)*%
X234792647Y-56967259D02*
X230148356Y-56967259D01*
X240169051Y-62339676D02*
X235638285Y-62339676D01*
X229301356Y-60839676D02*
X226319051Y-60839676D01*
X229724346Y-57391269D02*
X229724346Y-60416686D01*
X235214026Y-61915417D02*
X235214026Y-57388638D01*
X230148356Y-56967259D02*
G75*
G03*
X229724359Y-57391269I44J-424041D01*
G01*
X235214026Y-57388638D02*
G75*
G03*
X234792647Y-56967174I-421426J38D01*
G01*
X235638285Y-62339676D02*
G75*
G02*
X235214024Y-61915417I15J424276D01*
G01*
X229724346Y-60416686D02*
G75*
G02*
X229301356Y-60839646I-422946J-14D01*
G01*
%TO.N,Net-(L25-DOUT)*%
X254809143Y-62034111D02*
X254809151Y-61279627D01*
X259219051Y-62455076D02*
X255230105Y-62455076D01*
X254384508Y-60854979D02*
X245503121Y-60854979D01*
X259219051Y-62339676D02*
X259219051Y-62455076D01*
X245503121Y-60854979D02*
G75*
G03*
X245479179Y-60878900I-21J-23921D01*
G01*
X254809151Y-61279627D02*
G75*
G03*
X254384508Y-60854949I-424651J27D01*
G01*
X255230105Y-62455076D02*
G75*
G02*
X254809124Y-62034111I-5J420976D01*
G01*
%TO.N,Net-(L26-DOUT)*%
X278269051Y-62339676D02*
X273605378Y-62339676D01*
X273182751Y-61917049D02*
X273182751Y-60895036D01*
X273182751Y-60895036D02*
X273189655Y-60888132D01*
X268870443Y-60903401D02*
X268851755Y-60884713D01*
X268851755Y-60884713D02*
X264535013Y-60884713D01*
X273605378Y-62339676D02*
G75*
G02*
X273182724Y-61917049I22J422676D01*
G01*
X264535013Y-60884713D02*
G75*
G02*
X264529187Y-60878900I-13J5813D01*
G01*
%TO.N,Net-(L27-DOUT)*%
X283469051Y-57942215D02*
X283469051Y-60839676D01*
X295465339Y-62339676D02*
X299700351Y-62339676D01*
X283473083Y-57938183D02*
X283469051Y-57942215D01*
X294730214Y-57969112D02*
X294730214Y-61604551D01*
X294730214Y-61604551D02*
G75*
G03*
X295465339Y-62339686I735086J-49D01*
G01*
%TO.N,Net-(L28-DOUT)*%
X302101897Y-71225072D02*
X302101897Y-74155703D01*
X300137851Y-75006388D02*
X300137851Y-79889676D01*
X310361686Y-64062451D02*
X310361686Y-58366813D01*
X299162051Y-64525572D02*
X299162051Y-67646085D01*
X299389615Y-68195473D02*
X301877520Y-70683378D01*
X301675037Y-74582563D02*
X300561676Y-74582563D01*
X297441051Y-64099476D02*
X298735955Y-64099476D01*
X310362178Y-64088760D02*
X310361686Y-64062451D01*
X309940405Y-57945532D02*
X305323554Y-57945532D01*
X304900351Y-58368735D02*
X304900351Y-60839676D01*
X305323554Y-57945532D02*
G75*
G03*
X304900432Y-58368735I46J-423168D01*
G01*
X300561676Y-74582563D02*
G75*
G03*
X300137863Y-75006388I24J-423837D01*
G01*
X298735955Y-64099476D02*
G75*
G02*
X299162124Y-64525572I45J-426124D01*
G01*
X310361686Y-58366813D02*
G75*
G03*
X309940405Y-57945514I-421286J13D01*
G01*
X299162051Y-67646085D02*
G75*
G03*
X299389608Y-68195480I776949J-15D01*
G01*
X301877520Y-70683378D02*
G75*
G02*
X302101909Y-71225072I-541720J-541722D01*
G01*
X302101897Y-74155703D02*
G75*
G02*
X301675037Y-74582597I-426897J3D01*
G01*
%TO.N,Net-(L29-DOUT)*%
X278651772Y-76959017D02*
X274369127Y-76959017D01*
X291359643Y-81428900D02*
X295048000Y-81428900D01*
X279075509Y-81424463D02*
X279075509Y-77382754D01*
X294937851Y-81730076D02*
X294937851Y-81389676D01*
X273944051Y-77384093D02*
X273944051Y-79889676D01*
X291330473Y-81399730D02*
G75*
G03*
X291359643Y-81428827I29127J30D01*
G01*
X279075509Y-77382754D02*
G75*
G03*
X278651772Y-76959091I-423709J-46D01*
G01*
X274369127Y-76959017D02*
G75*
G03*
X273944017Y-77384093I-27J-425083D01*
G01*
%TO.N,Net-(L30-DOUT)*%
X259572747Y-79889676D02*
X254894051Y-79889676D01*
X265955680Y-82773825D02*
X265955680Y-82612156D01*
X259585452Y-79902381D02*
X259572747Y-79889676D01*
X260198665Y-79902381D02*
X259585452Y-79902381D01*
X268854200Y-81428900D02*
X268854200Y-82350443D01*
X265955680Y-82773825D02*
X268430818Y-82773825D01*
X268430818Y-82773825D02*
G75*
G03*
X268854225Y-82350443I-18J423425D01*
G01*
%TO.N,Net-(L31-DOUT)*%
X244725843Y-80313106D02*
X244725843Y-80965261D01*
X235844051Y-79889676D02*
X244302413Y-79889676D01*
X245150258Y-81389676D02*
X249694051Y-81389676D01*
X244302413Y-79889676D02*
G75*
G02*
X244725824Y-80313106I-13J-423424D01*
G01*
X244725843Y-80965261D02*
G75*
G03*
X245150258Y-81389757I424457J-39D01*
G01*
%TO.N,Net-(L32-DOUT)*%
X226071796Y-80967302D02*
X226071796Y-78702004D01*
X230644051Y-81389676D02*
X226494170Y-81389676D01*
X225647481Y-78277689D02*
X217217861Y-78277689D01*
X216794051Y-78701499D02*
X216794051Y-79889676D01*
X226494170Y-81389676D02*
G75*
G02*
X226071824Y-80967302I30J422376D01*
G01*
X217217861Y-78277689D02*
G75*
G03*
X216794089Y-78701499I39J-423811D01*
G01*
X226071796Y-78702004D02*
G75*
G03*
X225647481Y-78277704I-424296J4D01*
G01*
%TO.N,Net-(L33-DOUT)*%
X197854200Y-79928900D02*
X205082935Y-79928900D01*
X205506300Y-80352265D02*
X205506300Y-81003998D01*
X205931202Y-81428900D02*
X211704200Y-81428900D01*
X205082935Y-79928900D02*
G75*
G02*
X205506300Y-80352265I-35J-423400D01*
G01*
X205506300Y-81003998D02*
G75*
G03*
X205931202Y-81428900I424900J-2D01*
G01*
%TO.N,Net-(L34-DOUT)*%
X178694051Y-79889676D02*
X178694051Y-75745535D01*
X190302727Y-75736283D02*
X190284211Y-75754799D01*
X190284211Y-75754799D02*
X190284211Y-80969888D01*
X190703999Y-81389676D02*
X192544051Y-81389676D01*
X178694051Y-75745535D02*
G75*
G02*
X178706491Y-75733051I12449J35D01*
G01*
X190284211Y-80969888D02*
G75*
G03*
X190703999Y-81389689I419789J-12D01*
G01*
%TO.N,Net-(L35-DOUT)*%
X160934113Y-79889676D02*
X159644051Y-79889676D01*
X170710151Y-81300876D02*
X173604200Y-81300876D01*
X170710151Y-81389676D02*
X170710151Y-81300876D01*
X173604200Y-81300876D02*
X173604200Y-81428900D01*
X159754200Y-79928900D02*
X163412048Y-79928900D01*
X163412048Y-79928900D02*
G75*
G02*
X163459800Y-79976711I-48J-47800D01*
G01*
%TO.N,Net-(L36-DOUT)*%
X151152215Y-80313694D02*
X151152203Y-80965256D01*
X151576615Y-81389676D02*
X154444051Y-81389676D01*
X140594051Y-79889676D02*
X150728205Y-79889676D01*
X151152203Y-80965256D02*
G75*
G03*
X151576615Y-81389697I424397J-44D01*
G01*
X150728205Y-79889676D02*
G75*
G02*
X151152224Y-80313694I-5J-424024D01*
G01*
%TO.N,Net-(L37-DOUT)*%
X133399351Y-76517187D02*
X133399351Y-80966136D01*
X117548948Y-78460676D02*
X121121028Y-78460676D01*
X117124651Y-76539863D02*
X117124651Y-78036379D01*
X117133961Y-76530553D02*
X117124651Y-76539863D01*
X133822891Y-81389676D02*
X135394051Y-81389676D01*
X121544051Y-78883699D02*
X121544051Y-79889676D01*
X133397551Y-76515387D02*
X133399351Y-76517187D01*
X121121028Y-78460676D02*
G75*
G02*
X121544024Y-78883699I-28J-423024D01*
G01*
X117124651Y-78036379D02*
G75*
G03*
X117548948Y-78460649I424249J-21D01*
G01*
X133399351Y-80966136D02*
G75*
G03*
X133822891Y-81389649I423549J36D01*
G01*
%TO.N,Net-(L38-DOUT)*%
X112916655Y-81389676D02*
X116344051Y-81389676D01*
X112491638Y-79861259D02*
X112491638Y-80964659D01*
X106655095Y-79889676D02*
X106655095Y-79911358D01*
X102494051Y-79889676D02*
X106655095Y-79889676D01*
X112491638Y-80964659D02*
G75*
G03*
X112916655Y-81389762I425062J-41D01*
G01*
%TO.N,Net-(L39-DOUT)*%
X83444051Y-79889676D02*
X91999601Y-79889676D01*
X92424072Y-80314147D02*
X92424072Y-80964022D01*
X92849726Y-81389676D02*
X97294051Y-81389676D01*
X92424072Y-80964022D02*
G75*
G03*
X92849726Y-81389628I425628J22D01*
G01*
X91999601Y-79889676D02*
G75*
G02*
X92424024Y-80314147I-1J-424424D01*
G01*
%TO.N,Net-(L40-DOUT)*%
X57265149Y-77531976D02*
X57250351Y-77546774D01*
X75737599Y-81389676D02*
X78244051Y-81389676D01*
X75313951Y-77531976D02*
X75313951Y-80966028D01*
X57250351Y-77546774D02*
X57250351Y-79889676D01*
X75313951Y-80966028D02*
G75*
G03*
X75737599Y-81389649I423649J28D01*
G01*
%TO.N,Net-(L41-DOUT)*%
X65950089Y-100056793D02*
X65950089Y-83438287D01*
X68719051Y-100439676D02*
X68719051Y-100226376D01*
X65527638Y-83015836D02*
X52583794Y-83015836D01*
X68829200Y-100478900D02*
X66372196Y-100478900D01*
X52160500Y-82592542D02*
X52160500Y-81428900D01*
X65950089Y-83438287D02*
G75*
G03*
X65527638Y-83015811I-422489J-13D01*
G01*
X52583794Y-83015836D02*
G75*
G02*
X52160464Y-82592542I6J423336D01*
G01*
X66372196Y-100478900D02*
G75*
G02*
X65950100Y-100056793I4J422100D01*
G01*
%TO.N,Net-(L42-DOUT)*%
X83006300Y-100015421D02*
X83006300Y-95187475D01*
X90150351Y-100439676D02*
X83430555Y-100439676D01*
X73939065Y-95160380D02*
X73939065Y-98978900D01*
X73939065Y-98978900D02*
X74029200Y-98978900D01*
X83430555Y-100439676D02*
G75*
G02*
X83006324Y-100015421I45J424276D01*
G01*
%TO.N,Net-(L43-DOUT)*%
X155964058Y-100439676D02*
X161587851Y-100439676D01*
X99222234Y-98937412D02*
X99219970Y-98939676D01*
X99219970Y-98939676D02*
X95350351Y-98939676D01*
X155954536Y-100449198D02*
X155964058Y-100439676D01*
%TO.N,Net-(L44-DOUT)*%
X171056300Y-98939676D02*
X166787851Y-98939676D01*
X227646691Y-100439676D02*
X233025351Y-100439676D01*
X227637286Y-100449081D02*
X227646691Y-100439676D01*
%TO.N,Net-(L45-DOUT)*%
X245506300Y-100016025D02*
X245506300Y-99362698D01*
X245083278Y-98939676D02*
X238225351Y-98939676D01*
X254456551Y-100439676D02*
X245929951Y-100439676D01*
X245929951Y-100439676D02*
G75*
G02*
X245506324Y-100016025I49J423676D01*
G01*
X245506300Y-99362698D02*
G75*
G03*
X245083278Y-98939700I-423000J-2D01*
G01*
%TO.N,Col0*%
X188728051Y-50165776D02*
X187864851Y-50165776D01*
X194431428Y-69255000D02*
X192737500Y-69255000D01*
X189944375Y-83000413D02*
X201837377Y-83000413D01*
X56896151Y-69215776D02*
X56896151Y-73885298D01*
X60394451Y-63213876D02*
X57123072Y-63213876D01*
X57006300Y-69255000D02*
X59970720Y-69255000D01*
X55133678Y-97735776D02*
X50164224Y-97735776D01*
X55557675Y-107275776D02*
X55557675Y-98159773D01*
X60394451Y-68831269D02*
X60394451Y-63213876D01*
X44994359Y-95877986D02*
X44999787Y-95883414D01*
X54965951Y-107275776D02*
X54874851Y-107275776D01*
X188662828Y-50205000D02*
X187975000Y-50205000D01*
X50125000Y-96730698D02*
X50125000Y-97775000D01*
X61658651Y-106858916D02*
X61658651Y-88265776D01*
X192618651Y-69215776D02*
X192609951Y-69215776D01*
X194431428Y-64071356D02*
X194431428Y-69255000D01*
X54965951Y-107275776D02*
X55557675Y-107275776D01*
X56274392Y-53707676D02*
X54939285Y-53707676D01*
X54965951Y-107275776D02*
X61241791Y-107275776D01*
X202262500Y-83425536D02*
X202262500Y-88305000D01*
X45423159Y-96306787D02*
X49701084Y-96306782D01*
X189518443Y-74190149D02*
X189518443Y-82574481D01*
X194389881Y-59950076D02*
X189086073Y-59950076D01*
X192627351Y-69215776D02*
X192618651Y-69215776D01*
X56472493Y-74308956D02*
X45418885Y-74308956D01*
X188728051Y-43989676D02*
X188728051Y-50165776D01*
X54514851Y-53283242D02*
X54514851Y-50165776D01*
X56699345Y-62790149D02*
X56699345Y-54132629D01*
X44994359Y-74733482D02*
X44994359Y-95877986D01*
X188662828Y-59526831D02*
X188662828Y-50205000D01*
X192196196Y-73765976D02*
X189942616Y-73765976D01*
X50164224Y-97735776D02*
X50125000Y-97775000D01*
X192618651Y-69215776D02*
X192618651Y-73343521D01*
X189518443Y-82574481D02*
G75*
G03*
X189944375Y-83000457I425957J-19D01*
G01*
X55557675Y-98159773D02*
G75*
G03*
X55133678Y-97735825I-423975J-27D01*
G01*
X189942616Y-73765976D02*
G75*
G03*
X189518476Y-74190149I-16J-424124D01*
G01*
X59970720Y-69255000D02*
G75*
G03*
X60394400Y-68831269I-20J423700D01*
G01*
X61241791Y-107275776D02*
G75*
G03*
X61658676Y-106858916I9J416876D01*
G01*
X49701084Y-96306782D02*
G75*
G02*
X50125018Y-96730698I16J-423918D01*
G01*
X57123072Y-63213876D02*
G75*
G02*
X56699324Y-62790149I28J423776D01*
G01*
X192618651Y-73343521D02*
G75*
G02*
X192196196Y-73765951I-422451J21D01*
G01*
X44999787Y-95883414D02*
G75*
G03*
X45423159Y-96306813I423413J14D01*
G01*
X194397810Y-59958005D02*
G75*
G03*
X194389881Y-59950090I-7910J5D01*
G01*
X189086073Y-59950076D02*
G75*
G02*
X188662824Y-59526831I27J423276D01*
G01*
X45418885Y-74308956D02*
G75*
G03*
X44994356Y-74733482I15J-424544D01*
G01*
X201837377Y-83000413D02*
G75*
G02*
X202262487Y-83425536I23J-425087D01*
G01*
X56699345Y-54132629D02*
G75*
G03*
X56274392Y-53707655I-424945J29D01*
G01*
X56896151Y-73885298D02*
G75*
G02*
X56472493Y-74308951I-423651J-2D01*
G01*
X54939285Y-53707676D02*
G75*
G02*
X54514824Y-53283242I15J424476D01*
G01*
%TO.N,RE01a*%
X37127436Y-31538110D02*
X37137318Y-31528228D01*
X37127436Y-111811513D02*
X37127436Y-31538110D01*
X45014851Y-112235776D02*
X37551699Y-112235776D01*
X37551699Y-112235776D02*
G75*
G02*
X37127424Y-111811513I1J424276D01*
G01*
%TO.N,RE01b*%
X310172400Y-20730934D02*
X310172400Y-21362298D01*
X310597497Y-21787395D02*
X316204935Y-21787395D01*
X316624719Y-22207179D02*
X316624719Y-115528932D01*
X316204935Y-21787395D02*
G75*
G02*
X316624705Y-22207179I-35J-419805D01*
G01*
X310172400Y-21362298D02*
G75*
G03*
X310597497Y-21787400I425100J-2D01*
G01*
%TO.N,Col1*%
X78327351Y-107315776D02*
X78327351Y-95010961D01*
X206962651Y-50165776D02*
X206962651Y-58882288D01*
X70686745Y-74641469D02*
X78327351Y-74641469D01*
X87771446Y-94587475D02*
X87761028Y-94577057D01*
X212596915Y-59306562D02*
X207386925Y-59306562D01*
X87761028Y-88305000D02*
X87962500Y-88305000D01*
X290102551Y-65659699D02*
X290102551Y-31977240D01*
X223030990Y-88305000D02*
X223030990Y-80523203D01*
X87761028Y-94577057D02*
X87761028Y-88305000D01*
X87852351Y-88265776D02*
X87754251Y-88265776D01*
X291761404Y-74964187D02*
X291761404Y-66506944D01*
X290525268Y-31554523D02*
X294508864Y-31554523D01*
X221312500Y-88305000D02*
X223030990Y-88305000D01*
X212578251Y-62965476D02*
X212578251Y-69215776D01*
X291337330Y-66082870D02*
X290525722Y-66082870D01*
X212578251Y-69215776D02*
X211677351Y-69215776D01*
X78327351Y-63921704D02*
X78327351Y-74641469D01*
X206914851Y-50165776D02*
X206962651Y-50165776D01*
X294932400Y-31978059D02*
X294932400Y-35970934D01*
X70281139Y-94560380D02*
X70265642Y-94544883D01*
X70265642Y-94544883D02*
X70265642Y-75062572D01*
X78750837Y-94587475D02*
X87771446Y-94587475D01*
X74552261Y-58306077D02*
X74552261Y-51153186D01*
X78340428Y-63908627D02*
X78327351Y-63921704D01*
X212578251Y-69215776D02*
X212578251Y-76572277D01*
X290525722Y-66082870D02*
G75*
G02*
X290102530Y-65659699I-22J423170D01*
G01*
X291761404Y-66506944D02*
G75*
G03*
X291337330Y-66082796I-424104J44D01*
G01*
X70265642Y-75062572D02*
G75*
G02*
X70686745Y-74641542I421058J-28D01*
G01*
X294508864Y-31554523D02*
G75*
G02*
X294932477Y-31978059I36J-423577D01*
G01*
X74552261Y-51153186D02*
G75*
G03*
X73564851Y-50165739I-987461J-14D01*
G01*
X212578251Y-76572277D02*
G75*
G02*
X212570550Y-76580051I-7751J-23D01*
G01*
X207386925Y-59306562D02*
G75*
G02*
X206962638Y-58882288I-25J424262D01*
G01*
X290102551Y-31977240D02*
G75*
G02*
X290525268Y-31554451I422749J40D01*
G01*
X78327351Y-95010961D02*
G75*
G02*
X78750837Y-94587551I423449J-39D01*
G01*
%TO.N,Col2*%
X226950589Y-58270183D02*
X226937751Y-58257345D01*
X98762051Y-69215776D02*
X97377351Y-69215776D01*
X92614851Y-55150601D02*
X92616782Y-55152532D01*
X98751487Y-65819083D02*
X98762051Y-65829647D01*
X225964851Y-50165776D02*
X226780751Y-50165776D01*
X226937751Y-50165776D02*
X226780751Y-50165776D01*
X230656251Y-75550876D02*
X230656251Y-69215776D01*
X106902351Y-88265776D02*
X106902351Y-106891444D01*
X97803769Y-75570476D02*
X107633964Y-75570476D01*
X242633651Y-102011467D02*
X242643367Y-102001751D01*
X106478019Y-107315776D02*
X99758651Y-107315776D01*
X240252351Y-95221953D02*
X240252351Y-82015476D01*
X98762051Y-65829647D02*
X98762051Y-69215776D01*
X108057870Y-75994382D02*
X108057870Y-87110257D01*
X230656251Y-69215776D02*
X230585051Y-69215776D01*
X230585051Y-69215776D02*
X230585051Y-58276897D01*
X108057870Y-87110257D02*
X106902351Y-88265776D01*
X226937751Y-58257345D02*
X226937751Y-50165776D01*
X97377351Y-69215776D02*
X97377351Y-75144058D01*
X92614851Y-50165776D02*
X92614851Y-55150601D01*
X230585051Y-58276897D02*
X230584724Y-58276570D01*
X230727351Y-69215776D02*
X230656251Y-69215776D01*
X226780751Y-43825076D02*
X226780751Y-50165776D01*
X242633651Y-107315776D02*
X242633651Y-102011467D01*
X97377351Y-75144058D02*
G75*
G03*
X97803769Y-75570549I426449J-42D01*
G01*
X106902351Y-106891444D02*
G75*
G02*
X106478019Y-107315751I-424351J44D01*
G01*
X107633964Y-75570476D02*
G75*
G02*
X108057924Y-75994382I36J-423924D01*
G01*
%TO.N,Col3*%
X290704351Y-56500405D02*
X290709981Y-56506035D01*
X111756300Y-82619932D02*
X111756300Y-74189275D01*
X125952351Y-82965144D02*
X125958804Y-82958691D01*
X249567423Y-69255000D02*
X249567423Y-63271984D01*
X116427351Y-73342231D02*
X116427351Y-57599764D01*
X113869363Y-83042551D02*
X112178919Y-83042551D01*
X116427351Y-57599764D02*
X116440674Y-57586441D01*
X292491355Y-47610652D02*
X291129371Y-47610652D01*
X251485651Y-69215776D02*
X251035951Y-69215776D01*
X111664851Y-55011911D02*
X111675103Y-55022163D01*
X299892251Y-35931676D02*
X299892251Y-38095136D01*
X264064851Y-107315776D02*
X264064851Y-95734688D01*
X299477811Y-38509576D02*
X293339326Y-38509576D01*
X263642199Y-95312036D02*
X259725651Y-95312036D01*
X249887500Y-69255000D02*
X249567423Y-69255000D01*
X292915073Y-38933829D02*
X292915073Y-47186934D01*
X112179599Y-73765976D02*
X116003606Y-73765976D01*
X125952351Y-88265776D02*
X125952351Y-82965144D01*
X251035951Y-76503850D02*
X251035951Y-69215776D01*
X259302351Y-94888736D02*
X259302351Y-82338076D01*
X246558925Y-55025000D02*
X246558925Y-50205000D01*
X249777351Y-69215776D02*
X251035951Y-69215776D01*
X246558925Y-50205000D02*
X245125000Y-50205000D01*
X290704351Y-48035672D02*
X290704351Y-56500405D01*
X111664851Y-50165776D02*
X111664851Y-55011911D01*
X292915073Y-47186934D02*
G75*
G02*
X292491355Y-47610573I-423673J34D01*
G01*
X299892251Y-38095136D02*
G75*
G02*
X299477811Y-38509551I-414451J36D01*
G01*
X259725651Y-95312036D02*
G75*
G02*
X259302364Y-94888736I49J423336D01*
G01*
X293339326Y-38509576D02*
G75*
G03*
X292915076Y-38933829I-26J-424224D01*
G01*
X264064851Y-95734688D02*
G75*
G03*
X263642199Y-95312049I-422651J-12D01*
G01*
X291129371Y-47610652D02*
G75*
G03*
X290704352Y-48035672I29J-425048D01*
G01*
X112178919Y-83042551D02*
G75*
G02*
X111756249Y-82619932I-19J422651D01*
G01*
X116003606Y-73765976D02*
G75*
G03*
X116427376Y-73342231I-6J423776D01*
G01*
X111756300Y-74189275D02*
G75*
G02*
X112179599Y-73766000I423300J-25D01*
G01*
%TO.N,Col4*%
X286639140Y-97353060D02*
X286639140Y-90799239D01*
X270452927Y-69255000D02*
X270452927Y-55929665D01*
X135163670Y-63933065D02*
X122173051Y-63933065D01*
X122173306Y-54715976D02*
X130289812Y-54715976D01*
X268937500Y-69255000D02*
X270452927Y-69255000D01*
X264067876Y-55904807D02*
X264064851Y-55901782D01*
X145112500Y-88305000D02*
X145112500Y-83535342D01*
X279724851Y-76980684D02*
X279724851Y-88265776D01*
X132797551Y-82686676D02*
X132797551Y-74221954D01*
X286211477Y-90371576D02*
X280149169Y-90371576D01*
X135477351Y-73767476D02*
X135477351Y-69365149D01*
X269400451Y-73743855D02*
X269400451Y-69255000D01*
X288250000Y-97775000D02*
X287061080Y-97775000D01*
X269400451Y-69255000D02*
X268937500Y-69255000D01*
X144688133Y-83110975D02*
X133221850Y-83110975D01*
X135587500Y-69255000D02*
X135587500Y-64356895D01*
X307939522Y-41306276D02*
X309878448Y-41306276D01*
X293657179Y-107275776D02*
X292999851Y-107275776D01*
X279724851Y-89947258D02*
X279724851Y-88265776D01*
X121749892Y-63509906D02*
X121749892Y-55139390D01*
X130714851Y-54290937D02*
X130714851Y-50165776D01*
X133252029Y-73767476D02*
X135477351Y-73767476D01*
X310298851Y-41726679D02*
X310298851Y-54506439D01*
X278352351Y-88265776D02*
X279724851Y-88265776D01*
X269400451Y-73743855D02*
X269400451Y-76133680D01*
X269823691Y-76556920D02*
X279301087Y-76556920D01*
X293657179Y-98162380D02*
X293657179Y-107275776D01*
X307522251Y-35931676D02*
X307522251Y-40889005D01*
X288139851Y-97735776D02*
X293230575Y-97735776D01*
X269400451Y-72350876D02*
X269400451Y-73743855D01*
X264064851Y-55901782D02*
X264064851Y-50165776D01*
X307522251Y-40889005D02*
G75*
G03*
X307939522Y-41306249I417249J5D01*
G01*
X133221850Y-83110975D02*
G75*
G02*
X132797525Y-82686676I-50J424275D01*
G01*
X135477351Y-69365149D02*
G75*
G02*
X135587500Y-69254951I110149J49D01*
G01*
X293230575Y-97735776D02*
G75*
G02*
X293657224Y-98162380I25J-426624D01*
G01*
X132797551Y-74221954D02*
G75*
G02*
X133252029Y-73767551I454449J-46D01*
G01*
X287061080Y-97775000D02*
G75*
G02*
X286639200Y-97353060I20J421900D01*
G01*
X145112500Y-83535342D02*
G75*
G03*
X144688133Y-83110900I-424400J42D01*
G01*
X270452927Y-55929665D02*
G75*
G02*
X270466618Y-55916027I13673J-35D01*
G01*
X280149169Y-90371576D02*
G75*
G02*
X279724924Y-89947258I31J424276D01*
G01*
X122173051Y-63933065D02*
G75*
G02*
X121749835Y-63509906I-51J423165D01*
G01*
X279301087Y-76556920D02*
G75*
G02*
X279724880Y-76980684I13J-423780D01*
G01*
X286639140Y-90799239D02*
G75*
G03*
X286211477Y-90371560I-427640J39D01*
G01*
X309878448Y-41306276D02*
G75*
G02*
X310298824Y-41726679I-48J-420424D01*
G01*
X121749892Y-55139390D02*
G75*
G02*
X122173306Y-54715992I423408J-10D01*
G01*
X135587500Y-64356895D02*
G75*
G03*
X135163670Y-63933100I-423800J-5D01*
G01*
X269400451Y-76133680D02*
G75*
G03*
X269823691Y-76556949I423249J-20D01*
G01*
X130289812Y-54715976D02*
G75*
G03*
X130714876Y-54290937I-12J425076D01*
G01*
%TO.N,Col5*%
X155785951Y-69215776D02*
X155785951Y-58869510D01*
X155785951Y-58869510D02*
X155786011Y-58869450D01*
X153869712Y-74367476D02*
X153869712Y-69255000D01*
X172757434Y-107315000D02*
X171012500Y-107315000D01*
X165003235Y-75822778D02*
X164993451Y-75832562D01*
X164586341Y-93574119D02*
X172332636Y-93574119D01*
X154527351Y-69215776D02*
X155785951Y-69215776D01*
X151515251Y-58869450D02*
X151515251Y-50165776D01*
X164993451Y-75832562D02*
X164993451Y-88305000D01*
X287324168Y-69255000D02*
X287987500Y-69255000D01*
X164162500Y-88305000D02*
X164162500Y-93150278D01*
X287613251Y-69215776D02*
X287877351Y-69215776D01*
X287324168Y-74343855D02*
X287324168Y-69255000D01*
X283114851Y-50165776D02*
X283114851Y-54146658D01*
X164993451Y-88305000D02*
X164162500Y-88305000D01*
X172757434Y-93998917D02*
X172757434Y-107315000D01*
X287613251Y-54147297D02*
X287613251Y-39222629D01*
X287613251Y-54147297D02*
X287613251Y-69215776D01*
X153869712Y-69255000D02*
X154637500Y-69255000D01*
X151515251Y-50165776D02*
X149764851Y-50165776D01*
X164162500Y-93150278D02*
G75*
G03*
X164586341Y-93574100I423800J-22D01*
G01*
X287613251Y-39222629D02*
G75*
G02*
X287615533Y-39220351I2249J29D01*
G01*
X172332636Y-93574119D02*
G75*
G02*
X172757381Y-93998917I-36J-424781D01*
G01*
%TO.N,Col6*%
X187822945Y-85813130D02*
X183634447Y-85813130D01*
X188245544Y-75123389D02*
X188245544Y-85390531D01*
X312712400Y-35970934D02*
X313202987Y-35970934D01*
X174000446Y-74698383D02*
X187820538Y-74698383D01*
X312791137Y-98160477D02*
X312791137Y-107275776D01*
X313624812Y-46761305D02*
X313624812Y-68833102D01*
X168925000Y-51189854D02*
X172139012Y-51189854D01*
X309308651Y-69365149D02*
X309308651Y-87842704D01*
X313624812Y-36392759D02*
X313624812Y-46755065D01*
X304970292Y-97735776D02*
X312366436Y-97735776D01*
X183212500Y-93721885D02*
X183212500Y-88305000D01*
X312791137Y-107275776D02*
X312049851Y-107275776D01*
X173577351Y-57892153D02*
X173577351Y-74275288D01*
X172789022Y-56782904D02*
X173350426Y-57344308D01*
X313621692Y-46758185D02*
X313624812Y-46761305D01*
X183212500Y-86235077D02*
X183212500Y-88305000D01*
X183230601Y-93721885D02*
X183212500Y-93721885D01*
X304546151Y-88265776D02*
X304546151Y-97311635D01*
X313202914Y-69255000D02*
X309418800Y-69255000D01*
X183840956Y-88305000D02*
X183212500Y-88305000D01*
X306927351Y-50165776D02*
X306927351Y-46761785D01*
X172562232Y-51613074D02*
X172562232Y-56235384D01*
X308885579Y-88265776D02*
X304546151Y-88265776D01*
X168925000Y-50205000D02*
X168925000Y-51189854D01*
X306927351Y-46761785D02*
X306923751Y-46758185D01*
X172139012Y-51189854D02*
G75*
G02*
X172562246Y-51613074I-12J-423246D01*
G01*
X172562232Y-56235384D02*
G75*
G03*
X172789023Y-56782903I774268J-16D01*
G01*
X312366436Y-97735776D02*
G75*
G02*
X312791124Y-98160477I-36J-424724D01*
G01*
X309418800Y-69255000D02*
G75*
G03*
X309308700Y-69365149I0J-110100D01*
G01*
X187820538Y-74698383D02*
G75*
G02*
X188245517Y-75123389I-38J-425017D01*
G01*
X313624812Y-46755065D02*
G75*
G02*
X313621692Y-46758212I-3112J-35D01*
G01*
X173577351Y-74275288D02*
G75*
G03*
X174000446Y-74698349I423049J-12D01*
G01*
X188245544Y-85390531D02*
G75*
G02*
X187822945Y-85813144I-422644J31D01*
G01*
X313624812Y-68833102D02*
G75*
G02*
X313202914Y-69255012I-421912J2D01*
G01*
X304546151Y-97311635D02*
G75*
G03*
X304970292Y-97735749I424149J35D01*
G01*
X309308651Y-87842704D02*
G75*
G02*
X308885579Y-88265751I-423051J4D01*
G01*
X173350426Y-57344308D02*
G75*
G02*
X173577390Y-57892153I-547826J-547892D01*
G01*
X183634447Y-85813130D02*
G75*
G03*
X183212430Y-86235077I-47J-421970D01*
G01*
X313202987Y-35970934D02*
G75*
G02*
X313624866Y-36392759I13J-421866D01*
G01*
%TO.N,RE02b*%
X305092400Y-20730934D02*
X305092400Y-19831461D01*
X290124615Y-67000074D02*
X290538262Y-67000074D01*
X288099184Y-73590929D02*
X288099184Y-96159467D01*
X304667552Y-19406613D02*
X290124372Y-19406613D01*
X290538340Y-73167276D02*
X288522837Y-73167276D01*
X294656225Y-112235776D02*
X288139851Y-112235776D01*
X295079079Y-97010210D02*
X295079079Y-111812922D01*
X288521993Y-96582276D02*
X294651145Y-96582276D01*
X290962372Y-67424184D02*
X290962372Y-72743244D01*
X289700851Y-19830134D02*
X289700851Y-66576310D01*
X288522837Y-73167276D02*
G75*
G03*
X288099176Y-73590929I-37J-423624D01*
G01*
X295079079Y-111812922D02*
G75*
G02*
X294656225Y-112235779I-422879J22D01*
G01*
X290124372Y-19406613D02*
G75*
G03*
X289700913Y-19830134I28J-423487D01*
G01*
X290538262Y-67000074D02*
G75*
G02*
X290962426Y-67424184I38J-424126D01*
G01*
X294651145Y-96582276D02*
G75*
G02*
X295079024Y-97010210I-45J-427924D01*
G01*
X289700851Y-66576310D02*
G75*
G03*
X290124615Y-67000049I423749J10D01*
G01*
X288099184Y-96159467D02*
G75*
G03*
X288521993Y-96582316I422816J-33D01*
G01*
X290962372Y-72743244D02*
G75*
G02*
X290538340Y-73167272I-424072J44D01*
G01*
X305092400Y-19831461D02*
G75*
G03*
X304667552Y-19406700I-424800J-39D01*
G01*
%TO.N,RE02a*%
X307632400Y-20730934D02*
X307632377Y-19836097D01*
X321358601Y-114600713D02*
X321358601Y-19836086D01*
X321356006Y-114600713D02*
X321358601Y-114600713D01*
X320935199Y-19412684D02*
X308055779Y-19412684D01*
X321358601Y-19836086D02*
G75*
G03*
X320935199Y-19412699I-423401J-14D01*
G01*
X308055779Y-19412684D02*
G75*
G03*
X307632384Y-19836097I21J-423416D01*
G01*
%TO.N,RE03b*%
X315106484Y-24522720D02*
X300425557Y-24522720D01*
X315530159Y-112274753D02*
X315530159Y-24946395D01*
X300002400Y-24099563D02*
X300002400Y-20730934D01*
X300425557Y-24522720D02*
G75*
G02*
X300002480Y-24099563I43J423120D01*
G01*
X315530159Y-24946395D02*
G75*
G03*
X315106484Y-24522741I-423659J-5D01*
G01*
%TO.N,RE03a*%
X302300000Y-113204412D02*
X302300000Y-112275000D01*
X315704805Y-113628646D02*
X302724234Y-113628646D01*
X302552400Y-20730934D02*
X302552400Y-21901671D01*
X302977359Y-22326630D02*
X315706147Y-22326630D01*
X316130159Y-22750642D02*
X316130159Y-113203292D01*
X302724234Y-113628646D02*
G75*
G02*
X302299954Y-113204412I-34J424246D01*
G01*
X302552400Y-21901671D02*
G75*
G03*
X302977359Y-22326700I425000J-29D01*
G01*
X315706147Y-22326630D02*
G75*
G02*
X316130070Y-22750642I-47J-423970D01*
G01*
X316130159Y-113203292D02*
G75*
G02*
X315704805Y-113628659I-425359J-8D01*
G01*
%TD*%
M02*
