%TF.GenerationSoftware,KiCad,Pcbnew,9.0.3*%
%TF.CreationDate,2025-11-12T23:28:46+09:00*%
%TF.ProjectId,amphibious_pcb,616d7068-6962-4696-9f75-735f7063622e,rev?*%
%TF.SameCoordinates,Original*%
%TF.FileFunction,Legend,Top*%
%TF.FilePolarity,Positive*%
%FSLAX46Y46*%
G04 Gerber Fmt 4.6, Leading zero omitted, Abs format (unit mm)*
G04 Created by KiCad (PCBNEW 9.0.3) date 2025-11-12 23:28:46*
%MOMM*%
%LPD*%
G01*
G04 APERTURE LIST*
%ADD10C,0.150000*%
%ADD11C,0.120000*%
%ADD12C,2.000000*%
%ADD13C,4.000000*%
G04 APERTURE END LIST*
D10*
%TO.C,SW4*%
X40625000Y-97775000D02*
X40625000Y-99775000D01*
X40625000Y-109775000D02*
X40625000Y-111775000D01*
X40625000Y-111775000D02*
X42625000Y-111775000D01*
X42625000Y-97775000D02*
X40625000Y-97775000D01*
D11*
X43525000Y-111975000D02*
X43825000Y-112275000D01*
X43525000Y-112575000D02*
X43525000Y-111975000D01*
X43825000Y-112275000D02*
X43525000Y-112575000D01*
D10*
X52625000Y-111775000D02*
X54625000Y-111775000D01*
X54625000Y-97775000D02*
X52625000Y-97775000D01*
X54625000Y-99775000D02*
X54625000Y-97775000D01*
X54625000Y-111775000D02*
X54625000Y-109775000D01*
%TO.C,SW49*%
X297800000Y-97775000D02*
X297800000Y-99775000D01*
X297800000Y-109775000D02*
X297800000Y-111775000D01*
X297800000Y-111775000D02*
X299800000Y-111775000D01*
X299800000Y-97775000D02*
X297800000Y-97775000D01*
D11*
X300700000Y-111975000D02*
X301000000Y-112275000D01*
X300700000Y-112575000D02*
X300700000Y-111975000D01*
X301000000Y-112275000D02*
X300700000Y-112575000D01*
D10*
X309800000Y-111775000D02*
X311800000Y-111775000D01*
X311800000Y-97775000D02*
X309800000Y-97775000D01*
X311800000Y-99775000D02*
X311800000Y-97775000D01*
X311800000Y-111775000D02*
X311800000Y-109775000D01*
%TO.C,SW43*%
X278750000Y-97775000D02*
X278750000Y-99775000D01*
X278750000Y-109775000D02*
X278750000Y-111775000D01*
X278750000Y-111775000D02*
X280750000Y-111775000D01*
X280750000Y-97775000D02*
X278750000Y-97775000D01*
D11*
X281650000Y-111975000D02*
X281950000Y-112275000D01*
X281650000Y-112575000D02*
X281650000Y-111975000D01*
X281950000Y-112275000D02*
X281650000Y-112575000D01*
D10*
X290750000Y-111775000D02*
X292750000Y-111775000D01*
X292750000Y-97775000D02*
X290750000Y-97775000D01*
X292750000Y-99775000D02*
X292750000Y-97775000D01*
X292750000Y-111775000D02*
X292750000Y-109775000D01*
%TD*%
D12*
%TO.C,SW5*%
X71755000Y-47625000D03*
D13*
X66675000Y-47625000D03*
D12*
X61595000Y-47625000D03*
%TD*%
%TO.C,SW8*%
X76517500Y-104775000D03*
D13*
X71437500Y-104775000D03*
D12*
X66357500Y-104775000D03*
%TD*%
%TO.C,SW12*%
X97948800Y-104775000D03*
D13*
X92868800Y-104775000D03*
D12*
X87788800Y-104775000D03*
%TD*%
%TO.C,SW2*%
X55086300Y-66675000D03*
D13*
X50006300Y-66675000D03*
D12*
X44926300Y-66675000D03*
%TD*%
%TO.C,SW1*%
X52705000Y-47625000D03*
D13*
X47625000Y-47625000D03*
D12*
X42545000Y-47625000D03*
%TD*%
%TO.C,SW3*%
X59848800Y-85725000D03*
D13*
X54768800Y-85725000D03*
D12*
X49688800Y-85725000D03*
%TD*%
%TO.C,SW7*%
X86042500Y-85725000D03*
D13*
X80962500Y-85725000D03*
D12*
X75882500Y-85725000D03*
%TD*%
%TO.C,SW6*%
X76517500Y-66675000D03*
D13*
X71437500Y-66675000D03*
D12*
X66357500Y-66675000D03*
%TD*%
%TO.C,SW9*%
X90805000Y-47625000D03*
D13*
X85725000Y-47625000D03*
D12*
X80645000Y-47625000D03*
%TD*%
%TO.C,SW10*%
X95567500Y-66675000D03*
D13*
X90487500Y-66675000D03*
D12*
X85407500Y-66675000D03*
%TD*%
%TO.C,SW11*%
X105092500Y-85725000D03*
D13*
X100012500Y-85725000D03*
D12*
X94932500Y-85725000D03*
%TD*%
%TO.C,SW13*%
X109855000Y-47625000D03*
D13*
X104775000Y-47625000D03*
D12*
X99695000Y-47625000D03*
%TD*%
%TO.C,SW15*%
X124142500Y-85725000D03*
D13*
X119062500Y-85725000D03*
D12*
X113982500Y-85725000D03*
%TD*%
%TO.C,SW14*%
X114617500Y-66675000D03*
D13*
X109537500Y-66675000D03*
D12*
X104457500Y-66675000D03*
%TD*%
%TO.C,SW16*%
X128905000Y-47625000D03*
D13*
X123825000Y-47625000D03*
D12*
X118745000Y-47625000D03*
%TD*%
%TO.C,SW25*%
X181292500Y-85725000D03*
D13*
X176212500Y-85725000D03*
D12*
X171132500Y-85725000D03*
%TD*%
%TO.C,SW17*%
X133667500Y-66675000D03*
D13*
X128587500Y-66675000D03*
D12*
X123507500Y-66675000D03*
%TD*%
%TO.C,SW19*%
X147955000Y-47625000D03*
D13*
X142875000Y-47625000D03*
D12*
X137795000Y-47625000D03*
%TD*%
%TO.C,SW21*%
X162242500Y-85725000D03*
D13*
X157162500Y-85725000D03*
D12*
X152082500Y-85725000D03*
%TD*%
%TO.C,SW23*%
X167005000Y-47625000D03*
D13*
X161925000Y-47625000D03*
D12*
X156845000Y-47625000D03*
%TD*%
%TO.C,SW24*%
X171767500Y-66675000D03*
D13*
X166687500Y-66675000D03*
D12*
X161607500Y-66675000D03*
%TD*%
%TO.C,SW18*%
X143192500Y-85725000D03*
D13*
X138112500Y-85725000D03*
D12*
X133032500Y-85725000D03*
%TD*%
%TO.C,SW20*%
X152717500Y-66675000D03*
D13*
X147637500Y-66675000D03*
D12*
X142557500Y-66675000D03*
%TD*%
%TO.C,SW30*%
X209867500Y-66675000D03*
D13*
X204787500Y-66675000D03*
D12*
X199707500Y-66675000D03*
%TD*%
%TO.C,SW28*%
X200342500Y-85725000D03*
D13*
X195262500Y-85725000D03*
D12*
X190182500Y-85725000D03*
%TD*%
%TO.C,SW32*%
X224155000Y-47625000D03*
D13*
X219075000Y-47625000D03*
D12*
X213995000Y-47625000D03*
%TD*%
%TO.C,SW27*%
X190817500Y-66675000D03*
D13*
X185737500Y-66675000D03*
D12*
X180657500Y-66675000D03*
%TD*%
%TO.C,SW34*%
X238442500Y-85725000D03*
D13*
X233362500Y-85725000D03*
D12*
X228282500Y-85725000D03*
%TD*%
%TO.C,SW31*%
X219392500Y-85725000D03*
D13*
X214312500Y-85725000D03*
D12*
X209232500Y-85725000D03*
%TD*%
%TO.C,SW26*%
X186055000Y-47625000D03*
D13*
X180975000Y-47625000D03*
D12*
X175895000Y-47625000D03*
%TD*%
%TO.C,SW33*%
X228917500Y-66675000D03*
D13*
X223837500Y-66675000D03*
D12*
X218757500Y-66675000D03*
%TD*%
%TO.C,SW29*%
X205105000Y-47625000D03*
D13*
X200025000Y-47625000D03*
D12*
X194945000Y-47625000D03*
%TD*%
%TO.C,SW48*%
X302736300Y-85725000D03*
D13*
X297656300Y-85725000D03*
D12*
X292576300Y-85725000D03*
%TD*%
%TO.C,SW38*%
X257492500Y-85725000D03*
D13*
X252412500Y-85725000D03*
D12*
X247332500Y-85725000D03*
%TD*%
%TO.C,SW36*%
X243205000Y-47625000D03*
D13*
X238125000Y-47625000D03*
D12*
X233045000Y-47625000D03*
%TD*%
%TO.C,SW37*%
X247967500Y-66675000D03*
D13*
X242887500Y-66675000D03*
D12*
X237807500Y-66675000D03*
%TD*%
%TO.C,SW45*%
X286067500Y-66675000D03*
D13*
X280987500Y-66675000D03*
D12*
X275907500Y-66675000D03*
%TD*%
%TO.C,SW40*%
X262255000Y-47625000D03*
D13*
X257175000Y-47625000D03*
D12*
X252095000Y-47625000D03*
%TD*%
%TO.C,SW41*%
X267017500Y-66675000D03*
D13*
X261937500Y-66675000D03*
D12*
X256857500Y-66675000D03*
%TD*%
%TO.C,SW44*%
X281305000Y-47625000D03*
D13*
X276225000Y-47625000D03*
D12*
X271145000Y-47625000D03*
%TD*%
%TO.C,SW46*%
X305117500Y-47625000D03*
D13*
X300037500Y-47625000D03*
D12*
X294957500Y-47625000D03*
%TD*%
%TO.C,SW35*%
X240823800Y-104775000D03*
D13*
X235743800Y-104775000D03*
D12*
X230663800Y-104775000D03*
%TD*%
%TO.C,SW39*%
X262255000Y-104775000D03*
D13*
X257175000Y-104775000D03*
D12*
X252095000Y-104775000D03*
%TD*%
%TO.C,SW42*%
X276542500Y-85725000D03*
D13*
X271462500Y-85725000D03*
D12*
X266382500Y-85725000D03*
%TD*%
%TO.C,SW47*%
X307498800Y-66675000D03*
D13*
X302418800Y-66675000D03*
D12*
X297338800Y-66675000D03*
%TD*%
M02*
