M48
; DRILL file {KiCad 9.0.3} date 2025-11-12T23:28:52+0900
; FORMAT={-:-/ absolute / metric / decimal}
; #@! TF.CreationDate,2025-11-12T23:28:52+09:00
; #@! TF.GenerationSoftware,Kicad,Pcbnew,9.0.3
; #@! TF.FileFunction,MixedPlating,1,2
FMAT,2
METRIC
; #@! TA.AperFunction,Plated,PTH,ViaDrill
T1C0.300
; #@! TA.AperFunction,Plated,PTH,ComponentDrill
T2C0.700
; #@! TA.AperFunction,Plated,PTH,ComponentDrill
T3C0.850
; #@! TA.AperFunction,Plated,PTH,ComponentDrill
T4C2.700
; #@! TA.AperFunction,NonPlated,NPTH,ComponentDrill
T5C1.800
; #@! TA.AperFunction,NonPlated,NPTH,ComponentDrill
T6C2.000
; #@! TA.AperFunction,NonPlated,NPTH,ComponentDrill
T7C3.000
; #@! TA.AperFunction,NonPlated,NPTH,ComponentDrill
T8C3.050
; #@! TA.AperFunction,NonPlated,NPTH,ComponentDrill
T9C4.000
%
G90
G05
T1
X37.137Y-31.528
X39.18Y-99.66
X41.556Y-58.963
X42.48Y-44.451
X46.478Y-80.068
X52.488Y-63.955
X55.916Y-60.873
X57.265Y-77.532
X60.394Y-44.451
X60.394Y-63.214
X61.191Y-63.955
X61.195Y-75.618
X62.259Y-99.66
X62.81Y-61.894
X64.68Y-62.351
X64.884Y-64.859
X68.256Y-96.588
X68.256Y-102.025
X70.281Y-94.56
X72.751Y-78.421
X73.939Y-95.16
X74.552Y-58.306
X75.314Y-77.532
X77.105Y-95.888
X78.086Y-75.593
X78.327Y-74.641
X78.34Y-63.909
X78.583Y-60.859
X79.856Y-44.585
X81.102Y-58.727
X82.756Y-114.025
X83.006Y-95.187
X83.159Y-60.845
X85.756Y-63.856
X87.771Y-94.587
X89.704Y-96.588
X91.685Y-81.007
X92.617Y-55.153
X93.416Y-75.616
X96.494Y-62.358
X98.751Y-65.819
X99.105Y-44.5
X99.222Y-98.937
X99.362Y-63.855
X102.047Y-95.883
X106.655Y-79.911
X107.458Y-77.306
X110.626Y-78.421
X111.675Y-55.022
X112.492Y-79.861
X113.444Y-75.553
X113.869Y-83.043
X115.434Y-62.38
X115.449Y-60.903
X116.441Y-57.586
X117.134Y-76.531
X117.725Y-44.317
X119.206Y-61.68
X120.11Y-56.227
X120.124Y-59.393
X122.35Y-60.921
X123.879Y-58.869
X124.279Y-77.308
X125.959Y-82.959
X131.755Y-83.018
X133.398Y-76.515
X135.459Y-60.845
X135.477Y-73.767
X137.621Y-44.137
X138.278Y-62.34
X138.291Y-75.593
X139.192Y-56.226
X141.096Y-60.829
X144.911Y-57.407
X146.083Y-83.025
X151.515Y-58.869
X152.506Y-57.406
X153.523Y-109.336
X153.87Y-74.367
X153.976Y-60.849
X155.786Y-58.869
X155.955Y-100.449
X156.372Y-44.841
X158.284Y-56.206
X160.113Y-62.285
X163.46Y-79.977
X163.99Y-57.406
X164.16Y-77.983
X165.003Y-75.823
X166.891Y-92.724
X168.665Y-41.823
X169.718Y-43.317
X170.096Y-55.612
X170.506Y-83.025
X170.71Y-81.301
X171.056Y-98.94
X172.157Y-94.536
X173.142Y-41.823
X173.454Y-77.283
X175.138Y-45.836
X177.293Y-59.299
X177.306Y-56.223
X178.706Y-75.733
X179.486Y-55.612
X183.006Y-57.407
X183.119Y-77.983
X183.231Y-93.722
X186.916Y-80.542
X188.006Y-43.275
X188.728Y-43.99
X190.303Y-75.736
X190.66Y-57.413
X194.398Y-59.958
X194.431Y-64.071
X194.756Y-45.025
X195.406Y-77.28
X199.285Y-63.925
X201.956Y-81.41
X202.07Y-57.413
X208.756Y-83.046
X212.571Y-76.58
X212.578Y-62.965
X212.597Y-59.307
X213.806Y-45.025
X215.66Y-57.413
X218.409Y-63.921
X220.531Y-81.416
X223.031Y-80.523
X223.978Y-81.406
X224.256Y-108.525
X226.781Y-43.825
X226.951Y-58.27
X227.637Y-100.449
X228.744Y-57.413
X229.37Y-82.981
X229.985Y-62.366
X230.585Y-58.277
X230.656Y-75.551
X232.543Y-45.025
X233.406Y-62.355
X237.564Y-63.914
X240.252Y-82.015
X240.252Y-95.222
X240.279Y-57.414
X242.632Y-100.444
X242.643Y-102.002
X246.062Y-82.981
X246.559Y-55.025
X247.756Y-114.775
X248.738Y-42.794
X249.567Y-63.272
X251.036Y-76.504
X252.564Y-62.351
X254.457Y-96.322
X256.706Y-63.865
X259.302Y-82.338
X260.199Y-79.902
X262.059Y-81.392
X262.945Y-97.222
X264.068Y-55.905
X265.174Y-82.174
X265.956Y-82.774
X268.87Y-60.903
X269.4Y-73.744
X269.853Y-59.031
X270.467Y-55.916
X270.756Y-45.025
X272.386Y-96.322
X273.19Y-60.888
X273.507Y-40.181
X274.985Y-99.675
X275.579Y-63.862
X277.701Y-78.32
X279.076Y-81.424
X283.115Y-54.147
X283.473Y-57.938
X284.034Y-41.798
X286.18Y-55.141
X286.88Y-59.025
X287.324Y-74.344
X287.613Y-54.147
X287.616Y-39.22
X290.31Y-75.66
X290.71Y-56.506
X291.33Y-81.4
X291.76Y-43.148
X291.761Y-74.964
X292.647Y-64.984
X293.899Y-60.558
X293.915Y-56.533
X294.562Y-43.199
X294.73Y-57.969
X296.273Y-99.66
X297.327Y-40.228
X297.441Y-64.099
X299.711Y-55.138
X300.4Y-56.505
X303.605Y-78.314
X303.877Y-27.792
X306.924Y-46.758
X308.214Y-59.031
X308.926Y-30.883
X310.299Y-54.506
X310.362Y-64.089
X312.501Y-66.71
X313.622Y-46.758
X314.563Y-99.653
X315.53Y-112.275
X316.625Y-115.529
X319.071Y-22.001
X319.088Y-40.25
X321.356Y-114.601
T3
X292.412Y-20.731
X292.412Y-35.971
X294.932Y-20.731
X294.932Y-35.971
X297.472Y-20.731
X297.472Y-35.971
X300.002Y-20.731
X300.002Y-35.971
X302.552Y-20.731
X302.552Y-35.971
X305.092Y-20.731
X305.092Y-35.971
X307.632Y-20.731
X307.632Y-35.971
X310.172Y-20.731
X310.172Y-35.971
X312.697Y-20.731
X312.712Y-23.271
X312.712Y-25.801
X312.712Y-28.351
X312.712Y-30.881
X312.712Y-33.431
X312.712Y-35.971
T4
X42.075Y-104.775
X53.175Y-104.775
X280.2Y-104.775
X291.3Y-104.775
X299.25Y-104.775
X310.35Y-104.775
T5
X159.032Y-104.775
X169.192Y-104.775
T6
X42.545Y-47.625
X44.926Y-66.675
X49.689Y-85.725
X52.705Y-47.625
X55.086Y-66.675
X59.849Y-85.725
X61.595Y-47.625
X66.358Y-66.675
X66.358Y-104.775
X71.755Y-47.625
X75.882Y-85.725
X76.517Y-66.675
X76.517Y-104.775
X80.645Y-47.625
X85.407Y-66.675
X86.042Y-85.725
X87.789Y-104.775
X90.805Y-47.625
X94.932Y-85.725
X95.567Y-66.675
X97.949Y-104.775
X99.695Y-47.625
X104.457Y-66.675
X105.093Y-85.725
X109.855Y-47.625
X113.983Y-85.725
X114.617Y-66.675
X118.745Y-47.625
X123.507Y-66.675
X124.142Y-85.725
X128.905Y-47.625
X133.032Y-85.725
X133.667Y-66.675
X137.795Y-47.625
X142.558Y-66.675
X143.192Y-85.725
X147.955Y-47.625
X152.082Y-85.725
X152.718Y-66.675
X156.845Y-47.625
X161.607Y-66.675
X162.243Y-85.725
X167.005Y-47.625
X171.132Y-85.725
X171.767Y-66.675
X175.895Y-47.625
X180.657Y-66.675
X181.292Y-85.725
X186.055Y-47.625
X190.183Y-85.725
X190.817Y-66.675
X194.945Y-47.625
X199.707Y-66.675
X200.343Y-85.725
X205.105Y-47.625
X209.232Y-85.725
X209.867Y-66.675
X213.995Y-47.625
X218.757Y-66.675
X219.392Y-85.725
X224.155Y-47.625
X228.282Y-85.725
X228.917Y-66.675
X230.664Y-104.775
X233.045Y-47.625
X237.807Y-66.675
X238.442Y-85.725
X240.824Y-104.775
X243.205Y-47.625
X247.332Y-85.725
X247.968Y-66.675
X252.095Y-47.625
X252.095Y-104.775
X256.858Y-66.675
X257.493Y-85.725
X262.255Y-47.625
X262.255Y-104.775
X266.382Y-85.725
X267.017Y-66.675
X271.145Y-47.625
X275.907Y-66.675
X276.542Y-85.725
X281.305Y-47.625
X286.067Y-66.675
X292.576Y-85.725
X294.957Y-47.625
X297.339Y-66.675
X302.736Y-85.725
X305.118Y-47.625
X307.499Y-66.675
T7
X45.085Y-52.705
X45.085Y-109.855
X47.466Y-71.755
X51.435Y-50.165
X51.435Y-107.315
X52.229Y-90.805
X53.816Y-69.215
X58.579Y-88.265
X64.135Y-52.705
X68.897Y-71.755
X68.897Y-109.855
X70.485Y-50.165
X75.248Y-69.215
X75.248Y-107.315
X78.422Y-90.805
X83.185Y-52.705
X84.772Y-88.265
X87.947Y-71.755
X89.535Y-50.165
X90.329Y-109.855
X94.297Y-69.215
X96.679Y-107.315
X97.472Y-90.805
X102.235Y-52.705
X103.822Y-88.265
X106.997Y-71.755
X108.585Y-50.165
X113.347Y-69.215
X116.522Y-90.805
X121.285Y-52.705
X122.872Y-88.265
X126.047Y-71.755
X127.635Y-50.165
X132.398Y-69.215
X135.572Y-90.805
X140.335Y-52.705
X141.922Y-88.265
X145.097Y-71.755
X146.685Y-50.165
X151.447Y-69.215
X154.623Y-90.805
X159.385Y-52.705
X160.972Y-88.265
X161.572Y-109.855
X164.147Y-71.755
X165.735Y-50.165
X167.922Y-107.315
X170.498Y-69.215
X173.672Y-90.805
X178.435Y-52.705
X180.022Y-88.265
X183.197Y-71.755
X184.785Y-50.165
X189.547Y-69.215
X192.722Y-90.805
X197.485Y-52.705
X199.072Y-88.265
X202.248Y-71.755
X203.835Y-50.165
X208.597Y-69.215
X211.772Y-90.805
X216.535Y-52.705
X218.123Y-88.265
X221.297Y-71.755
X222.885Y-50.165
X227.647Y-69.215
X230.822Y-90.805
X233.204Y-109.855
X235.585Y-52.705
X237.172Y-88.265
X239.554Y-107.315
X240.347Y-71.755
X241.935Y-50.165
X246.697Y-69.215
X249.873Y-90.805
X254.635Y-52.705
X254.635Y-109.855
X256.222Y-88.265
X259.397Y-71.755
X260.985Y-50.165
X260.985Y-107.315
X265.748Y-69.215
X268.923Y-90.805
X273.685Y-52.705
X275.272Y-88.265
X278.447Y-71.755
X280.035Y-50.165
X283.21Y-109.855
X284.798Y-69.215
X289.56Y-107.315
X295.116Y-90.805
X297.498Y-52.705
X299.879Y-71.755
X301.466Y-88.265
X302.26Y-109.855
X303.847Y-50.165
X306.229Y-69.215
X308.61Y-107.315
T8
X114.102Y-97.775
X214.123Y-97.775
T9
X47.625Y-47.625
X47.625Y-104.775
X50.006Y-66.675
X54.769Y-85.725
X66.675Y-47.625
X71.438Y-66.675
X71.438Y-104.775
X80.962Y-85.725
X85.725Y-47.625
X90.487Y-66.675
X92.869Y-104.775
X100.012Y-85.725
X104.775Y-47.625
X109.537Y-66.675
X114.102Y-113.015
X119.062Y-85.725
X123.825Y-47.625
X128.588Y-66.675
X138.112Y-85.725
X142.875Y-47.625
X147.637Y-66.675
X157.162Y-85.725
X161.925Y-47.625
X164.112Y-104.775
X166.688Y-66.675
X176.213Y-85.725
X180.975Y-47.625
X185.737Y-66.675
X195.262Y-85.725
X200.025Y-47.625
X204.787Y-66.675
X214.123Y-113.015
X214.312Y-85.725
X219.075Y-47.625
X223.837Y-66.675
X233.362Y-85.725
X235.744Y-104.775
X238.125Y-47.625
X242.887Y-66.675
X252.412Y-85.725
X257.175Y-47.625
X257.175Y-104.775
X261.938Y-66.675
X271.462Y-85.725
X276.225Y-47.625
X280.988Y-66.675
X285.75Y-104.775
X297.656Y-85.725
X300.037Y-47.625
X302.419Y-66.675
X304.8Y-104.775
T2
G00X45.275Y-97.775
M15
G01X44.975Y-97.775
M16
G05
G00X45.275Y-112.275
M15
G01X44.975Y-112.275
M16
G05
G00X47.775Y-112.275
M15
G01X47.475Y-112.275
M16
G05
G00X50.275Y-97.775
M15
G01X49.975Y-97.775
M16
G05
G00X50.275Y-112.275
M15
G01X49.975Y-112.275
M16
G05
G00X283.4Y-97.775
M15
G01X283.1Y-97.775
M16
G05
G00X283.4Y-112.275
M15
G01X283.1Y-112.275
M16
G05
G00X285.9Y-112.275
M15
G01X285.6Y-112.275
M16
G05
G00X288.4Y-97.775
M15
G01X288.1Y-97.775
M16
G05
G00X288.4Y-112.275
M15
G01X288.1Y-112.275
M16
G05
G00X302.45Y-97.775
M15
G01X302.15Y-97.775
M16
G05
G00X302.45Y-112.275
M15
G01X302.15Y-112.275
M16
G05
G00X304.95Y-112.275
M15
G01X304.65Y-112.275
M16
G05
G00X307.45Y-97.775
M15
G01X307.15Y-97.775
M16
G05
G00X307.45Y-112.275
M15
G01X307.15Y-112.275
M16
G05
M30
